<?xml version="1.0" standalone="no"?>
<!DOCTYPE svg PUBLIC "-//W3C//DTD SVG 1.1//EN" "http://www.w3.org/Graphics/SVG/1.1/DTD/svg11.dtd">
<svg width="180mm" height="13mm" viewBox="0 -13 180 13" xmlns="http://www.w3.org/2000/svg" version="1.1">
<title>OpenSCAD Model</title>
<path d="
M 178.394,-0.00294495 L 178.488,-0.0118256 L 178.581,-0.0265656 L 178.673,-0.0471191 L 178.764,-0.07341 L 178.852,-0.105331
 L 178.939,-0.142746 L 179.023,-0.185532 L 179.104,-0.233505 L 179.182,-0.286469 L 179.256,-0.344223 L 179.327,-0.40654
 L 179.393,-0.473175 L 179.456,-0.543854 L 179.514,-0.618317 L 179.566,-0.696259 L 179.614,-0.777359 L 179.657,-0.861328
 L 179.695,-0.9478 L 179.727,-1.03647 L 179.753,-1.12695 L 179.773,-1.21892 L 179.788,-1.312 L 179.797,-1.40581
 L 179.8,-1.5 L 179.8,-11.5 L 179.797,-11.5942 L 179.788,-11.688 L 179.773,-11.7811 L 179.753,-11.873
 L 179.727,-11.9635 L 179.695,-12.0522 L 179.657,-12.1387 L 179.614,-12.2226 L 179.566,-12.3037 L 179.514,-12.3817
 L 179.456,-12.4561 L 179.393,-12.5268 L 179.327,-12.5934 L 179.256,-12.6558 L 179.182,-12.7135 L 179.104,-12.7665
 L 179.023,-12.8145 L 178.939,-12.8572 L 178.852,-12.8947 L 178.764,-12.9266 L 178.673,-12.9529 L 178.581,-12.9734
 L 178.488,-12.9882 L 178.394,-12.997 L 178.3,-13 L 1.5,-13 L 1.40581,-12.997 L 1.312,-12.9882
 L 1.21892,-12.9734 L 1.12695,-12.9529 L 1.03647,-12.9266 L 0.9478,-12.8947 L 0.861328,-12.8572 L 0.777359,-12.8145
 L 0.696259,-12.7665 L 0.618317,-12.7135 L 0.543854,-12.6558 L 0.473175,-12.5934 L 0.40654,-12.5268 L 0.344223,-12.4561
 L 0.286469,-12.3817 L 0.233505,-12.3037 L 0.185532,-12.2226 L 0.142746,-12.1387 L 0.105331,-12.0522 L 0.07341,-11.9635
 L 0.0471191,-11.873 L 0.0265656,-11.7811 L 0.0118256,-11.688 L 0.00294495,-11.5942 L 0,-11.5 L 0,-1.5
 L 0.00294495,-1.40581 L 0.0118256,-1.312 L 0.0265656,-1.21892 L 0.0471191,-1.12695 L 0.07341,-1.03647 L 0.105331,-0.9478
 L 0.142746,-0.861328 L 0.185532,-0.777359 L 0.233505,-0.696259 L 0.286469,-0.618317 L 0.344223,-0.543854 L 0.40654,-0.473175
 L 0.473175,-0.40654 L 0.543854,-0.344223 L 0.618317,-0.286469 L 0.696259,-0.233505 L 0.777359,-0.185532 L 0.861328,-0.142746
 L 0.9478,-0.105331 L 1.03647,-0.07341 L 1.12695,-0.0471191 L 1.21892,-0.0265656 L 1.312,-0.0118256 L 1.40581,-0.00294495
 L 1.5,-0 L 178.3,-0 z
M 6.34302,-4.00494 L 6.18666,-4.01971 L 6.03154,-4.0443 L 5.87827,-4.07855 L 5.72745,-4.12236 L 5.57968,-4.17557
 L 5.43555,-4.23795 L 5.29561,-4.30923 L 5.16043,-4.38919 L 5.03053,-4.47746 L 4.90643,-4.57373 L 4.78862,-4.67758
 L 4.67757,-4.78864 L 4.57372,-4.90645 L 4.47745,-5.03055 L 4.38918,-5.16045 L 4.30922,-5.29562 L 4.23793,-5.43556
 L 4.17555,-5.5797 L 4.12234,-5.72746 L 4.07854,-5.87828 L 4.04428,-6.03156 L 4.0197,-6.18668 L 4.00493,-6.34303
 L 4,-6.5 L 4.00493,-6.65697 L 4.0197,-6.81332 L 4.04428,-6.96844 L 4.07854,-7.12172 L 4.12234,-7.27254
 L 4.17555,-7.4203 L 4.23793,-7.56444 L 4.30922,-7.70438 L 4.38918,-7.83955 L 4.47745,-7.96945 L 4.57372,-8.09355
 L 4.67757,-8.21136 L 4.78862,-8.32242 L 4.90643,-8.42627 L 5.03053,-8.52254 L 5.16043,-8.61081 L 5.29561,-8.69077
 L 5.43555,-8.76205 L 5.57968,-8.82443 L 5.72745,-8.87764 L 5.87827,-8.92145 L 6.03154,-8.9557 L 6.18666,-8.98029
 L 6.34302,-8.99506 L 6.5,-9 L 6.65697,-8.99506 L 6.81332,-8.98029 L 6.96844,-8.9557 L 7.12172,-8.92145
 L 7.27254,-8.87764 L 7.4203,-8.82443 L 7.56444,-8.76205 L 7.70438,-8.69077 L 7.83955,-8.61081 L 7.96945,-8.52254
 L 8.09355,-8.42627 L 8.21136,-8.32242 L 8.32242,-8.21136 L 8.42627,-8.09355 L 8.52254,-7.96945 L 8.61081,-7.83955
 L 8.69077,-7.70438 L 8.76205,-7.56444 L 8.82443,-7.4203 L 8.87764,-7.27254 L 8.92145,-7.12172 L 8.9557,-6.96844
 L 8.98029,-6.81332 L 8.99506,-6.65697 L 9,-6.5 L 8.99506,-6.34303 L 8.98029,-6.18668 L 8.9557,-6.03156
 L 8.92145,-5.87828 L 8.87764,-5.72746 L 8.82443,-5.5797 L 8.76205,-5.43556 L 8.69077,-5.29562 L 8.61081,-5.16045
 L 8.52254,-5.03055 L 8.42627,-4.90645 L 8.32242,-4.78864 L 8.21136,-4.67758 L 8.09355,-4.57373 L 7.96945,-4.47746
 L 7.83955,-4.38919 L 7.70438,-4.30923 L 7.56444,-4.23795 L 7.4203,-4.17557 L 7.27254,-4.12236 L 7.12172,-4.07855
 L 6.96844,-4.0443 L 6.81332,-4.01971 L 6.65697,-4.00494 L 6.49998,-4 z
M 34.143,-4.00494 L 33.9867,-4.01971 L 33.8315,-4.0443 L 33.6783,-4.07855 L 33.5275,-4.12236 L 33.3797,-4.17557
 L 33.2355,-4.23795 L 33.0956,-4.30923 L 32.9604,-4.38919 L 32.8305,-4.47746 L 32.7064,-4.57373 L 32.5886,-4.67758
 L 32.4776,-4.78864 L 32.3737,-4.90645 L 32.2775,-5.03055 L 32.1892,-5.16045 L 32.1092,-5.29562 L 32.0379,-5.43556
 L 31.9756,-5.5797 L 31.9223,-5.72746 L 31.8785,-5.87828 L 31.8443,-6.03156 L 31.8197,-6.18668 L 31.8049,-6.34303
 L 31.8,-6.5 L 31.8049,-6.65697 L 31.8197,-6.81332 L 31.8443,-6.96844 L 31.8785,-7.12172 L 31.9223,-7.27254
 L 31.9756,-7.4203 L 32.0379,-7.56444 L 32.1092,-7.70438 L 32.1892,-7.83955 L 32.2775,-7.96945 L 32.3737,-8.09355
 L 32.4776,-8.21136 L 32.5886,-8.32242 L 32.7064,-8.42627 L 32.8305,-8.52254 L 32.9604,-8.61081 L 33.0956,-8.69077
 L 33.2355,-8.76205 L 33.3797,-8.82443 L 33.5275,-8.87764 L 33.6783,-8.92145 L 33.8315,-8.9557 L 33.9867,-8.98029
 L 34.143,-8.99506 L 34.3,-9 L 34.457,-8.99506 L 34.6133,-8.98029 L 34.7684,-8.9557 L 34.9217,-8.92145
 L 35.0725,-8.87764 L 35.2203,-8.82443 L 35.3644,-8.76205 L 35.5044,-8.69077 L 35.6396,-8.61081 L 35.7695,-8.52254
 L 35.8936,-8.42627 L 36.0114,-8.32242 L 36.1224,-8.21136 L 36.2263,-8.09355 L 36.3225,-7.96945 L 36.4108,-7.83955
 L 36.4908,-7.70438 L 36.5621,-7.56444 L 36.6244,-7.4203 L 36.6776,-7.27254 L 36.7215,-7.12172 L 36.7557,-6.96844
 L 36.7803,-6.81332 L 36.7951,-6.65697 L 36.8,-6.5 L 36.7951,-6.34303 L 36.7803,-6.18668 L 36.7557,-6.03156
 L 36.7215,-5.87828 L 36.6776,-5.72746 L 36.6244,-5.5797 L 36.5621,-5.43556 L 36.4908,-5.29562 L 36.4108,-5.16045
 L 36.3225,-5.03055 L 36.2263,-4.90645 L 36.1224,-4.78864 L 36.0114,-4.67758 L 35.8936,-4.57373 L 35.7695,-4.47746
 L 35.6396,-4.38919 L 35.5044,-4.30923 L 35.3644,-4.23795 L 35.2203,-4.17557 L 35.0725,-4.12236 L 34.9217,-4.07855
 L 34.7684,-4.0443 L 34.6133,-4.01971 L 34.457,-4.00494 L 34.3,-4 z
M 61.943,-4.00494 L 61.7867,-4.01971 L 61.6315,-4.0443 L 61.4783,-4.07855 L 61.3275,-4.12236 L 61.1797,-4.17557
 L 61.0355,-4.23795 L 60.8956,-4.30923 L 60.7604,-4.38919 L 60.6305,-4.47746 L 60.5064,-4.57373 L 60.3886,-4.67758
 L 60.2776,-4.78864 L 60.1737,-4.90645 L 60.0775,-5.03055 L 59.9892,-5.16045 L 59.9092,-5.29562 L 59.8379,-5.43556
 L 59.7756,-5.5797 L 59.7224,-5.72746 L 59.6785,-5.87828 L 59.6443,-6.03156 L 59.6197,-6.18668 L 59.6049,-6.34303
 L 59.6,-6.5 L 59.6049,-6.65697 L 59.6197,-6.81332 L 59.6443,-6.96844 L 59.6785,-7.12172 L 59.7224,-7.27254
 L 59.7756,-7.4203 L 59.8379,-7.56444 L 59.9092,-7.70438 L 59.9892,-7.83955 L 60.0775,-7.96945 L 60.1737,-8.09355
 L 60.2776,-8.21136 L 60.3886,-8.32242 L 60.5064,-8.42627 L 60.6305,-8.52254 L 60.7604,-8.61081 L 60.8956,-8.69077
 L 61.0355,-8.76205 L 61.1797,-8.82443 L 61.3275,-8.87764 L 61.4783,-8.92145 L 61.6315,-8.9557 L 61.7867,-8.98029
 L 61.943,-8.99506 L 62.1,-9 L 62.257,-8.99506 L 62.4133,-8.98029 L 62.5685,-8.9557 L 62.7217,-8.92145
 L 62.8725,-8.87764 L 63.0203,-8.82443 L 63.1644,-8.76205 L 63.3044,-8.69077 L 63.4396,-8.61081 L 63.5695,-8.52254
 L 63.6936,-8.42627 L 63.8114,-8.32242 L 63.9224,-8.21136 L 64.0263,-8.09355 L 64.1225,-7.96945 L 64.2108,-7.83955
 L 64.2908,-7.70438 L 64.3621,-7.56444 L 64.4244,-7.4203 L 64.4776,-7.27254 L 64.5215,-7.12172 L 64.5557,-6.96844
 L 64.5803,-6.81332 L 64.5951,-6.65697 L 64.6,-6.5 L 64.5951,-6.34303 L 64.5803,-6.18668 L 64.5557,-6.03156
 L 64.5215,-5.87828 L 64.4776,-5.72746 L 64.4244,-5.5797 L 64.3621,-5.43556 L 64.2908,-5.29562 L 64.2108,-5.16045
 L 64.1225,-5.03055 L 64.0263,-4.90645 L 63.9224,-4.78864 L 63.8114,-4.67758 L 63.6936,-4.57373 L 63.5695,-4.47746
 L 63.4396,-4.38919 L 63.3044,-4.30923 L 63.1644,-4.23795 L 63.0203,-4.17557 L 62.8725,-4.12236 L 62.7217,-4.07855
 L 62.5685,-4.0443 L 62.4133,-4.01971 L 62.257,-4.00494 L 62.1,-4 z
M 89.743,-4.00494 L 89.5867,-4.01971 L 89.4315,-4.0443 L 89.2783,-4.07855 L 89.1275,-4.12236 L 88.9797,-4.17557
 L 88.8355,-4.23795 L 88.6956,-4.30923 L 88.5604,-4.38919 L 88.4305,-4.47746 L 88.3064,-4.57373 L 88.1886,-4.67758
 L 88.0776,-4.78864 L 87.9737,-4.90645 L 87.8775,-5.03055 L 87.7892,-5.16045 L 87.7092,-5.29562 L 87.6379,-5.43556
 L 87.5755,-5.5797 L 87.5224,-5.72746 L 87.4785,-5.87828 L 87.4443,-6.03156 L 87.4197,-6.18668 L 87.4049,-6.34303
 L 87.4,-6.5 L 87.4049,-6.65697 L 87.4197,-6.81332 L 87.4443,-6.96844 L 87.4785,-7.12172 L 87.5224,-7.27254
 L 87.5755,-7.4203 L 87.6379,-7.56444 L 87.7092,-7.70438 L 87.7892,-7.83955 L 87.8775,-7.96945 L 87.9737,-8.09355
 L 88.0776,-8.21136 L 88.1886,-8.32242 L 88.3064,-8.42627 L 88.4305,-8.52254 L 88.5604,-8.61081 L 88.6956,-8.69077
 L 88.8355,-8.76205 L 88.9797,-8.82443 L 89.1275,-8.87764 L 89.2783,-8.92145 L 89.4315,-8.9557 L 89.5867,-8.98029
 L 89.743,-8.99506 L 89.9,-9 L 90.057,-8.99506 L 90.2133,-8.98029 L 90.3684,-8.9557 L 90.5217,-8.92145
 L 90.6725,-8.87764 L 90.8203,-8.82443 L 90.9644,-8.76205 L 91.1044,-8.69077 L 91.2396,-8.61081 L 91.3695,-8.52254
 L 91.4935,-8.42627 L 91.6114,-8.32242 L 91.7224,-8.21136 L 91.8263,-8.09355 L 91.9225,-7.96945 L 92.0108,-7.83955
 L 92.0908,-7.70438 L 92.1621,-7.56444 L 92.2244,-7.4203 L 92.2776,-7.27254 L 92.3215,-7.12172 L 92.3557,-6.96844
 L 92.3803,-6.81332 L 92.3951,-6.65697 L 92.4,-6.5 L 92.3951,-6.34303 L 92.3803,-6.18668 L 92.3557,-6.03156
 L 92.3215,-5.87828 L 92.2776,-5.72746 L 92.2244,-5.5797 L 92.1621,-5.43556 L 92.0908,-5.29562 L 92.0108,-5.16045
 L 91.9225,-5.03055 L 91.8263,-4.90645 L 91.7224,-4.78864 L 91.6114,-4.67758 L 91.4935,-4.57373 L 91.3695,-4.47746
 L 91.2396,-4.38919 L 91.1044,-4.30923 L 90.9644,-4.23795 L 90.8203,-4.17557 L 90.6725,-4.12236 L 90.5217,-4.07855
 L 90.3684,-4.0443 L 90.2133,-4.01971 L 90.057,-4.00494 L 89.9,-4 z
M 117.543,-4.00494 L 117.387,-4.01971 L 117.232,-4.0443 L 117.078,-4.07855 L 116.927,-4.12236 L 116.78,-4.17557
 L 116.636,-4.23795 L 116.496,-4.30923 L 116.36,-4.38919 L 116.231,-4.47746 L 116.106,-4.57373 L 115.989,-4.67758
 L 115.878,-4.78864 L 115.774,-4.90645 L 115.677,-5.03055 L 115.589,-5.16045 L 115.509,-5.29562 L 115.438,-5.43556
 L 115.376,-5.5797 L 115.322,-5.72746 L 115.279,-5.87828 L 115.244,-6.03156 L 115.22,-6.18668 L 115.205,-6.34303
 L 115.2,-6.5 L 115.205,-6.65697 L 115.22,-6.81332 L 115.244,-6.96844 L 115.279,-7.12172 L 115.322,-7.27254
 L 115.376,-7.4203 L 115.438,-7.56444 L 115.509,-7.70438 L 115.589,-7.83955 L 115.677,-7.96945 L 115.774,-8.09355
 L 115.878,-8.21136 L 115.989,-8.32242 L 116.106,-8.42627 L 116.231,-8.52254 L 116.36,-8.61081 L 116.496,-8.69077
 L 116.636,-8.76205 L 116.78,-8.82443 L 116.927,-8.87764 L 117.078,-8.92145 L 117.232,-8.9557 L 117.387,-8.98029
 L 117.543,-8.99506 L 117.7,-9 L 117.857,-8.99506 L 118.013,-8.98029 L 118.168,-8.9557 L 118.322,-8.92145
 L 118.473,-8.87764 L 118.62,-8.82443 L 118.764,-8.76205 L 118.904,-8.69077 L 119.04,-8.61081 L 119.169,-8.52254
 L 119.294,-8.42627 L 119.411,-8.32242 L 119.522,-8.21136 L 119.626,-8.09355 L 119.723,-7.96945 L 119.811,-7.83955
 L 119.891,-7.70438 L 119.962,-7.56444 L 120.024,-7.4203 L 120.078,-7.27254 L 120.121,-7.12172 L 120.156,-6.96844
 L 120.18,-6.81332 L 120.195,-6.65697 L 120.2,-6.5 L 120.195,-6.34303 L 120.18,-6.18668 L 120.156,-6.03156
 L 120.121,-5.87828 L 120.078,-5.72746 L 120.024,-5.5797 L 119.962,-5.43556 L 119.891,-5.29562 L 119.811,-5.16045
 L 119.723,-5.03055 L 119.626,-4.90645 L 119.522,-4.78864 L 119.411,-4.67758 L 119.294,-4.57373 L 119.169,-4.47746
 L 119.04,-4.38919 L 118.904,-4.30923 L 118.764,-4.23795 L 118.62,-4.17557 L 118.473,-4.12236 L 118.322,-4.07855
 L 118.168,-4.0443 L 118.013,-4.01971 L 117.857,-4.00494 L 117.7,-4 z
M 145.343,-4.00494 L 145.187,-4.01971 L 145.032,-4.0443 L 144.878,-4.07855 L 144.727,-4.12236 L 144.58,-4.17557
 L 144.436,-4.23795 L 144.296,-4.30923 L 144.16,-4.38919 L 144.031,-4.47746 L 143.906,-4.57373 L 143.789,-4.67758
 L 143.678,-4.78864 L 143.574,-4.90645 L 143.477,-5.03055 L 143.389,-5.16045 L 143.309,-5.29562 L 143.238,-5.43556
 L 143.176,-5.5797 L 143.122,-5.72746 L 143.079,-5.87828 L 143.044,-6.03156 L 143.02,-6.18668 L 143.005,-6.34303
 L 143,-6.5 L 143.005,-6.65697 L 143.02,-6.81332 L 143.044,-6.96844 L 143.079,-7.12172 L 143.122,-7.27254
 L 143.176,-7.4203 L 143.238,-7.56444 L 143.309,-7.70438 L 143.389,-7.83955 L 143.477,-7.96945 L 143.574,-8.09355
 L 143.678,-8.21136 L 143.789,-8.32242 L 143.906,-8.42627 L 144.031,-8.52254 L 144.16,-8.61081 L 144.296,-8.69077
 L 144.436,-8.76205 L 144.58,-8.82443 L 144.727,-8.87764 L 144.878,-8.92145 L 145.032,-8.9557 L 145.187,-8.98029
 L 145.343,-8.99506 L 145.5,-9 L 145.657,-8.99506 L 145.813,-8.98029 L 145.968,-8.9557 L 146.122,-8.92145
 L 146.273,-8.87764 L 146.42,-8.82443 L 146.564,-8.76205 L 146.704,-8.69077 L 146.84,-8.61081 L 146.969,-8.52254
 L 147.094,-8.42627 L 147.211,-8.32242 L 147.322,-8.21136 L 147.426,-8.09355 L 147.523,-7.96945 L 147.611,-7.83955
 L 147.691,-7.70438 L 147.762,-7.56444 L 147.824,-7.4203 L 147.878,-7.27254 L 147.921,-7.12172 L 147.956,-6.96844
 L 147.98,-6.81332 L 147.995,-6.65697 L 148,-6.5 L 147.995,-6.34303 L 147.98,-6.18668 L 147.956,-6.03156
 L 147.921,-5.87828 L 147.878,-5.72746 L 147.824,-5.5797 L 147.762,-5.43556 L 147.691,-5.29562 L 147.611,-5.16045
 L 147.523,-5.03055 L 147.426,-4.90645 L 147.322,-4.78864 L 147.211,-4.67758 L 147.094,-4.57373 L 146.969,-4.47746
 L 146.84,-4.38919 L 146.704,-4.30923 L 146.564,-4.23795 L 146.42,-4.17557 L 146.273,-4.12236 L 146.122,-4.07855
 L 145.968,-4.0443 L 145.813,-4.01971 L 145.657,-4.00494 L 145.5,-4 z
M 173.143,-4.00494 L 172.987,-4.01971 L 172.832,-4.0443 L 172.678,-4.07855 L 172.527,-4.12236 L 172.38,-4.17557
 L 172.236,-4.23795 L 172.096,-4.30923 L 171.96,-4.38919 L 171.831,-4.47746 L 171.706,-4.57373 L 171.589,-4.67758
 L 171.478,-4.78864 L 171.374,-4.90645 L 171.277,-5.03055 L 171.189,-5.16045 L 171.109,-5.29562 L 171.038,-5.43556
 L 170.976,-5.5797 L 170.922,-5.72746 L 170.879,-5.87828 L 170.844,-6.03156 L 170.82,-6.18668 L 170.805,-6.34303
 L 170.8,-6.5 L 170.805,-6.65697 L 170.82,-6.81332 L 170.844,-6.96844 L 170.879,-7.12172 L 170.922,-7.27254
 L 170.976,-7.4203 L 171.038,-7.56444 L 171.109,-7.70438 L 171.189,-7.83955 L 171.277,-7.96945 L 171.374,-8.09355
 L 171.478,-8.21136 L 171.589,-8.32242 L 171.706,-8.42627 L 171.831,-8.52254 L 171.96,-8.61081 L 172.096,-8.69077
 L 172.236,-8.76205 L 172.38,-8.82443 L 172.527,-8.87764 L 172.678,-8.92145 L 172.832,-8.9557 L 172.987,-8.98029
 L 173.143,-8.99506 L 173.3,-9 L 173.457,-8.99506 L 173.613,-8.98029 L 173.768,-8.9557 L 173.922,-8.92145
 L 174.073,-8.87764 L 174.22,-8.82443 L 174.364,-8.76205 L 174.504,-8.69077 L 174.64,-8.61081 L 174.769,-8.52254
 L 174.894,-8.42627 L 175.011,-8.32242 L 175.122,-8.21136 L 175.226,-8.09355 L 175.323,-7.96945 L 175.411,-7.83955
 L 175.491,-7.70438 L 175.562,-7.56444 L 175.624,-7.4203 L 175.678,-7.27254 L 175.721,-7.12172 L 175.756,-6.96844
 L 175.78,-6.81332 L 175.795,-6.65697 L 175.8,-6.5 L 175.795,-6.34303 L 175.78,-6.18668 L 175.756,-6.03156
 L 175.721,-5.87828 L 175.678,-5.72746 L 175.624,-5.5797 L 175.562,-5.43556 L 175.491,-5.29562 L 175.411,-5.16045
 L 175.323,-5.03055 L 175.226,-4.90645 L 175.122,-4.78864 L 175.011,-4.67758 L 174.894,-4.57373 L 174.769,-4.47746
 L 174.64,-4.38919 L 174.504,-4.30923 L 174.364,-4.23795 L 174.22,-4.17557 L 174.073,-4.12236 L 173.922,-4.07855
 L 173.768,-4.0443 L 173.613,-4.01971 L 173.457,-4.00494 L 173.3,-4 z
M 9.72333,-0.439316 L 9.57466,-0.449265 L 9.431,-0.465836 L 9.29233,-0.489029 L 9.15865,-0.518829 L 9.02995,-0.555283
 L 8.90627,-0.598358 L 8.78757,-0.648056 L 8.67386,-0.704391 L 8.56516,-0.767349 L 8.46144,-0.836945 L 8.36272,-0.913147
 L 8.26898,-0.995987 L 8.18141,-1.0845 L 8.10085,-1.17775 L 8.02728,-1.2757 L 7.96072,-1.37839 L 7.90117,-1.48578
 L 7.84863,-1.59792 L 7.80309,-1.71475 L 7.76456,-1.83632 L 7.73303,-1.96262 L 7.70851,-2.09363 L 7.69099,-2.22935
 L 7.6805,-2.36981 L 7.67699,-2.515 L 7.6805,-2.66046 L 7.69099,-2.80119 L 7.70851,-2.93718 L 7.73303,-3.06841
 L 7.76456,-3.1949 L 7.80309,-3.31665 L 7.84863,-3.43365 L 7.90117,-3.5459 L 7.96072,-3.65341 L 8.02728,-3.75618
 L 8.10085,-3.85419 L 8.18141,-3.94746 L 8.26898,-4.036 L 8.36272,-4.11884 L 8.46144,-4.19505 L 8.56516,-4.26463
 L 8.67386,-4.32759 L 8.78757,-4.38393 L 8.90627,-4.43362 L 9.02995,-4.4767 L 9.15865,-4.51315 L 9.29233,-4.54297
 L 9.431,-4.56618 L 9.57466,-4.58273 L 9.72333,-4.59268 L 9.87698,-4.59599 L 9.98068,-4.59418 L 10.1339,-4.58459
 L 10.2844,-4.56683 L 10.4321,-4.54086 L 10.577,-4.5067 L 10.7192,-4.46451 L 10.8588,-4.41432 L 10.9957,-4.35616
 L 11.13,-4.28999 L 11.13,-3.44398 L 11.0406,-3.50269 L 10.9517,-3.55632 L 10.8631,-3.60489 L 10.7749,-3.64839
 L 10.687,-3.68683 L 10.5996,-3.7202 L 10.5124,-3.74875 L 10.4242,-3.77296 L 10.3345,-3.79277 L 10.2433,-3.80818
 L 10.1507,-3.81918 L 10.0566,-3.82579 L 9.96098,-3.82799 L 9.87625,-3.82593 L 9.79434,-3.8197 L 9.71526,-3.80936
 L 9.63899,-3.79486 L 9.56557,-3.77621 L 9.49498,-3.75343 L 9.4272,-3.72652 L 9.36226,-3.69545 L 9.30016,-3.66025
 L 9.24088,-3.6209 L 9.18442,-3.57741 L 9.13078,-3.52977 L 9.07999,-3.478 L 9.0325,-3.42273 L 8.98882,-3.36433
 L 8.94893,-3.3028 L 8.91284,-3.23813 L 8.88055,-3.17033 L 8.85205,-3.0994 L 8.82736,-3.02531 L 8.80647,-2.9481
 L 8.78938,-2.86775 L 8.77608,-2.78427 L 8.76659,-2.69765 L 8.76088,-2.60788 L 8.75899,-2.515 L 8.76088,-2.42239
 L 8.76659,-2.33289 L 8.77608,-2.24649 L 8.78938,-2.16318 L 8.80647,-2.08298 L 8.82736,-2.00587 L 8.85205,-1.93188
 L 8.88055,-1.86098 L 8.91284,-1.79318 L 8.94893,-1.72849 L 8.98882,-1.66689 L 9.0325,-1.60838 L 9.07999,-1.55299
 L 9.13078,-1.50136 L 9.18442,-1.45387 L 9.24088,-1.41051 L 9.30016,-1.37126 L 9.36226,-1.33615 L 9.4272,-1.30518
 L 9.49498,-1.27834 L 9.56557,-1.25562 L 9.63899,-1.23703 L 9.71526,-1.22258 L 9.79434,-1.21225 L 9.87625,-1.20605
 L 9.96098,-1.20399 L 10.0566,-1.20618 L 10.1507,-1.21271 L 10.2433,-1.22359 L 10.3345,-1.23883 L 10.4242,-1.25842
 L 10.5124,-1.28238 L 10.5996,-1.31093 L 10.687,-1.34456 L 10.7749,-1.38321 L 10.8631,-1.42688 L 10.9517,-1.47557
 L 11.0406,-1.52927 L 11.13,-1.588 L 11.13,-0.741989 L 11.0408,-0.696991 L 10.9048,-0.636169 L 10.7661,-0.583313
 L 10.6247,-0.538467 L 10.4807,-0.501602 L 10.3339,-0.472916 L 10.1844,-0.452408 L 10.0321,-0.440109 L 9.87698,-0.436005
 z
" stroke="black" fill="lightgray" stroke-width="0.5"/></svg>
