<?xml version="1.0" standalone="no"?>
<!DOCTYPE svg PUBLIC "-//W3C//DTD SVG 1.1//EN" "http://www.w3.org/Graphics/SVG/1.1/DTD/svg11.dtd">
<svg width="40mm" height="15mm" viewBox="0 -15 40 15" xmlns="http://www.w3.org/2000/svg" version="1.1">
<title>OpenSCAD Model</title>
<path d="
M 38.5942,-0.00294495 L 38.688,-0.0118256 L 38.7811,-0.0265656 L 38.873,-0.0471191 L 38.9635,-0.07341 L 39.0522,-0.105331
 L 39.1387,-0.142746 L 39.2226,-0.185532 L 39.3037,-0.233505 L 39.3817,-0.286469 L 39.4561,-0.344223 L 39.5268,-0.40654
 L 39.5934,-0.473175 L 39.6558,-0.543854 L 39.7135,-0.618317 L 39.7665,-0.696259 L 39.8145,-0.777359 L 39.8572,-0.861328
 L 39.8947,-0.9478 L 39.9266,-1.03647 L 39.9529,-1.12695 L 39.9734,-1.21892 L 39.9882,-1.312 L 39.997,-1.40581
 L 40,-1.5 L 40,-13.5 L 39.997,-13.5942 L 39.9882,-13.688 L 39.9734,-13.7811 L 39.9529,-13.873
 L 39.9266,-13.9635 L 39.8947,-14.0522 L 39.8572,-14.1387 L 39.8145,-14.2226 L 39.7665,-14.3037 L 39.7135,-14.3817
 L 39.6558,-14.4561 L 39.5934,-14.5268 L 39.5268,-14.5934 L 39.4561,-14.6558 L 39.3817,-14.7135 L 39.3037,-14.7665
 L 39.2226,-14.8145 L 39.1387,-14.8572 L 39.0522,-14.8947 L 38.9635,-14.9266 L 38.873,-14.9529 L 38.7811,-14.9734
 L 38.688,-14.9882 L 38.5942,-14.997 L 38.5,-15 L 1.5,-15 L 1.40581,-14.997 L 1.312,-14.9882
 L 1.21892,-14.9734 L 1.12695,-14.9529 L 1.03647,-14.9266 L 0.9478,-14.8947 L 0.861328,-14.8572 L 0.777359,-14.8145
 L 0.696259,-14.7665 L 0.618317,-14.7135 L 0.543854,-14.6558 L 0.473175,-14.5934 L 0.40654,-14.5268 L 0.344223,-14.4561
 L 0.286469,-14.3817 L 0.233505,-14.3037 L 0.185532,-14.2226 L 0.142746,-14.1387 L 0.105331,-14.0522 L 0.07341,-13.9635
 L 0.0471191,-13.873 L 0.0265656,-13.7811 L 0.0118256,-13.688 L 0.00294495,-13.5942 L 0,-13.5 L 0,-1.5
 L 0.00294495,-1.40581 L 0.0118256,-1.312 L 0.0265656,-1.21892 L 0.0471191,-1.12695 L 0.07341,-1.03647 L 0.105331,-0.9478
 L 0.142746,-0.861328 L 0.185532,-0.777359 L 0.233505,-0.696259 L 0.286469,-0.618317 L 0.344223,-0.543854 L 0.40654,-0.473175
 L 0.473175,-0.40654 L 0.543854,-0.344223 L 0.618317,-0.286469 L 0.696259,-0.233505 L 0.777359,-0.185532 L 0.861328,-0.142746
 L 0.9478,-0.105331 L 1.03647,-0.07341 L 1.12695,-0.0471191 L 1.21892,-0.0265656 L 1.312,-0.0118256 L 1.40581,-0.00294495
 L 1.5,-0 L 38.5,-0 z
M 17.093,-3.5 L 17.093,-11.628 L 19.899,-11.628 L 20.0888,-11.6249 L 20.2718,-11.6157 L 20.448,-11.6004
 L 20.6173,-11.5789 L 20.7798,-11.5512 L 20.9355,-11.5174 L 21.0843,-11.4775 L 21.2263,-11.4314 L 21.3615,-11.3792
 L 21.4899,-11.3209 L 21.6114,-11.2564 L 21.7261,-11.1858 L 21.834,-11.109 L 21.9346,-11.0266 L 22.0271,-10.9389
 L 22.1116,-10.8461 L 22.1881,-10.748 L 22.2565,-10.6448 L 22.3168,-10.5364 L 22.3691,-10.4228 L 22.4134,-10.304
 L 22.4496,-10.18 L 22.4778,-10.0508 L 22.4979,-9.91637 L 22.51,-9.77678 L 22.514,-9.63199 L 22.5119,-9.51979
 L 22.5058,-9.41116 L 22.4955,-9.30612 L 22.481,-9.20468 L 22.4625,-9.10681 L 22.4399,-9.01254 L 22.4131,-8.92184
 L 22.3822,-8.83473 L 22.3472,-8.75122 L 22.3081,-8.67128 L 22.2648,-8.59494 L 22.2175,-8.52217 L 22.166,-8.45299
 L 22.1105,-8.38756 L 22.0512,-8.32603 L 21.988,-8.26842 L 21.921,-8.21469 L 21.8501,-8.16489 L 21.7753,-8.11899
 L 21.6967,-8.07698 L 21.6142,-8.03888 L 21.5279,-8.0047 L 21.4377,-7.97441 L 21.3437,-7.94803 L 21.2458,-7.92557
 L 21.144,-7.907 L 21.2665,-7.87781 L 21.3847,-7.84413 L 21.4986,-7.80594 L 21.6082,-7.76323 L 21.7135,-7.71602
 L 21.8146,-7.66429 L 21.9113,-7.60806 L 22.0038,-7.54732 L 22.092,-7.48207 L 22.1759,-7.41232 L 22.2556,-7.33806
 L 22.3309,-7.25928 L 22.402,-7.17599 L 22.4684,-7.08882 L 22.5295,-6.99838 L 22.5853,-6.90468 L 22.6358,-6.80771
 L 22.681,-6.70747 L 22.7208,-6.60397 L 22.7553,-6.49719 L 22.7846,-6.38716 L 22.8085,-6.27386 L 22.8271,-6.15729
 L 22.8404,-6.03746 L 22.8483,-5.91435 L 22.851,-5.78799 L 22.8466,-5.62248 L 22.8335,-5.46286 L 22.8116,-5.30913
 L 22.7809,-5.1613 L 22.7415,-5.01935 L 22.6934,-4.8833 L 22.6364,-4.75316 L 22.5708,-4.62889 L 22.4963,-4.51053
 L 22.4131,-4.39806 L 22.3212,-4.29147 L 22.2205,-4.19078 L 22.111,-4.09599 L 21.9936,-4.00783 L 21.8688,-3.92671
 L 21.7366,-3.85266 L 21.597,-3.78564 L 21.4499,-3.72569 L 21.2955,-3.67279 L 21.1336,-3.62695 L 20.9644,-3.58817
 L 20.7877,-3.55641 L 20.6037,-3.53174 L 20.4122,-3.5141 L 20.2133,-3.50352 L 20.007,-3.5 z
M 19.9384,-8.30177 L 20.055,-8.3071 L 20.1666,-8.31596 L 20.2735,-8.3284 L 20.3754,-8.34438 L 20.4725,-8.36389
 L 20.5647,-8.38698 L 20.6521,-8.4136 L 20.7346,-8.44379 L 20.8123,-8.47751 L 20.885,-8.51479 L 20.9529,-8.55562
 L 21.016,-8.59999 L 21.0743,-8.64801 L 21.1279,-8.69978 L 21.1768,-8.75528 L 21.2211,-8.81453 L 21.2608,-8.8775
 L 21.2958,-8.94423 L 21.3261,-9.01469 L 21.3517,-9.0889 L 21.3727,-9.16684 L 21.389,-9.24852 L 21.4007,-9.33394
 L 21.4077,-9.4231 L 21.41,-9.51599 L 21.4077,-9.60817 L 21.4007,-9.69669 L 21.389,-9.78154 L 21.3727,-9.86273
 L 21.3517,-9.94028 L 21.3261,-10.0142 L 21.2958,-10.0844 L 21.2608,-10.151 L 21.2211,-10.2139 L 21.1768,-10.2731
 L 21.1279,-10.3288 L 21.0743,-10.3807 L 21.016,-10.429 L 20.9529,-10.4738 L 20.885,-10.515 L 20.8123,-10.5527
 L 20.7346,-10.5868 L 20.6521,-10.6172 L 20.5647,-10.6441 L 20.4725,-10.6674 L 20.3754,-10.6872 L 20.2735,-10.7033
 L 20.1666,-10.7159 L 20.055,-10.7248 L 19.9384,-10.7302 L 19.817,-10.732 L 18.191,-10.732 L 18.191,-8.29999
 L 19.817,-8.29999 z
M 20.0866,-4.39819 L 20.2147,-4.40477 L 20.3375,-4.41576 L 20.4548,-4.43112 L 20.5666,-4.45087 L 20.6731,-4.47502
 L 20.7741,-4.50356 L 20.8696,-4.53648 L 20.9598,-4.57381 L 21.0445,-4.61552 L 21.1237,-4.66162 L 21.1976,-4.71211
 L 21.266,-4.767 L 21.3292,-4.8264 L 21.3873,-4.89047 L 21.4403,-4.9592 L 21.4883,-5.03261 L 21.5313,-5.11066
 L 21.5692,-5.19339 L 21.602,-5.28076 L 21.6298,-5.37282 L 21.6526,-5.46953 L 21.6703,-5.57089 L 21.6829,-5.67693
 L 21.6905,-5.78763 L 21.693,-5.903 L 21.6905,-6.01906 L 21.6829,-6.13033 L 21.6703,-6.23682 L 21.6526,-6.3385
 L 21.6298,-6.43539 L 21.602,-6.5275 L 21.5692,-6.61479 L 21.5313,-6.69731 L 21.4883,-6.77504 L 21.4403,-6.84796
 L 21.3873,-6.91609 L 21.3292,-6.97945 L 21.266,-7.03799 L 21.1976,-7.09213 L 21.1237,-7.14195 L 21.0445,-7.18742
 L 20.9598,-7.22858 L 20.8696,-7.2654 L 20.7741,-7.29787 L 20.6731,-7.32603 L 20.5666,-7.34985 L 20.4548,-7.36934
 L 20.3375,-7.38451 L 20.2147,-7.39532 L 20.0866,-7.40182 L 19.953,-7.40399 L 18.191,-7.40399 L 18.191,-4.396
 L 19.953,-4.396 z
M 7.33519,-4.88019 L 7.17101,-4.89571 L 7.00813,-4.92151 L 6.8472,-4.95747 L 6.68884,-5.00348 L 6.53368,-5.05934
 L 6.38234,-5.12483 L 6.2354,-5.19971 L 6.09346,-5.28365 L 5.95708,-5.37634 L 5.82677,-5.47742 L 5.72501,-5.56712
 L 5.72501,-9.43288 L 5.82677,-9.52258 L 5.95708,-9.62366 L 6.09346,-9.71635 L 6.2354,-9.80029 L 6.38234,-9.87517
 L 6.53368,-9.94066 L 6.68884,-9.99652 L 6.8472,-10.0425 L 7.00813,-10.0785 L 7.17101,-10.1043 L 7.33519,-10.1198
 L 7.5,-10.125 L 7.66481,-10.1198 L 7.82899,-10.1043 L 7.99187,-10.0785 L 8.1528,-10.0425 L 8.31116,-9.99652
 L 8.46632,-9.94066 L 8.61766,-9.87517 L 8.7646,-9.80029 L 8.90654,-9.71635 L 9.04292,-9.62366 L 9.17323,-9.52258
 L 9.27499,-9.43288 L 9.27499,-5.56712 L 9.17323,-5.47742 L 9.04292,-5.37634 L 8.90654,-5.28365 L 8.7646,-5.19971
 L 8.61766,-5.12483 L 8.46632,-5.05934 L 8.31116,-5.00348 L 8.1528,-4.95747 L 7.99187,-4.92151 L 7.82899,-4.89571
 L 7.66481,-4.88019 L 7.5,-4.875 z
M 32.343,-5.00493 L 32.1867,-5.0197 L 32.0315,-5.04428 L 31.8783,-5.07854 L 31.7274,-5.12234 L 31.5797,-5.17555
 L 31.4355,-5.23793 L 31.2956,-5.30922 L 31.1604,-5.38918 L 31.0305,-5.47745 L 30.9064,-5.57372 L 30.7886,-5.67757
 L 30.6776,-5.78862 L 30.5737,-5.90643 L 30.4774,-6.03053 L 30.3892,-6.16043 L 30.3092,-6.29561 L 30.2379,-6.43555
 L 30.1756,-6.57968 L 30.1223,-6.72745 L 30.0785,-6.87827 L 30.0443,-7.03154 L 30.0197,-7.18666 L 30.0049,-7.34302
 L 30,-7.5 L 30.0049,-7.65697 L 30.0197,-7.81332 L 30.0443,-7.96844 L 30.0785,-8.12172 L 30.1223,-8.27254
 L 30.1756,-8.4203 L 30.2379,-8.56444 L 30.3092,-8.70438 L 30.3892,-8.83955 L 30.4774,-8.96945 L 30.5737,-9.09355
 L 30.6776,-9.21136 L 30.7886,-9.32242 L 30.9064,-9.42627 L 31.0305,-9.52254 L 31.1604,-9.61081 L 31.2956,-9.69077
 L 31.4355,-9.76205 L 31.5797,-9.82443 L 31.7274,-9.87764 L 31.8783,-9.92145 L 32.0315,-9.9557 L 32.1867,-9.98029
 L 32.343,-9.99506 L 32.5,-10 L 32.657,-9.99506 L 32.8133,-9.98029 L 32.9684,-9.9557 L 33.1217,-9.92145
 L 33.2725,-9.87764 L 33.4203,-9.82443 L 33.5644,-9.76205 L 33.7044,-9.69077 L 33.8396,-9.61081 L 33.9695,-9.52254
 L 34.0936,-9.42627 L 34.2114,-9.32242 L 34.3224,-9.21136 L 34.4263,-9.09355 L 34.5225,-8.96945 L 34.6108,-8.83955
 L 34.6908,-8.70438 L 34.7621,-8.56444 L 34.8244,-8.4203 L 34.8776,-8.27254 L 34.9214,-8.12172 L 34.9557,-7.96844
 L 34.9803,-7.81332 L 34.9951,-7.65697 L 35,-7.5 L 34.9951,-7.34302 L 34.9803,-7.18666 L 34.9557,-7.03154
 L 34.9214,-6.87827 L 34.8776,-6.72745 L 34.8244,-6.57968 L 34.7621,-6.43555 L 34.6908,-6.29561 L 34.6108,-6.16043
 L 34.5225,-6.03053 L 34.4263,-5.90643 L 34.3224,-5.78862 L 34.2114,-5.67757 L 34.0936,-5.57372 L 33.9695,-5.47745
 L 33.8396,-5.38918 L 33.7044,-5.30922 L 33.5644,-5.23793 L 33.4203,-5.17555 L 33.2725,-5.12234 L 33.1217,-5.07854
 L 32.9684,-5.04428 L 32.8133,-5.0197 L 32.657,-5.00493 L 32.5,-5 z
" stroke="black" fill="lightgray" stroke-width="0.5"/></svg>
