<?xml version="1.0" standalone="no"?>
<!DOCTYPE svg PUBLIC "-//W3C//DTD SVG 1.1//EN" "http://www.w3.org/Graphics/SVG/1.1/DTD/svg11.dtd">
<svg width="212mm" height="36mm" viewBox="-106 -18 212 36" xmlns="http://www.w3.org/2000/svg" version="1.1">
<title>OpenSCAD Model</title>
<path d="
M 100.914,17.4901 L 101.227,17.4606 L 101.537,17.4114 L 101.843,17.3429 L 102.145,17.2553 L 102.441,17.1489
 L 102.729,17.0241 L 103.009,16.8815 L 103.279,16.7216 L 103.539,16.5451 L 103.787,16.3526 L 104.023,16.1448
 L 104.245,15.9227 L 104.453,15.6871 L 104.645,15.4389 L 104.822,15.1791 L 104.982,14.9088 L 105.124,14.6289
 L 105.249,14.3406 L 105.355,14.0451 L 105.443,13.7434 L 105.511,13.4369 L 105.561,13.1267 L 105.59,12.8139
 L 105.6,12.5 L 105.6,-12.5 L 105.59,-12.8139 L 105.561,-13.1267 L 105.511,-13.4369 L 105.443,-13.7434
 L 105.355,-14.0451 L 105.249,-14.3406 L 105.124,-14.6289 L 104.982,-14.9088 L 104.822,-15.1791 L 104.645,-15.4389
 L 104.453,-15.6871 L 104.245,-15.9227 L 104.023,-16.1448 L 103.787,-16.3526 L 103.539,-16.5451 L 103.279,-16.7216
 L 103.009,-16.8815 L 102.729,-17.0241 L 102.441,-17.1489 L 102.145,-17.2553 L 101.843,-17.3429 L 101.537,-17.4114
 L 101.227,-17.4606 L 100.914,-17.4901 L 100.6,-17.5 L -100.6,-17.5 L -100.914,-17.4901 L -101.227,-17.4606
 L -101.537,-17.4114 L -101.843,-17.3429 L -102.145,-17.2553 L -102.441,-17.1489 L -102.729,-17.0241 L -103.009,-16.8815
 L -103.279,-16.7216 L -103.539,-16.5451 L -103.787,-16.3526 L -104.023,-16.1448 L -104.245,-15.9227 L -104.453,-15.6871
 L -104.645,-15.4389 L -104.822,-15.1791 L -104.982,-14.9088 L -105.124,-14.6289 L -105.249,-14.3406 L -105.355,-14.0451
 L -105.443,-13.7434 L -105.511,-13.4369 L -105.561,-13.1267 L -105.59,-12.8139 L -105.6,-12.5 L -105.6,12.5
 L -105.59,12.8139 L -105.561,13.1267 L -105.511,13.4369 L -105.443,13.7434 L -105.355,14.0451 L -105.249,14.3406
 L -105.124,14.6289 L -104.982,14.9088 L -104.822,15.1791 L -104.645,15.4389 L -104.453,15.6871 L -104.245,15.9227
 L -104.023,16.1448 L -103.787,16.3526 L -103.539,16.5451 L -103.279,16.7216 L -103.009,16.8815 L -102.729,17.0241
 L -102.441,17.1489 L -102.145,17.2553 L -101.843,17.3429 L -101.537,17.4114 L -101.227,17.4606 L -100.914,17.4901
 L -100.6,17.5 L 100.6,17.5 z
M -14.8284,-7.63179 L -15.1076,-7.70047 L -15.3862,-7.82236 L -15.6529,-7.99132 L -15.8964,-8.2012 L -16.0736,-8.39513
 L -16.2123,-8.58983 L -16.3254,-8.806 L -16.4259,-9.06433 L -16.4652,-9.2153 L -16.4876,-9.44301 L -16.5,-10.5014
 L -16.4875,-11.5568 L -16.4657,-11.795 L -16.4279,-11.957 L -16.3401,-12.2037 L -16.2353,-12.4162 L -16.1028,-12.613
 L -15.9318,-12.8126 L -15.7007,-13.0233 L -15.4441,-13.192 L -15.1676,-13.3175 L -14.877,-13.3987 L -14.578,-13.4345
 L -14.2764,-13.4238 L -13.978,-13.3655 L -13.6885,-13.2584 L -13.4265,-13.1428 L -13.3998,-14.9116 L -13.3827,-15.1102
 L -13.3559,-15.22 L -13.2852,-15.3309 L -13.1856,-15.4098 L -13.0664,-15.4573 L -12.9371,-15.4738 L -12.7898,-15.4559
 L -12.6551,-15.3998 L -12.5467,-15.3061 L -12.478,-15.1752 L -12.4591,-14.9452 L -12.4482,-14.3872 L -12.4492,-12.1332
 L -12.4716,-9.70602 L -12.4924,-9.25067 L -12.5255,-9.06079 L -12.6432,-8.78207 L -12.7923,-8.52643 L -12.9696,-8.29657
 L -13.172,-8.09525 L -13.3963,-7.92514 L -13.6394,-7.78902 L -13.898,-7.68958 L -14.169,-7.62955 L -14.4938,-7.59656
 z
M -14.3221,-8.56744 L -14.1059,-8.61897 L -13.9287,-8.69975 L -13.7746,-8.81435 L -13.6423,-8.96388 L -13.5307,-9.14951
 L -13.4618,-9.30496 L -13.4264,-9.49965 L -13.4115,-10.521 L -13.4264,-11.543 L -13.4618,-11.738 L -13.5307,-11.8938
 L -13.7024,-12.1534 L -13.8058,-12.255 L -13.9208,-12.3378 L -14.0473,-12.4017 L -14.1853,-12.4468 L -14.4955,-12.4801
 L -14.7918,-12.4393 L -15.048,-12.3273 L -15.2605,-12.1463 L -15.4256,-11.8986 L -15.4962,-11.74 L -15.5325,-11.5439
 L -15.5467,-10.5244 L -15.5341,-9.53918 L -15.5102,-9.34499 L -15.467,-9.22105 L -15.3699,-9.03612 L -15.2612,-8.89299
 L -15.1285,-8.77844 L -14.9594,-8.67923 L -14.7497,-8.59764 L -14.537,-8.56036 z
M -3.22966,-6.3394 L -3.36972,-6.46602 L -3.45349,-6.6412 L -4.97983,-12.7179 L -4.9882,-12.9093 L -4.92294,-13.08
 L -4.79591,-13.2113 L -4.61896,-13.2848 L 1.65524,-14.4998 L 1.83141,-14.4986 L 1.90103,-14.4708 L 1.95641,-14.4268
 L 1.99611,-14.3683 L 2.01869,-14.2968 L 2.00671,-14.121 L 0.18692,-7.43872 L 0.0995026,-7.24678 L -0.0435181,-7.07274
 L -0.222336,-6.93575 L -0.417114,-6.85501 L -2.85873,-6.2793 L -3.05284,-6.27322 z
M -1.4628,-7.6162 L -1.20532,-7.64323 L -0.969391,-7.69003 L -0.746689,-7.76323 L -0.532837,-7.86235 L -0.334259,-7.98189
 L -0.157364,-8.11632 L -0.00860596,-8.26013 L 0.105591,-8.40779 L 0.178833,-8.55377 L 0.204681,-8.69257 L 0.17038,-8.80307
 L 0.0827637,-8.92528 L -0.0352325,-9.03346 L -0.160751,-9.10188 L -0.285049,-9.12294 L -0.405487,-9.09755 L -0.533112,-9.02124
 L -0.678955,-8.88954 L -0.856628,-8.7433 L -1.06007,-8.64024 L -1.29239,-8.57927 L -1.55673,-8.55919 L -1.80727,-8.57695
 L -2.01183,-8.61894 L -2.21156,-8.71117 L -2.39876,-8.84283 L -2.55885,-9.0018 L -2.67728,-9.17593 L -2.73647,-9.30035
 L -2.76936,-9.41716 L -2.78659,-9.80466 L -2.78659,-10.2261 L -1.39758,-10.238 L -0.212143,-10.2587 L 0.000259399,-10.2814
 L 0.0953674,-10.3197 L 0.198395,-10.4229 L 0.268661,-10.5747 L 0.308777,-10.7832 L 0.32132,-11.0562 L 0.309113,-11.4359
 L 0.269989,-11.7441 L 0.198502,-12.0115 L 0.0891571,-12.2689 L -0.0554047,-12.5283 L -0.213715,-12.7464 L -0.391937,-12.9303
 L -0.596268,-13.0871 L -0.86055,-13.236 L -1.13806,-13.3428 L -1.42419,-13.4077 L -1.71432,-13.4307 L -2.004,-13.4116
 L -2.28812,-13.3504 L -2.56181,-13.247 L -2.82021,-13.1015 L -3.09225,-12.8878 L -3.3176,-12.6389 L -3.50035,-12.3497
 L -3.64462,-12.0151 L -3.69339,-11.8507 L -3.72217,-11.6435 L -3.74945,-10.7298 L -3.74919,-9.89279 L -3.72118,-9.40878
 L -3.64281,-9.0865 L -3.51204,-8.78244 L -3.33406,-8.50174 L -3.11409,-8.24956 L -2.85735,-8.03108 L -2.569,-7.85147
 L -2.25427,-7.7159 L -1.91838,-7.62952 L -1.7108,-7.61095 z
M -2.79616,-11.2007 L -2.77797,-11.4884 L -2.74615,-11.7043 L -2.68121,-11.8981 L -2.58531,-12.0677 L -2.46065,-12.2112
 L -2.30942,-12.3263 L -2.13377,-12.4111 L -1.93591,-12.4634 L -1.71803,-12.4814 L -1.50027,-12.4634 L -1.30241,-12.4111
 L -1.12665,-12.3263 L -0.97522,-12.2112 L -0.850342,-12.0677 L -0.754272,-11.8981 L -0.689209,-11.7043 L -0.657394,-11.4884
 L -0.639038,-11.2007 z
M 9.1485,-5.79977 L 8.86781,-5.86115 L 8.60088,-5.95224 L 8.35501,-6.0679 L 8.13748,-6.20294 L 7.9556,-6.35219
 L 7.81665,-6.51045 L 7.72792,-6.67256 L 7.69673,-6.83333 L 7.71887,-6.98862 L 7.79492,-7.11722 L 7.87822,-7.1982
 L 7.96999,-7.2554 L 8.06718,-7.28893 L 8.16676,-7.29883 L 8.26567,-7.28519 L 8.36086,-7.24806 L 8.44928,-7.18753
 L 8.52788,-7.10368 L 8.63478,-6.99681 L 8.77591,-6.90508 L 8.94244,-6.83058 L 9.12566,-6.77539 L 9.31677,-6.74158
 L 9.50705,-6.73122 L 9.6877,-6.7464 L 9.84998,-6.78918 L 10.0101,-6.86328 L 10.1525,-6.9556 L 10.2759,-7.06467
 L 10.3793,-7.18895 L 10.4616,-7.32693 L 10.5217,-7.47711 L 10.5586,-7.63797 L 10.5711,-7.80801 L 10.5565,-8.05423
 L 10.2946,-7.93904 L 10.0912,-7.85802 L 9.88448,-7.80186 L 9.67606,-7.76985 L 9.46762,-7.76117 L 9.26082,-7.77509
 L 9.05733,-7.81082 L 8.8588,-7.8676 L 8.66687,-7.94466 L 8.48325,-8.04123 L 8.30954,-8.15654 L 8.14745,-8.28984
 L 7.9986,-8.44032 L 7.86467,-8.60725 L 7.74731,-8.78986 L 7.64819,-8.98737 L 7.56897,-9.19899 L 7.52153,-9.37746
 L 7.49567,-9.59932 L 7.48276,-10.5987 L 7.49567,-11.5985 L 7.52153,-11.8208 L 7.56897,-11.9995 L 7.64296,-12.198
 L 7.73615,-12.3863 L 7.84755,-12.5633 L 7.97618,-12.7279 L 8.12108,-12.879 L 8.28125,-13.0155 L 8.45573,-13.1362
 L 8.64357,-13.2401 L 8.85052,-13.3271 L 9.06117,-13.3886 L 9.27391,-13.4252 L 9.48712,-13.4378 L 9.80408,-13.4136
 L 10.1119,-13.3397 L 10.4047,-13.2187 L 10.6765,-13.0533 L 10.9215,-12.8461 L 11.1338,-12.5996 L 11.3075,-12.3166
 L 11.4366,-11.9995 L 11.4857,-11.8046 L 11.5113,-11.4821 L 11.5226,-9.60814 L 11.5187,-8.25096 L 11.4911,-7.51024
 L 11.4608,-7.28902 L 11.4156,-7.12346 L 11.2682,-6.82806 L 11.0905,-6.56631 L 10.8767,-6.33722 L 10.6325,-6.14349
 L 10.3633,-5.98782 L 10.0748,-5.87291 L 9.77242,-5.80147 L 9.46181,-5.77618 z
M 9.70282,-8.7338 L 9.86023,-8.76657 L 10.0434,-8.85489 L 10.2045,-8.97464 L 10.3408,-9.12367 L 10.4497,-9.29985
 L 10.5201,-9.45712 L 10.5561,-9.64473 L 10.5711,-10.5987 L 10.5561,-11.5533 L 10.5201,-11.7413 L 10.4497,-11.8986
 L 10.2831,-12.1493 L 10.1818,-12.2485 L 10.0687,-12.3301 L 9.9438,-12.3941 L 9.80725,-12.4406 L 9.49962,-12.4804
 L 9.43256,-12.4804 L 9.23561,-12.4521 L 9.02341,-12.3636 L 8.85439,-12.2644 L 8.72171,-12.1495 L 8.61296,-12.006
 L 8.51572,-11.8209 L 8.47276,-11.6985 L 8.44926,-11.5134 L 8.43744,-10.5987 L 8.44926,-9.68379 L 8.47276,-9.49867
 L 8.51572,-9.37668 L 8.61296,-9.1916 L 8.72171,-9.04837 L 8.85439,-8.93375 L 9.02341,-8.8345 L 9.26225,-8.73941
 L 9.49962,-8.71846 z
M 14.1317,-7.63171 L 13.8526,-7.70039 L 13.574,-7.8223 L 13.3072,-7.99129 L 13.0638,-8.20122 L 12.8866,-8.39511
 L 12.7479,-8.58981 L 12.6346,-8.80597 L 12.5341,-9.06425 L 12.4949,-9.21529 L 12.4724,-9.44302 L 12.4598,-10.5014
 L 12.4726,-11.5868 L 12.4985,-11.819 L 12.546,-11.9995 L 12.6724,-12.3115 L 12.8425,-12.592 L 13.0511,-12.8378
 L 13.2933,-13.0458 L 13.564,-13.2127 L 13.8583,-13.3355 L 14.171,-13.4108 L 14.4972,-13.4356 L 14.7737,-13.415
 L 15.0507,-13.3544 L 15.3147,-13.2542 L 15.5617,-13.1175 L 15.7882,-12.9476 L 15.9903,-12.7476 L 16.1645,-12.5208
 L 16.3069,-12.2703 L 16.414,-11.9995 L 16.4615,-11.8194 L 16.4873,-11.5892 L 16.5,-10.5209 L 16.4944,-9.74126
 L 16.4649,-9.26826 L 16.3926,-8.95612 L 16.2583,-8.65898 L 16.1466,-8.47557 L 16.0035,-8.30019 L 15.8345,-8.13661
 L 15.645,-7.98868 L 15.4404,-7.8602 L 15.2262,-7.75497 L 15.0078,-7.67683 L 14.7908,-7.62956 L 14.4662,-7.59654
 z
M 14.6379,-8.56743 L 14.8538,-8.6189 L 15.0312,-8.69983 L 15.1855,-8.81441 L 15.3179,-8.9639 L 15.4296,-9.14952
 L 15.4983,-9.30508 L 15.5336,-9.49973 L 15.5483,-10.5209 L 15.5336,-11.543 L 15.4983,-11.738 L 15.4296,-11.8937
 L 15.2576,-12.1533 L 15.1542,-12.255 L 15.0392,-12.3378 L 14.9126,-12.4018 L 14.7746,-12.4469 L 14.4643,-12.4804
 L 14.1681,-12.4394 L 13.912,-12.3273 L 13.6996,-12.1463 L 13.5344,-11.8986 L 13.4639,-11.7401 L 13.4277,-11.544
 L 13.413,-10.5244 L 13.4261,-9.53929 L 13.45,-9.34514 L 13.4933,-9.22107 L 13.5902,-9.03613 L 13.6988,-8.89301
 L 13.8314,-8.77846 L 14.0004,-8.67924 L 14.2101,-8.59766 L 14.423,-8.56036 z
M 5.9693,-7.68562 L 5.84077,-7.73579 L 5.73079,-7.82599 L 5.64961,-7.95685 L 5.62166,-8.09702 L 5.60478,-8.40755
 L 5.59427,-9.87302 L 5.57912,-11.4626 L 5.543,-11.7299 L 5.47255,-11.8987 L 5.30585,-12.1493 L 5.20453,-12.2485
 L 5.09134,-12.3301 L 4.9664,-12.3941 L 4.82983,-12.4405 L 4.52217,-12.4804 L 4.28532,-12.4591 L 4.04622,-12.3636
 L 3.87709,-12.2644 L 3.74438,-12.1495 L 3.63571,-12.006 L 3.5387,-11.8208 L 3.49463,-11.6852 L 3.47083,-11.4211
 L 3.45888,-9.86897 L 3.45459,-8.76712 L 3.43279,-8.17198 L 3.41013,-8.00719 L 3.37688,-7.90039 L 3.33098,-7.82867
 L 3.27034,-7.76917 L 3.16515,-7.71252 L 3.02428,-7.68204 L 2.87929,-7.68114 L 2.76178,-7.71323 L 2.67192,-7.78094
 L 2.58704,-7.87357 L 2.54066,-7.97015 L 2.51649,-8.21704 L 2.50583,-9.8744 L 2.5183,-11.5629 L 2.54813,-11.8517
 L 2.60635,-12.0408 L 2.74838,-12.3557 L 2.92627,-12.6314 L 3.13512,-12.8674 L 3.37003,-13.0631 L 3.62608,-13.2182
 L 3.89841,-13.332 L 4.18207,-13.4042 L 4.47217,-13.4342 L 4.72968,-13.4253 L 4.98499,-13.3828 L 5.23474,-13.3064
 L 5.47563,-13.1958 L 5.70432,-13.0507 L 5.91747,-12.8708 L 6.11172,-12.6556 L 6.28377,-12.405 L 6.45482,-12.0163
 L 6.50653,-11.8397 L 6.53477,-11.5597 L 6.55766,-9.95767 L 6.55751,-8.57211 L 6.53008,-8.0128 L 6.4631,-7.87241
 L 6.36327,-7.76886 L 6.24083,-7.70279 L 6.10608,-7.67484 z
M -9.84242,-7.57188 L -9.95035,-7.62589 L -10.0494,-7.70074 L -10.1133,-7.77502 L -10.3897,-8.62311 L -10.9078,-10.3316
 L -11.4086,-12.0334 L -11.6331,-12.8613 L -11.5972,-13.0367 L -11.4975,-13.1749 L -11.3453,-13.2656 L -11.1524,-13.2982
 L -11.0089,-13.2702 L -10.8856,-13.1869 L -10.7841,-13.0494 L -10.7056,-12.8589 L -10.1948,-11.1716 L -9.87695,-10.1498
 L -9.72853,-9.72482 L -9.68877,-9.79599 L -8.98499,-11.9109 L -8.82605,-12.281 L -8.75473,-12.384 L -8.6814,-12.4454
 L -8.60046,-12.475 L -8.50635,-12.4827 L -8.41193,-12.475 L -8.3308,-12.4454 L -8.25737,-12.384 L -8.18602,-12.281
 L -8.02716,-11.9109 L -7.37856,-9.96733 L -7.32269,-9.79599 L -7.28391,-9.72482 L -7.13533,-10.1498 L -6.81769,-11.1716
 L -6.30508,-12.8589 L -6.22704,-13.0494 L -6.12598,-13.1869 L -6.00307,-13.2702 L -5.85947,-13.2982 L -5.66696,-13.2656
 L -5.51486,-13.1749 L -5.41495,-13.0367 L -5.37903,-12.8613 L -5.60641,-12.0136 L -6.11357,-10.2982 L -6.63799,-8.58696
 L -6.91718,-7.75183 L -6.99963,-7.66508 L -7.11113,-7.5995 L -7.23184,-7.56374 L -7.34201,-7.56641 L -7.42097,-7.59309
 L -7.49019,-7.63869 L -7.55566,-7.71571 L -7.62347,-7.83665 L -7.79016,-8.26031 L -8.03857,-9.00972 L -8.46858,-10.294
 L -8.51041,-10.3534 L -8.55333,-10.2746 L -9.25822,-8.1572 L -9.41051,-7.75183 L -9.47754,-7.67789 L -9.56853,-7.61295
 L -9.66693,-7.5668 L -9.75621,-7.54924 z
M -72.0942,-7.25294 L -72.188,-7.26183 L -72.2811,-7.27657 L -72.373,-7.29712 L -72.4635,-7.32341 L -72.5522,-7.35533
 L -72.6387,-7.39275 L -72.7226,-7.43553 L -72.8037,-7.48351 L -72.8817,-7.53647 L -72.9561,-7.59422 L -73.0268,-7.65654
 L -73.0934,-7.72318 L -73.1558,-7.79385 L -73.2135,-7.86832 L -73.2665,-7.94626 L -73.3145,-8.02736 L -73.3572,-8.11133
 L -73.3947,-8.1978 L -73.4266,-8.28647 L -73.4529,-8.37695 L -73.4734,-8.46892 L -73.4882,-8.562 L -73.497,-8.65581
 L -73.5,-8.75 L -73.497,-8.84418 L -73.4882,-8.93799 L -73.4734,-9.03107 L -73.4529,-9.12303 L -73.4266,-9.21352
 L -73.3947,-9.30219 L -73.3572,-9.38866 L -73.3145,-9.47263 L -73.2665,-9.55373 L -73.2135,-9.63167 L -73.1558,-9.70613
 L -73.0934,-9.77681 L -73.0268,-9.84344 L -72.9561,-9.90576 L -72.8817,-9.96352 L -72.8037,-10.0165 L -72.7226,-10.0645
 L -72.6387,-10.1072 L -72.5522,-10.1447 L -72.4635,-10.1766 L -72.373,-10.2029 L -72.2811,-10.2234 L -72.188,-10.2382
 L -72.0942,-10.247 L -72,-10.25 L -71.9058,-10.247 L -71.812,-10.2382 L -71.7189,-10.2234 L -71.627,-10.2029
 L -71.5365,-10.1766 L -71.4478,-10.1447 L -71.3613,-10.1072 L -71.2774,-10.0645 L -71.1963,-10.0165 L -71.1183,-9.96352
 L -71.0439,-9.90576 L -70.9732,-9.84344 L -70.9065,-9.77681 L -70.8442,-9.70613 L -70.7865,-9.63167 L -70.7335,-9.55373
 L -70.6855,-9.47263 L -70.6427,-9.38866 L -70.6053,-9.30219 L -70.5734,-9.21352 L -70.5471,-9.12303 L -70.5266,-9.03107
 L -70.5118,-8.93799 L -70.5029,-8.84418 L -70.5,-8.75 L -70.5029,-8.65581 L -70.5118,-8.562 L -70.5266,-8.46892
 L -70.5471,-8.37695 L -70.5734,-8.28647 L -70.6053,-8.1978 L -70.6427,-8.11133 L -70.6855,-8.02736 L -70.7335,-7.94626
 L -70.7865,-7.86832 L -70.8442,-7.79385 L -70.9065,-7.72318 L -70.9732,-7.65654 L -71.0439,-7.59422 L -71.1183,-7.53647
 L -71.1963,-7.48351 L -71.2774,-7.43553 L -71.3613,-7.39275 L -71.4478,-7.35533 L -71.5365,-7.32341 L -71.627,-7.29712
 L -71.7189,-7.27657 L -71.812,-7.26183 L -71.9058,-7.25294 L -72,-7.25 z
M -48.0942,-7.25294 L -48.188,-7.26183 L -48.2811,-7.27657 L -48.373,-7.29712 L -48.4635,-7.32341 L -48.5522,-7.35533
 L -48.6387,-7.39275 L -48.7226,-7.43553 L -48.8037,-7.48351 L -48.8817,-7.53647 L -48.9561,-7.59422 L -49.0268,-7.65654
 L -49.0934,-7.72318 L -49.1558,-7.79385 L -49.2135,-7.86832 L -49.2665,-7.94626 L -49.3145,-8.02736 L -49.3572,-8.11133
 L -49.3947,-8.1978 L -49.4266,-8.28647 L -49.4529,-8.37695 L -49.4734,-8.46892 L -49.4882,-8.562 L -49.497,-8.65581
 L -49.5,-8.75 L -49.497,-8.84418 L -49.4882,-8.93799 L -49.4734,-9.03107 L -49.4529,-9.12303 L -49.4266,-9.21352
 L -49.3947,-9.30219 L -49.3572,-9.38866 L -49.3145,-9.47263 L -49.2665,-9.55373 L -49.2135,-9.63167 L -49.1558,-9.70613
 L -49.0934,-9.77681 L -49.0268,-9.84344 L -48.9561,-9.90576 L -48.8817,-9.96352 L -48.8037,-10.0165 L -48.7226,-10.0645
 L -48.6387,-10.1072 L -48.5522,-10.1447 L -48.4635,-10.1766 L -48.373,-10.2029 L -48.2811,-10.2234 L -48.188,-10.2382
 L -48.0942,-10.247 L -48,-10.25 L -47.9058,-10.247 L -47.812,-10.2382 L -47.7189,-10.2234 L -47.627,-10.2029
 L -47.5365,-10.1766 L -47.4478,-10.1447 L -47.3613,-10.1072 L -47.2774,-10.0645 L -47.1963,-10.0165 L -47.1183,-9.96352
 L -47.0439,-9.90576 L -46.9732,-9.84344 L -46.9065,-9.77681 L -46.8442,-9.70613 L -46.7865,-9.63167 L -46.7335,-9.55373
 L -46.6855,-9.47263 L -46.6427,-9.38866 L -46.6053,-9.30219 L -46.5734,-9.21352 L -46.5471,-9.12303 L -46.5266,-9.03107
 L -46.5118,-8.93799 L -46.5029,-8.84418 L -46.5,-8.75 L -46.5029,-8.65581 L -46.5118,-8.562 L -46.5266,-8.46892
 L -46.5471,-8.37695 L -46.5734,-8.28647 L -46.6053,-8.1978 L -46.6427,-8.11133 L -46.6855,-8.02736 L -46.7335,-7.94626
 L -46.7865,-7.86832 L -46.8442,-7.79385 L -46.9065,-7.72318 L -46.9732,-7.65654 L -47.0439,-7.59422 L -47.1183,-7.53647
 L -47.1963,-7.48351 L -47.2774,-7.43553 L -47.3613,-7.39275 L -47.4478,-7.35533 L -47.5365,-7.32341 L -47.627,-7.29712
 L -47.7189,-7.27657 L -47.812,-7.26183 L -47.9058,-7.25294 L -48,-7.25 z
M -24.0942,-7.25294 L -24.188,-7.26183 L -24.2811,-7.27657 L -24.373,-7.29712 L -24.4635,-7.32341 L -24.5522,-7.35533
 L -24.6387,-7.39275 L -24.7226,-7.43553 L -24.8037,-7.48351 L -24.8817,-7.53647 L -24.9561,-7.59422 L -25.0268,-7.65654
 L -25.0934,-7.72318 L -25.1558,-7.79385 L -25.2135,-7.86832 L -25.2665,-7.94626 L -25.3145,-8.02736 L -25.3572,-8.11133
 L -25.3947,-8.1978 L -25.4266,-8.28647 L -25.4529,-8.37695 L -25.4734,-8.46892 L -25.4882,-8.562 L -25.497,-8.65581
 L -25.5,-8.75 L -25.497,-8.84418 L -25.4882,-8.93799 L -25.4734,-9.03107 L -25.4529,-9.12303 L -25.4266,-9.21352
 L -25.3947,-9.30219 L -25.3572,-9.38866 L -25.3145,-9.47263 L -25.2665,-9.55373 L -25.2135,-9.63167 L -25.1558,-9.70613
 L -25.0934,-9.77681 L -25.0268,-9.84344 L -24.9561,-9.90576 L -24.8817,-9.96352 L -24.8037,-10.0165 L -24.7226,-10.0645
 L -24.6387,-10.1072 L -24.5522,-10.1447 L -24.4635,-10.1766 L -24.373,-10.2029 L -24.2811,-10.2234 L -24.188,-10.2382
 L -24.0942,-10.247 L -24,-10.25 L -23.9058,-10.247 L -23.812,-10.2382 L -23.7189,-10.2234 L -23.627,-10.2029
 L -23.5365,-10.1766 L -23.4478,-10.1447 L -23.3613,-10.1072 L -23.2774,-10.0645 L -23.1963,-10.0165 L -23.1183,-9.96352
 L -23.0439,-9.90576 L -22.9732,-9.84344 L -22.9065,-9.77681 L -22.8442,-9.70613 L -22.7865,-9.63167 L -22.7335,-9.55373
 L -22.6855,-9.47263 L -22.6427,-9.38866 L -22.6053,-9.30219 L -22.5734,-9.21352 L -22.5471,-9.12303 L -22.5266,-9.03107
 L -22.5118,-8.93799 L -22.5029,-8.84418 L -22.5,-8.75 L -22.5029,-8.65581 L -22.5118,-8.562 L -22.5266,-8.46892
 L -22.5471,-8.37695 L -22.5734,-8.28647 L -22.6053,-8.1978 L -22.6427,-8.11133 L -22.6855,-8.02736 L -22.7335,-7.94626
 L -22.7865,-7.86832 L -22.8442,-7.79385 L -22.9065,-7.72318 L -22.9732,-7.65654 L -23.0439,-7.59422 L -23.1183,-7.53647
 L -23.1963,-7.48351 L -23.2774,-7.43553 L -23.3613,-7.39275 L -23.4478,-7.35533 L -23.5365,-7.32341 L -23.627,-7.29712
 L -23.7189,-7.27657 L -23.812,-7.26183 L -23.9058,-7.25294 L -24,-7.25 z
M 23.9058,-7.25294 L 23.812,-7.26183 L 23.7189,-7.27657 L 23.627,-7.29712 L 23.5365,-7.32341 L 23.4478,-7.35533
 L 23.3613,-7.39275 L 23.2774,-7.43553 L 23.1963,-7.48351 L 23.1183,-7.53647 L 23.0439,-7.59422 L 22.9732,-7.65654
 L 22.9065,-7.72318 L 22.8442,-7.79385 L 22.7865,-7.86832 L 22.7335,-7.94626 L 22.6855,-8.02736 L 22.6427,-8.11133
 L 22.6053,-8.1978 L 22.5734,-8.28647 L 22.5471,-8.37695 L 22.5266,-8.46892 L 22.5118,-8.562 L 22.5029,-8.65581
 L 22.5,-8.75 L 22.5029,-8.84418 L 22.5118,-8.93799 L 22.5266,-9.03107 L 22.5471,-9.12303 L 22.5734,-9.21352
 L 22.6053,-9.30219 L 22.6427,-9.38866 L 22.6855,-9.47263 L 22.7335,-9.55373 L 22.7865,-9.63167 L 22.8442,-9.70613
 L 22.9065,-9.77681 L 22.9732,-9.84344 L 23.0439,-9.90576 L 23.1183,-9.96352 L 23.1963,-10.0165 L 23.2774,-10.0645
 L 23.3613,-10.1072 L 23.4478,-10.1447 L 23.5365,-10.1766 L 23.627,-10.2029 L 23.7189,-10.2234 L 23.812,-10.2382
 L 23.9058,-10.247 L 24,-10.25 L 24.0942,-10.247 L 24.188,-10.2382 L 24.2811,-10.2234 L 24.373,-10.2029
 L 24.4635,-10.1766 L 24.5522,-10.1447 L 24.6387,-10.1072 L 24.7226,-10.0645 L 24.8037,-10.0165 L 24.8817,-9.96352
 L 24.9561,-9.90576 L 25.0268,-9.84344 L 25.0934,-9.77681 L 25.1558,-9.70613 L 25.2135,-9.63167 L 25.2665,-9.55373
 L 25.3145,-9.47263 L 25.3572,-9.38866 L 25.3947,-9.30219 L 25.4266,-9.21352 L 25.4529,-9.12303 L 25.4734,-9.03107
 L 25.4882,-8.93799 L 25.497,-8.84418 L 25.5,-8.75 L 25.497,-8.65581 L 25.4882,-8.562 L 25.4734,-8.46892
 L 25.4529,-8.37695 L 25.4266,-8.28647 L 25.3947,-8.1978 L 25.3572,-8.11133 L 25.3145,-8.02736 L 25.2665,-7.94626
 L 25.2135,-7.86832 L 25.1558,-7.79385 L 25.0934,-7.72318 L 25.0268,-7.65654 L 24.9561,-7.59422 L 24.8817,-7.53647
 L 24.8037,-7.48351 L 24.7226,-7.43553 L 24.6387,-7.39275 L 24.5522,-7.35533 L 24.4635,-7.32341 L 24.373,-7.29712
 L 24.2811,-7.27657 L 24.188,-7.26183 L 24.0942,-7.25294 L 24,-7.25 z
M 47.9058,-7.25294 L 47.812,-7.26183 L 47.7189,-7.27657 L 47.627,-7.29712 L 47.5365,-7.32341 L 47.4478,-7.35533
 L 47.3613,-7.39275 L 47.2774,-7.43553 L 47.1963,-7.48351 L 47.1183,-7.53647 L 47.0439,-7.59422 L 46.9732,-7.65654
 L 46.9065,-7.72318 L 46.8442,-7.79385 L 46.7865,-7.86832 L 46.7335,-7.94626 L 46.6855,-8.02736 L 46.6427,-8.11133
 L 46.6053,-8.1978 L 46.5734,-8.28647 L 46.5471,-8.37695 L 46.5266,-8.46892 L 46.5118,-8.562 L 46.5029,-8.65581
 L 46.5,-8.75 L 46.5029,-8.84418 L 46.5118,-8.93799 L 46.5266,-9.03107 L 46.5471,-9.12303 L 46.5734,-9.21352
 L 46.6053,-9.30219 L 46.6427,-9.38866 L 46.6855,-9.47263 L 46.7335,-9.55373 L 46.7865,-9.63167 L 46.8442,-9.70613
 L 46.9065,-9.77681 L 46.9732,-9.84344 L 47.0439,-9.90576 L 47.1183,-9.96352 L 47.1963,-10.0165 L 47.2774,-10.0645
 L 47.3613,-10.1072 L 47.4478,-10.1447 L 47.5365,-10.1766 L 47.627,-10.2029 L 47.7189,-10.2234 L 47.812,-10.2382
 L 47.9058,-10.247 L 48,-10.25 L 48.0942,-10.247 L 48.188,-10.2382 L 48.2811,-10.2234 L 48.373,-10.2029
 L 48.4635,-10.1766 L 48.5522,-10.1447 L 48.6387,-10.1072 L 48.7226,-10.0645 L 48.8037,-10.0165 L 48.8817,-9.96352
 L 48.9561,-9.90576 L 49.0268,-9.84344 L 49.0934,-9.77681 L 49.1558,-9.70613 L 49.2135,-9.63167 L 49.2665,-9.55373
 L 49.3145,-9.47263 L 49.3572,-9.38866 L 49.3947,-9.30219 L 49.4266,-9.21352 L 49.4529,-9.12303 L 49.4734,-9.03107
 L 49.4882,-8.93799 L 49.497,-8.84418 L 49.5,-8.75 L 49.497,-8.65581 L 49.4882,-8.562 L 49.4734,-8.46892
 L 49.4529,-8.37695 L 49.4266,-8.28647 L 49.3947,-8.1978 L 49.3572,-8.11133 L 49.3145,-8.02736 L 49.2665,-7.94626
 L 49.2135,-7.86832 L 49.1558,-7.79385 L 49.0934,-7.72318 L 49.0268,-7.65654 L 48.9561,-7.59422 L 48.8817,-7.53647
 L 48.8037,-7.48351 L 48.7226,-7.43553 L 48.6387,-7.39275 L 48.5522,-7.35533 L 48.4635,-7.32341 L 48.373,-7.29712
 L 48.2811,-7.27657 L 48.188,-7.26183 L 48.0942,-7.25294 L 48,-7.25 z
M 71.9058,-7.25294 L 71.812,-7.26183 L 71.7189,-7.27657 L 71.627,-7.29712 L 71.5365,-7.32341 L 71.4478,-7.35533
 L 71.3613,-7.39275 L 71.2774,-7.43553 L 71.1963,-7.48351 L 71.1183,-7.53647 L 71.0439,-7.59422 L 70.9732,-7.65654
 L 70.9065,-7.72318 L 70.8442,-7.79385 L 70.7865,-7.86832 L 70.7335,-7.94626 L 70.6855,-8.02736 L 70.6427,-8.11133
 L 70.6053,-8.1978 L 70.5734,-8.28647 L 70.5471,-8.37695 L 70.5266,-8.46892 L 70.5118,-8.562 L 70.5029,-8.65581
 L 70.5,-8.75 L 70.5029,-8.84418 L 70.5118,-8.93799 L 70.5266,-9.03107 L 70.5471,-9.12303 L 70.5734,-9.21352
 L 70.6053,-9.30219 L 70.6427,-9.38866 L 70.6855,-9.47263 L 70.7335,-9.55373 L 70.7865,-9.63167 L 70.8442,-9.70613
 L 70.9065,-9.77681 L 70.9732,-9.84344 L 71.0439,-9.90576 L 71.1183,-9.96352 L 71.1963,-10.0165 L 71.2774,-10.0645
 L 71.3613,-10.1072 L 71.4478,-10.1447 L 71.5365,-10.1766 L 71.627,-10.2029 L 71.7189,-10.2234 L 71.812,-10.2382
 L 71.9058,-10.247 L 72,-10.25 L 72.0942,-10.247 L 72.188,-10.2382 L 72.2811,-10.2234 L 72.373,-10.2029
 L 72.4635,-10.1766 L 72.5522,-10.1447 L 72.6387,-10.1072 L 72.7226,-10.0645 L 72.8037,-10.0165 L 72.8817,-9.96352
 L 72.9561,-9.90576 L 73.0268,-9.84344 L 73.0934,-9.77681 L 73.1558,-9.70613 L 73.2135,-9.63167 L 73.2665,-9.55373
 L 73.3145,-9.47263 L 73.3572,-9.38866 L 73.3947,-9.30219 L 73.4266,-9.21352 L 73.4529,-9.12303 L 73.4734,-9.03107
 L 73.4882,-8.93799 L 73.497,-8.84418 L 73.5,-8.75 L 73.497,-8.65581 L 73.4882,-8.562 L 73.4734,-8.46892
 L 73.4529,-8.37695 L 73.4266,-8.28647 L 73.3947,-8.1978 L 73.3572,-8.11133 L 73.3145,-8.02736 L 73.2665,-7.94626
 L 73.2135,-7.86832 L 73.1558,-7.79385 L 73.0934,-7.72318 L 73.0268,-7.65654 L 72.9561,-7.59422 L 72.8817,-7.53647
 L 72.8037,-7.48351 L 72.7226,-7.43553 L 72.6387,-7.39275 L 72.5522,-7.35533 L 72.4635,-7.32341 L 72.373,-7.29712
 L 72.2811,-7.27657 L 72.188,-7.26183 L 72.0942,-7.25294 L 72,-7.25 z
M -103.763,4 L -100.664,-4.12799 L -99.418,-4.12799 L -96.324,4 L -97.466,4 L -98.206,1.888
 L -101.865,1.888 L -102.605,4 z
M -100.044,-3.04599 L -101.534,0.992004 L -98.548,0.992004 z
M -94,3.75 L -94.0628,3.74802 L -94.1253,3.74211 L -94.1874,3.73228 L -94.2487,3.71858 L -94.309,3.70105
 L -94.3681,3.67976 L -94.4258,3.65482 L -94.4818,3.6263 L -94.5358,3.59431 L -94.5878,3.55901 L -94.6374,3.52051
 L -94.6845,3.47896 L -94.729,3.43454 L -94.7705,3.38742 L -94.809,3.33778 L -94.8443,3.28581 L -94.8763,3.23175
 L -94.9048,3.17577 L -94.9298,3.11812 L -94.951,3.05901 L -94.9686,2.99869 L -94.9823,2.93738 L -94.9921,2.87532
 L -94.998,2.81279 L -95,2.75 L -95,-2.75 L -94.998,-2.81279 L -94.9921,-2.87532 L -94.9823,-2.93738
 L -94.9686,-2.99869 L -94.951,-3.05901 L -94.9298,-3.11812 L -94.9048,-3.17577 L -94.8763,-3.23175 L -94.8443,-3.28581
 L -94.809,-3.33778 L -94.7705,-3.38742 L -94.729,-3.43454 L -94.6845,-3.47896 L -94.6374,-3.52051 L -94.5878,-3.55901
 L -94.5358,-3.59431 L -94.4818,-3.6263 L -94.4258,-3.65482 L -94.3681,-3.67976 L -94.309,-3.70105 L -94.2487,-3.71858
 L -94.1874,-3.73228 L -94.1253,-3.74211 L -94.0628,-3.74802 L -94,-3.75 L 94,-3.75 L 94.0628,-3.74802
 L 94.1253,-3.74211 L 94.1874,-3.73228 L 94.2487,-3.71858 L 94.309,-3.70105 L 94.3681,-3.67976 L 94.4258,-3.65482
 L 94.4818,-3.6263 L 94.5358,-3.59431 L 94.5878,-3.55901 L 94.6374,-3.52051 L 94.6845,-3.47896 L 94.729,-3.43454
 L 94.7705,-3.38742 L 94.809,-3.33778 L 94.8443,-3.28581 L 94.8763,-3.23175 L 94.9048,-3.17577 L 94.9298,-3.11812
 L 94.951,-3.05901 L 94.9686,-2.99869 L 94.9823,-2.93738 L 94.9921,-2.87532 L 94.998,-2.81279 L 95,-2.75
 L 95,2.75 L 94.998,2.81279 L 94.9921,2.87532 L 94.9823,2.93738 L 94.9686,2.99869 L 94.951,3.05901
 L 94.9298,3.11812 L 94.9048,3.17577 L 94.8763,3.23175 L 94.8443,3.28581 L 94.809,3.33778 L 94.7705,3.38742
 L 94.729,3.43454 L 94.6845,3.47896 L 94.6374,3.52051 L 94.5878,3.55901 L 94.5358,3.59431 L 94.4818,3.6263
 L 94.4258,3.65482 L 94.3681,3.67976 L 94.309,3.70105 L 94.2487,3.71858 L 94.1874,3.73228 L 94.1253,3.74211
 L 94.0628,3.74802 L 94,3.75 z
M -72.0942,10.247 L -72.188,10.2382 L -72.2811,10.2234 L -72.373,10.2029 L -72.4635,10.1766 L -72.5522,10.1447
 L -72.6387,10.1072 L -72.7226,10.0645 L -72.8037,10.0165 L -72.8817,9.96352 L -72.9561,9.90576 L -73.0268,9.84344
 L -73.0934,9.77681 L -73.1558,9.70613 L -73.2135,9.63167 L -73.2665,9.55373 L -73.3145,9.47263 L -73.3572,9.38866
 L -73.3947,9.30219 L -73.4266,9.21352 L -73.4529,9.12303 L -73.4734,9.03107 L -73.4882,8.93799 L -73.497,8.84418
 L -73.5,8.75 L -73.497,8.65581 L -73.4882,8.562 L -73.4734,8.46892 L -73.4529,8.37695 L -73.4266,8.28647
 L -73.3947,8.1978 L -73.3572,8.11133 L -73.3145,8.02736 L -73.2665,7.94626 L -73.2135,7.86832 L -73.1558,7.79385
 L -73.0934,7.72318 L -73.0268,7.65654 L -72.9561,7.59422 L -72.8817,7.53647 L -72.8037,7.48351 L -72.7226,7.43553
 L -72.6387,7.39275 L -72.5522,7.35533 L -72.4635,7.32341 L -72.373,7.29712 L -72.2811,7.27657 L -72.188,7.26183
 L -72.0942,7.25294 L -72,7.25 L -71.9058,7.25294 L -71.812,7.26183 L -71.7189,7.27657 L -71.627,7.29712
 L -71.5365,7.32341 L -71.4478,7.35533 L -71.3613,7.39275 L -71.2774,7.43553 L -71.1963,7.48351 L -71.1183,7.53647
 L -71.0439,7.59422 L -70.9732,7.65654 L -70.9065,7.72318 L -70.8442,7.79385 L -70.7865,7.86832 L -70.7335,7.94626
 L -70.6855,8.02736 L -70.6427,8.11133 L -70.6053,8.1978 L -70.5734,8.28647 L -70.5471,8.37695 L -70.5266,8.46892
 L -70.5118,8.562 L -70.5029,8.65581 L -70.5,8.75 L -70.5029,8.84418 L -70.5118,8.93799 L -70.5266,9.03107
 L -70.5471,9.12303 L -70.5734,9.21352 L -70.6053,9.30219 L -70.6427,9.38866 L -70.6855,9.47263 L -70.7335,9.55373
 L -70.7865,9.63167 L -70.8442,9.70613 L -70.9065,9.77681 L -70.9732,9.84344 L -71.0439,9.90576 L -71.1183,9.96352
 L -71.1963,10.0165 L -71.2774,10.0645 L -71.3613,10.1072 L -71.4478,10.1447 L -71.5365,10.1766 L -71.627,10.2029
 L -71.7189,10.2234 L -71.812,10.2382 L -71.9058,10.247 L -72,10.25 z
M -48.0942,10.247 L -48.188,10.2382 L -48.2811,10.2234 L -48.373,10.2029 L -48.4635,10.1766 L -48.5522,10.1447
 L -48.6387,10.1072 L -48.7226,10.0645 L -48.8037,10.0165 L -48.8817,9.96352 L -48.9561,9.90576 L -49.0268,9.84344
 L -49.0934,9.77681 L -49.1558,9.70613 L -49.2135,9.63167 L -49.2665,9.55373 L -49.3145,9.47263 L -49.3572,9.38866
 L -49.3947,9.30219 L -49.4266,9.21352 L -49.4529,9.12303 L -49.4734,9.03107 L -49.4882,8.93799 L -49.497,8.84418
 L -49.5,8.75 L -49.497,8.65581 L -49.4882,8.562 L -49.4734,8.46892 L -49.4529,8.37695 L -49.4266,8.28647
 L -49.3947,8.1978 L -49.3572,8.11133 L -49.3145,8.02736 L -49.2665,7.94626 L -49.2135,7.86832 L -49.1558,7.79385
 L -49.0934,7.72318 L -49.0268,7.65654 L -48.9561,7.59422 L -48.8817,7.53647 L -48.8037,7.48351 L -48.7226,7.43553
 L -48.6387,7.39275 L -48.5522,7.35533 L -48.4635,7.32341 L -48.373,7.29712 L -48.2811,7.27657 L -48.188,7.26183
 L -48.0942,7.25294 L -48,7.25 L -47.9058,7.25294 L -47.812,7.26183 L -47.7189,7.27657 L -47.627,7.29712
 L -47.5365,7.32341 L -47.4478,7.35533 L -47.3613,7.39275 L -47.2774,7.43553 L -47.1963,7.48351 L -47.1183,7.53647
 L -47.0439,7.59422 L -46.9732,7.65654 L -46.9065,7.72318 L -46.8442,7.79385 L -46.7865,7.86832 L -46.7335,7.94626
 L -46.6855,8.02736 L -46.6427,8.11133 L -46.6053,8.1978 L -46.5734,8.28647 L -46.5471,8.37695 L -46.5266,8.46892
 L -46.5118,8.562 L -46.5029,8.65581 L -46.5,8.75 L -46.5029,8.84418 L -46.5118,8.93799 L -46.5266,9.03107
 L -46.5471,9.12303 L -46.5734,9.21352 L -46.6053,9.30219 L -46.6427,9.38866 L -46.6855,9.47263 L -46.7335,9.55373
 L -46.7865,9.63167 L -46.8442,9.70613 L -46.9065,9.77681 L -46.9732,9.84344 L -47.0439,9.90576 L -47.1183,9.96352
 L -47.1963,10.0165 L -47.2774,10.0645 L -47.3613,10.1072 L -47.4478,10.1447 L -47.5365,10.1766 L -47.627,10.2029
 L -47.7189,10.2234 L -47.812,10.2382 L -47.9058,10.247 L -48,10.25 z
M -24.0942,10.247 L -24.188,10.2382 L -24.2811,10.2234 L -24.373,10.2029 L -24.4635,10.1766 L -24.5522,10.1447
 L -24.6387,10.1072 L -24.7226,10.0645 L -24.8037,10.0165 L -24.8817,9.96352 L -24.9561,9.90576 L -25.0268,9.84344
 L -25.0934,9.77681 L -25.1558,9.70613 L -25.2135,9.63167 L -25.2665,9.55373 L -25.3145,9.47263 L -25.3572,9.38866
 L -25.3947,9.30219 L -25.4266,9.21352 L -25.4529,9.12303 L -25.4734,9.03107 L -25.4882,8.93799 L -25.497,8.84418
 L -25.5,8.75 L -25.497,8.65581 L -25.4882,8.562 L -25.4734,8.46892 L -25.4529,8.37695 L -25.4266,8.28647
 L -25.3947,8.1978 L -25.3572,8.11133 L -25.3145,8.02736 L -25.2665,7.94626 L -25.2135,7.86832 L -25.1558,7.79385
 L -25.0934,7.72318 L -25.0268,7.65654 L -24.9561,7.59422 L -24.8817,7.53647 L -24.8037,7.48351 L -24.7226,7.43553
 L -24.6387,7.39275 L -24.5522,7.35533 L -24.4635,7.32341 L -24.373,7.29712 L -24.2811,7.27657 L -24.188,7.26183
 L -24.0942,7.25294 L -24,7.25 L -23.9058,7.25294 L -23.812,7.26183 L -23.7189,7.27657 L -23.627,7.29712
 L -23.5365,7.32341 L -23.4478,7.35533 L -23.3613,7.39275 L -23.2774,7.43553 L -23.1963,7.48351 L -23.1183,7.53647
 L -23.0439,7.59422 L -22.9732,7.65654 L -22.9065,7.72318 L -22.8442,7.79385 L -22.7865,7.86832 L -22.7335,7.94626
 L -22.6855,8.02736 L -22.6427,8.11133 L -22.6053,8.1978 L -22.5734,8.28647 L -22.5471,8.37695 L -22.5266,8.46892
 L -22.5118,8.562 L -22.5029,8.65581 L -22.5,8.75 L -22.5029,8.84418 L -22.5118,8.93799 L -22.5266,9.03107
 L -22.5471,9.12303 L -22.5734,9.21352 L -22.6053,9.30219 L -22.6427,9.38866 L -22.6855,9.47263 L -22.7335,9.55373
 L -22.7865,9.63167 L -22.8442,9.70613 L -22.9065,9.77681 L -22.9732,9.84344 L -23.0439,9.90576 L -23.1183,9.96352
 L -23.1963,10.0165 L -23.2774,10.0645 L -23.3613,10.1072 L -23.4478,10.1447 L -23.5365,10.1766 L -23.627,10.2029
 L -23.7189,10.2234 L -23.812,10.2382 L -23.9058,10.247 L -24,10.25 z
M 71.9058,10.247 L 71.812,10.2382 L 71.7189,10.2234 L 71.627,10.2029 L 71.5365,10.1766 L 71.4478,10.1447
 L 71.3613,10.1072 L 71.2774,10.0645 L 71.1963,10.0165 L 71.1183,9.96352 L 71.0439,9.90576 L 70.9732,9.84344
 L 70.9065,9.77681 L 70.8442,9.70613 L 70.7865,9.63167 L 70.7335,9.55373 L 70.6855,9.47263 L 70.6427,9.38866
 L 70.6053,9.30219 L 70.5734,9.21352 L 70.5471,9.12303 L 70.5266,9.03107 L 70.5118,8.93799 L 70.5029,8.84418
 L 70.5,8.75 L 70.5029,8.65581 L 70.5118,8.562 L 70.5266,8.46892 L 70.5471,8.37695 L 70.5734,8.28647
 L 70.6053,8.1978 L 70.6427,8.11133 L 70.6855,8.02736 L 70.7335,7.94626 L 70.7865,7.86832 L 70.8442,7.79385
 L 70.9065,7.72318 L 70.9732,7.65654 L 71.0439,7.59422 L 71.1183,7.53647 L 71.1963,7.48351 L 71.2774,7.43553
 L 71.3613,7.39275 L 71.4478,7.35533 L 71.5365,7.32341 L 71.627,7.29712 L 71.7189,7.27657 L 71.812,7.26183
 L 71.9058,7.25294 L 72,7.25 L 72.0942,7.25294 L 72.188,7.26183 L 72.2811,7.27657 L 72.373,7.29712
 L 72.4635,7.32341 L 72.5522,7.35533 L 72.6387,7.39275 L 72.7226,7.43553 L 72.8037,7.48351 L 72.8817,7.53647
 L 72.9561,7.59422 L 73.0268,7.65654 L 73.0934,7.72318 L 73.1558,7.79385 L 73.2135,7.86832 L 73.2665,7.94626
 L 73.3145,8.02736 L 73.3572,8.11133 L 73.3947,8.1978 L 73.4266,8.28647 L 73.4529,8.37695 L 73.4734,8.46892
 L 73.4882,8.562 L 73.497,8.65581 L 73.5,8.75 L 73.497,8.84418 L 73.4882,8.93799 L 73.4734,9.03107
 L 73.4529,9.12303 L 73.4266,9.21352 L 73.3947,9.30219 L 73.3572,9.38866 L 73.3145,9.47263 L 73.2665,9.55373
 L 73.2135,9.63167 L 73.1558,9.70613 L 73.0934,9.77681 L 73.0268,9.84344 L 72.9561,9.90576 L 72.8817,9.96352
 L 72.8037,10.0165 L 72.7226,10.0645 L 72.6387,10.1072 L 72.5522,10.1447 L 72.4635,10.1766 L 72.373,10.2029
 L 72.2811,10.2234 L 72.188,10.2382 L 72.0942,10.247 L 72,10.25 z
M 47.9058,10.247 L 47.812,10.2382 L 47.7189,10.2234 L 47.627,10.2029 L 47.5365,10.1766 L 47.4478,10.1447
 L 47.3613,10.1072 L 47.2774,10.0645 L 47.1963,10.0165 L 47.1183,9.96352 L 47.0439,9.90576 L 46.9732,9.84344
 L 46.9065,9.77681 L 46.8442,9.70613 L 46.7865,9.63167 L 46.7335,9.55373 L 46.6855,9.47263 L 46.6427,9.38866
 L 46.6053,9.30219 L 46.5734,9.21352 L 46.5471,9.12303 L 46.5266,9.03107 L 46.5118,8.93799 L 46.5029,8.84418
 L 46.5,8.75 L 46.5029,8.65581 L 46.5118,8.562 L 46.5266,8.46892 L 46.5471,8.37695 L 46.5734,8.28647
 L 46.6053,8.1978 L 46.6427,8.11133 L 46.6855,8.02736 L 46.7335,7.94626 L 46.7865,7.86832 L 46.8442,7.79385
 L 46.9065,7.72318 L 46.9732,7.65654 L 47.0439,7.59422 L 47.1183,7.53647 L 47.1963,7.48351 L 47.2774,7.43553
 L 47.3613,7.39275 L 47.4478,7.35533 L 47.5365,7.32341 L 47.627,7.29712 L 47.7189,7.27657 L 47.812,7.26183
 L 47.9058,7.25294 L 48,7.25 L 48.0942,7.25294 L 48.188,7.26183 L 48.2811,7.27657 L 48.373,7.29712
 L 48.4635,7.32341 L 48.5522,7.35533 L 48.6387,7.39275 L 48.7226,7.43553 L 48.8037,7.48351 L 48.8817,7.53647
 L 48.9561,7.59422 L 49.0268,7.65654 L 49.0934,7.72318 L 49.1558,7.79385 L 49.2135,7.86832 L 49.2665,7.94626
 L 49.3145,8.02736 L 49.3572,8.11133 L 49.3947,8.1978 L 49.4266,8.28647 L 49.4529,8.37695 L 49.4734,8.46892
 L 49.4882,8.562 L 49.497,8.65581 L 49.5,8.75 L 49.497,8.84418 L 49.4882,8.93799 L 49.4734,9.03107
 L 49.4529,9.12303 L 49.4266,9.21352 L 49.3947,9.30219 L 49.3572,9.38866 L 49.3145,9.47263 L 49.2665,9.55373
 L 49.2135,9.63167 L 49.1558,9.70613 L 49.0934,9.77681 L 49.0268,9.84344 L 48.9561,9.90576 L 48.8817,9.96352
 L 48.8037,10.0165 L 48.7226,10.0645 L 48.6387,10.1072 L 48.5522,10.1447 L 48.4635,10.1766 L 48.373,10.2029
 L 48.2811,10.2234 L 48.188,10.2382 L 48.0942,10.247 L 48,10.25 z
M 23.9058,10.247 L 23.812,10.2382 L 23.7189,10.2234 L 23.627,10.2029 L 23.5365,10.1766 L 23.4478,10.1447
 L 23.3613,10.1072 L 23.2774,10.0645 L 23.1963,10.0165 L 23.1183,9.96352 L 23.0439,9.90576 L 22.9732,9.84344
 L 22.9065,9.77681 L 22.8442,9.70613 L 22.7865,9.63167 L 22.7335,9.55373 L 22.6855,9.47263 L 22.6427,9.38866
 L 22.6053,9.30219 L 22.5734,9.21352 L 22.5471,9.12303 L 22.5266,9.03107 L 22.5118,8.93799 L 22.5029,8.84418
 L 22.5,8.75 L 22.5029,8.65581 L 22.5118,8.562 L 22.5266,8.46892 L 22.5471,8.37695 L 22.5734,8.28647
 L 22.6053,8.1978 L 22.6427,8.11133 L 22.6855,8.02736 L 22.7335,7.94626 L 22.7865,7.86832 L 22.8442,7.79385
 L 22.9065,7.72318 L 22.9732,7.65654 L 23.0439,7.59422 L 23.1183,7.53647 L 23.1963,7.48351 L 23.2774,7.43553
 L 23.3613,7.39275 L 23.4478,7.35533 L 23.5365,7.32341 L 23.627,7.29712 L 23.7189,7.27657 L 23.812,7.26183
 L 23.9058,7.25294 L 24,7.25 L 24.0942,7.25294 L 24.188,7.26183 L 24.2811,7.27657 L 24.373,7.29712
 L 24.4635,7.32341 L 24.5522,7.35533 L 24.6387,7.39275 L 24.7226,7.43553 L 24.8037,7.48351 L 24.8817,7.53647
 L 24.9561,7.59422 L 25.0268,7.65654 L 25.0934,7.72318 L 25.1558,7.79385 L 25.2135,7.86832 L 25.2665,7.94626
 L 25.3145,8.02736 L 25.3572,8.11133 L 25.3947,8.1978 L 25.4266,8.28647 L 25.4529,8.37695 L 25.4734,8.46892
 L 25.4882,8.562 L 25.497,8.65581 L 25.5,8.75 L 25.497,8.84418 L 25.4882,8.93799 L 25.4734,9.03107
 L 25.4529,9.12303 L 25.4266,9.21352 L 25.3947,9.30219 L 25.3572,9.38866 L 25.3145,9.47263 L 25.2665,9.55373
 L 25.2135,9.63167 L 25.1558,9.70613 L 25.0934,9.77681 L 25.0268,9.84344 L 24.9561,9.90576 L 24.8817,9.96352
 L 24.8037,10.0165 L 24.7226,10.0645 L 24.6387,10.1072 L 24.5522,10.1447 L 24.4635,10.1766 L 24.373,10.2029
 L 24.2811,10.2234 L 24.188,10.2382 L 24.0942,10.247 L 24,10.25 z
" stroke="black" fill="lightgray" stroke-width="0.5"/></svg>
