<?xml version="1.0" standalone="no"?>
<!DOCTYPE svg PUBLIC "-//W3C//DTD SVG 1.1//EN" "http://www.w3.org/Graphics/SVG/1.1/DTD/svg11.dtd">
<svg width="110mm" height="110mm" viewBox="0 -110 110 110" xmlns="http://www.w3.org/2000/svg" version="1.1">
<title>OpenSCAD Model</title>
<path d="
M 108.594,-0.00294495 L 108.688,-0.0118256 L 108.781,-0.0265656 L 108.873,-0.0471191 L 108.964,-0.07341 L 109.052,-0.105331
 L 109.139,-0.142746 L 109.223,-0.185532 L 109.304,-0.233505 L 109.382,-0.286469 L 109.456,-0.344223 L 109.527,-0.40654
 L 109.593,-0.473175 L 109.656,-0.543854 L 109.714,-0.618317 L 109.766,-0.696259 L 109.814,-0.777359 L 109.857,-0.861328
 L 109.895,-0.9478 L 109.927,-1.03647 L 109.953,-1.12695 L 109.973,-1.21892 L 109.988,-1.312 L 109.997,-1.40581
 L 110,-1.5 L 110,-108.5 L 109.997,-108.594 L 109.988,-108.688 L 109.973,-108.781 L 109.953,-108.873
 L 109.927,-108.964 L 109.895,-109.052 L 109.857,-109.139 L 109.814,-109.223 L 109.766,-109.304 L 109.714,-109.382
 L 109.656,-109.456 L 109.593,-109.527 L 109.527,-109.593 L 109.456,-109.656 L 109.382,-109.714 L 109.304,-109.766
 L 109.223,-109.814 L 109.139,-109.857 L 109.052,-109.895 L 108.964,-109.927 L 108.873,-109.953 L 108.781,-109.973
 L 108.688,-109.988 L 108.594,-109.997 L 108.5,-110 L 1.5,-110 L 1.40581,-109.997 L 1.312,-109.988
 L 1.21892,-109.973 L 1.12695,-109.953 L 1.03647,-109.927 L 0.9478,-109.895 L 0.861328,-109.857 L 0.777359,-109.814
 L 0.696259,-109.766 L 0.618317,-109.714 L 0.543854,-109.656 L 0.473175,-109.593 L 0.40654,-109.527 L 0.344223,-109.456
 L 0.286469,-109.382 L 0.233505,-109.304 L 0.185532,-109.223 L 0.142746,-109.139 L 0.105331,-109.052 L 0.07341,-108.964
 L 0.0471191,-108.873 L 0.0265656,-108.781 L 0.0118256,-108.688 L 0.00294495,-108.594 L 0,-108.5 L 0,-1.5
 L 0.00294495,-1.40581 L 0.0118256,-1.312 L 0.0265656,-1.21892 L 0.0471191,-1.12695 L 0.07341,-1.03647 L 0.105331,-0.9478
 L 0.142746,-0.861328 L 0.185532,-0.777359 L 0.233505,-0.696259 L 0.286469,-0.618317 L 0.344223,-0.543854 L 0.40654,-0.473175
 L 0.473175,-0.40654 L 0.543854,-0.344223 L 0.618317,-0.286469 L 0.696259,-0.233505 L 0.777359,-0.185532 L 0.861328,-0.142746
 L 0.9478,-0.105331 L 1.03647,-0.07341 L 1.12695,-0.0471191 L 1.21892,-0.0265656 L 1.312,-0.0118256 L 1.40581,-0.00294495
 L 1.5,-0 L 108.5,-0 z
M 69.8273,-97.2554 L 69.6553,-97.2717 L 69.4847,-97.2987 L 69.3161,-97.3364 L 69.1502,-97.3846 L 68.9877,-97.4431
 L 68.8291,-97.5117 L 68.6752,-97.5902 L 68.5265,-97.6781 L 68.3836,-97.7752 L 68.2471,-97.8811 L 68.175,-97.9447
 L 68.175,-102.055 L 68.2471,-102.119 L 68.3836,-102.225 L 68.5265,-102.322 L 68.6752,-102.41 L 68.8291,-102.488
 L 68.9877,-102.557 L 69.1502,-102.615 L 69.3161,-102.664 L 69.4847,-102.701 L 69.6553,-102.728 L 69.8273,-102.745
 L 70,-102.75 L 70.1727,-102.745 L 70.3447,-102.728 L 70.5153,-102.701 L 70.6839,-102.664 L 70.8498,-102.615
 L 71.0123,-102.557 L 71.1709,-102.488 L 71.3248,-102.41 L 71.4735,-102.322 L 71.6164,-102.225 L 71.7529,-102.119
 L 71.825,-102.055 L 71.825,-97.9447 L 71.7529,-97.8811 L 71.6164,-97.7752 L 71.4735,-97.6781 L 71.3248,-97.5902
 L 71.1709,-97.5117 L 71.0123,-97.4431 L 70.8498,-97.3846 L 70.6839,-97.3364 L 70.5153,-97.2987 L 70.3447,-97.2717
 L 70.1727,-97.2554 L 70,-97.25 z
M 29.8273,-97.2554 L 29.6553,-97.2717 L 29.4847,-97.2987 L 29.3161,-97.3364 L 29.1502,-97.3846 L 28.9877,-97.4431
 L 28.8291,-97.5117 L 28.6752,-97.5902 L 28.5265,-97.6781 L 28.3836,-97.7752 L 28.275,-97.8594 L 28.275,-102.141
 L 28.3836,-102.225 L 28.5265,-102.322 L 28.6752,-102.41 L 28.8291,-102.488 L 28.9877,-102.557 L 29.1502,-102.615
 L 29.3161,-102.664 L 29.4847,-102.701 L 29.6553,-102.728 L 29.8273,-102.745 L 30,-102.75 L 30.1727,-102.745
 L 30.3447,-102.728 L 30.5153,-102.701 L 30.6839,-102.664 L 30.8498,-102.615 L 31.0123,-102.557 L 31.1709,-102.488
 L 31.3248,-102.41 L 31.4735,-102.322 L 31.6164,-102.225 L 31.725,-102.141 L 31.725,-97.8594 L 31.6164,-97.7752
 L 31.4735,-97.6781 L 31.3248,-97.5902 L 31.1709,-97.5117 L 31.0123,-97.4431 L 30.8498,-97.3846 L 30.6839,-97.3364
 L 30.5153,-97.2987 L 30.3447,-97.2717 L 30.1727,-97.2554 L 30,-97.25 z
M 39.8273,-97.2554 L 39.6553,-97.2717 L 39.4847,-97.2987 L 39.3161,-97.3364 L 39.1502,-97.3846 L 38.9877,-97.4431
 L 38.8291,-97.5117 L 38.6752,-97.5902 L 38.5265,-97.6781 L 38.3836,-97.7752 L 38.25,-97.8788 L 38.25,-102.121
 L 38.3836,-102.225 L 38.5265,-102.322 L 38.6752,-102.41 L 38.8291,-102.488 L 38.9877,-102.557 L 39.1502,-102.615
 L 39.3161,-102.664 L 39.4847,-102.701 L 39.6553,-102.728 L 39.8273,-102.745 L 40,-102.75 L 40.1727,-102.745
 L 40.3447,-102.728 L 40.5153,-102.701 L 40.6839,-102.664 L 40.8498,-102.615 L 41.0123,-102.557 L 41.1709,-102.488
 L 41.3248,-102.41 L 41.4735,-102.322 L 41.6164,-102.225 L 41.75,-102.121 L 41.75,-97.8788 L 41.6164,-97.7752
 L 41.4735,-97.6781 L 41.3248,-97.5902 L 41.1709,-97.5117 L 41.0123,-97.4431 L 40.8498,-97.3846 L 40.6839,-97.3364
 L 40.5153,-97.2987 L 40.3447,-97.2717 L 40.1727,-97.2554 L 40,-97.25 z
M 49.8273,-97.2554 L 49.6553,-97.2717 L 49.4847,-97.2987 L 49.3161,-97.3364 L 49.1502,-97.3846 L 48.9877,-97.4431
 L 48.8291,-97.5117 L 48.6752,-97.5902 L 48.5265,-97.6781 L 48.3836,-97.7752 L 48.2471,-97.8811 L 48.225,-97.9006
 L 48.225,-102.099 L 48.2471,-102.119 L 48.3836,-102.225 L 48.5265,-102.322 L 48.6752,-102.41 L 48.8291,-102.488
 L 48.9877,-102.557 L 49.1502,-102.615 L 49.3161,-102.664 L 49.4847,-102.701 L 49.6553,-102.728 L 49.8273,-102.745
 L 50,-102.75 L 50.1727,-102.745 L 50.3447,-102.728 L 50.5153,-102.701 L 50.6839,-102.664 L 50.8498,-102.615
 L 51.0123,-102.557 L 51.1709,-102.488 L 51.3248,-102.41 L 51.4735,-102.322 L 51.6164,-102.225 L 51.7529,-102.119
 L 51.775,-102.099 L 51.775,-97.9006 L 51.7529,-97.8811 L 51.6164,-97.7752 L 51.4735,-97.6781 L 51.3248,-97.5902
 L 51.1709,-97.5117 L 51.0123,-97.4431 L 50.8498,-97.3846 L 50.6839,-97.3364 L 50.5153,-97.2987 L 50.3447,-97.2717
 L 50.1727,-97.2554 L 50,-97.25 z
M 59.8273,-97.2554 L 59.6553,-97.2717 L 59.4847,-97.2987 L 59.3161,-97.3364 L 59.1502,-97.3846 L 58.9877,-97.4431
 L 58.8291,-97.5117 L 58.6752,-97.5902 L 58.5265,-97.6781 L 58.3836,-97.7752 L 58.2471,-97.8811 L 58.2,-97.9226
 L 58.2,-102.077 L 58.2471,-102.119 L 58.3836,-102.225 L 58.5265,-102.322 L 58.6752,-102.41 L 58.8291,-102.488
 L 58.9877,-102.557 L 59.1502,-102.615 L 59.3161,-102.664 L 59.4847,-102.701 L 59.6553,-102.728 L 59.8273,-102.745
 L 60,-102.75 L 60.1727,-102.745 L 60.3447,-102.728 L 60.5153,-102.701 L 60.6839,-102.664 L 60.8498,-102.615
 L 61.0123,-102.557 L 61.1709,-102.488 L 61.3248,-102.41 L 61.4735,-102.322 L 61.6164,-102.225 L 61.7529,-102.119
 L 61.8,-102.077 L 61.8,-97.9226 L 61.7529,-97.8811 L 61.6164,-97.7752 L 61.4735,-97.6781 L 61.3248,-97.5902
 L 61.1709,-97.5117 L 61.0123,-97.4431 L 60.8498,-97.3846 L 60.6839,-97.3364 L 60.5153,-97.2987 L 60.3447,-97.2717
 L 60.1727,-97.2554 L 60,-97.25 z
M 19.8273,-97.2554 L 19.6553,-97.2717 L 19.4847,-97.2987 L 19.3161,-97.3364 L 19.1502,-97.3846 L 18.9877,-97.4431
 L 18.8291,-97.5117 L 18.6752,-97.5902 L 18.5265,-97.6781 L 18.3836,-97.7752 L 18.3,-97.8401 L 18.3,-102.16
 L 18.3836,-102.225 L 18.5265,-102.322 L 18.6752,-102.41 L 18.8291,-102.488 L 18.9877,-102.557 L 19.1502,-102.615
 L 19.3161,-102.664 L 19.4847,-102.701 L 19.6553,-102.728 L 19.8273,-102.745 L 20,-102.75 L 20.1727,-102.745
 L 20.3447,-102.728 L 20.5153,-102.701 L 20.6839,-102.664 L 20.8498,-102.615 L 21.0123,-102.557 L 21.1709,-102.488
 L 21.3248,-102.41 L 21.4735,-102.322 L 21.6164,-102.225 L 21.7,-102.16 L 21.7,-97.8401 L 21.6164,-97.7752
 L 21.4735,-97.6781 L 21.3248,-97.5902 L 21.1709,-97.5117 L 21.0123,-97.4431 L 20.8498,-97.3846 L 20.6839,-97.3364
 L 20.5153,-97.2987 L 20.3447,-97.2717 L 20.1727,-97.2554 L 20,-97.25 z
M 79.8273,-97.2554 L 79.6553,-97.2717 L 79.4847,-97.2987 L 79.3161,-97.3364 L 79.1502,-97.3846 L 78.9877,-97.4431
 L 78.8291,-97.5117 L 78.6752,-97.5902 L 78.5265,-97.6781 L 78.3836,-97.7752 L 78.2471,-97.8811 L 78.15,-97.9667
 L 78.15,-102.033 L 78.2471,-102.119 L 78.3836,-102.225 L 78.5265,-102.322 L 78.6752,-102.41 L 78.8291,-102.488
 L 78.9877,-102.557 L 79.1502,-102.615 L 79.3161,-102.664 L 79.4847,-102.701 L 79.6553,-102.728 L 79.8273,-102.745
 L 80,-102.75 L 80.1727,-102.745 L 80.3447,-102.728 L 80.5153,-102.701 L 80.6839,-102.664 L 80.8498,-102.615
 L 81.0123,-102.557 L 81.1709,-102.488 L 81.3248,-102.41 L 81.4735,-102.322 L 81.6164,-102.225 L 81.7529,-102.119
 L 81.85,-102.033 L 81.85,-97.9667 L 81.7529,-97.8811 L 81.6164,-97.7752 L 81.4735,-97.6781 L 81.3248,-97.5902
 L 81.1709,-97.5117 L 81.0123,-97.4431 L 80.8498,-97.3846 L 80.6839,-97.3364 L 80.5153,-97.2987 L 80.3447,-97.2717
 L 80.1727,-97.2554 L 80,-97.25 z
M 89.8273,-97.2554 L 89.6553,-97.2717 L 89.4847,-97.2987 L 89.3161,-97.3364 L 89.1502,-97.3846 L 88.9877,-97.4431
 L 88.8291,-97.5117 L 88.6752,-97.5902 L 88.5265,-97.6781 L 88.3836,-97.7752 L 88.2471,-97.8811 L 88.125,-97.9887
 L 88.125,-102.011 L 88.2471,-102.119 L 88.3836,-102.225 L 88.5265,-102.322 L 88.6752,-102.41 L 88.8291,-102.488
 L 88.9877,-102.557 L 89.1502,-102.615 L 89.3161,-102.664 L 89.4847,-102.701 L 89.6553,-102.728 L 89.8273,-102.745
 L 90,-102.75 L 90.1727,-102.745 L 90.3447,-102.728 L 90.5153,-102.701 L 90.6839,-102.664 L 90.8498,-102.615
 L 91.0123,-102.557 L 91.1709,-102.488 L 91.3248,-102.41 L 91.4735,-102.322 L 91.6164,-102.225 L 91.7529,-102.119
 L 91.875,-102.011 L 91.875,-97.9887 L 91.7529,-97.8811 L 91.6164,-97.7752 L 91.4735,-97.6781 L 91.3248,-97.5902
 L 91.1709,-97.5117 L 91.0123,-97.4431 L 90.8498,-97.3846 L 90.6839,-97.3364 L 90.5153,-97.2987 L 90.3447,-97.2717
 L 90.1727,-97.2554 L 90,-97.25 z
M 99.8273,-97.2554 L 99.6553,-97.2717 L 99.4847,-97.2987 L 99.3161,-97.3364 L 99.1502,-97.3846 L 98.9877,-97.4431
 L 98.8291,-97.5117 L 98.6752,-97.5902 L 98.5265,-97.6781 L 98.3836,-97.7752 L 98.2471,-97.8811 L 98.1175,-97.9953
 L 98.1,-98.0128 L 98.1,-101.987 L 98.1175,-102.005 L 98.2471,-102.119 L 98.3836,-102.225 L 98.5265,-102.322
 L 98.6752,-102.41 L 98.8291,-102.488 L 98.9877,-102.557 L 99.1502,-102.615 L 99.3161,-102.664 L 99.4847,-102.701
 L 99.6553,-102.728 L 99.8273,-102.745 L 100,-102.75 L 100.173,-102.745 L 100.345,-102.728 L 100.515,-102.701
 L 100.684,-102.664 L 100.85,-102.615 L 101.012,-102.557 L 101.171,-102.488 L 101.325,-102.41 L 101.474,-102.322
 L 101.616,-102.225 L 101.753,-102.119 L 101.882,-102.005 L 101.9,-101.987 L 101.9,-98.0128 L 101.882,-97.9953
 L 101.753,-97.8811 L 101.616,-97.7752 L 101.474,-97.6781 L 101.325,-97.5902 L 101.171,-97.5117 L 101.012,-97.4431
 L 100.85,-97.3846 L 100.684,-97.3364 L 100.515,-97.2987 L 100.345,-97.2717 L 100.173,-97.2554 L 100,-97.25
 z
M 9.82733,-97.2554 L 9.65533,-97.2717 L 9.48471,-97.2987 L 9.31612,-97.3364 L 9.15021,-97.3846 L 8.98767,-97.4431
 L 8.82912,-97.5117 L 8.67519,-97.5902 L 8.52649,-97.6781 L 8.38359,-97.7752 L 8.32501,-97.8206 L 8.32501,-102.179
 L 8.38359,-102.225 L 8.52649,-102.322 L 8.67519,-102.41 L 8.82912,-102.488 L 8.98767,-102.557 L 9.15021,-102.615
 L 9.31612,-102.664 L 9.48471,-102.701 L 9.65533,-102.728 L 9.82733,-102.745 L 10,-102.75 L 10.1727,-102.745
 L 10.3447,-102.728 L 10.5153,-102.701 L 10.6839,-102.664 L 10.8498,-102.615 L 11.0123,-102.557 L 11.1709,-102.488
 L 11.3248,-102.41 L 11.4735,-102.322 L 11.6164,-102.225 L 11.675,-102.179 L 11.675,-97.8206 L 11.6164,-97.7752
 L 11.4735,-97.6781 L 11.3248,-97.5902 L 11.1709,-97.5117 L 11.0123,-97.4431 L 10.8498,-97.3846 L 10.6839,-97.3364
 L 10.5153,-97.2987 L 10.3447,-97.2717 L 10.1727,-97.2554 L 10,-97.25 z
M 9.8289,-87.2804 L 9.65848,-87.2965 L 9.4894,-87.3233 L 9.32233,-87.3606 L 9.15794,-87.4084 L 8.99687,-87.4664
 L 8.83975,-87.5343 L 8.68723,-87.6121 L 8.53989,-87.6992 L 8.3983,-87.7954 L 8.32501,-87.8523 L 8.32501,-92.1477
 L 8.3983,-92.2046 L 8.53989,-92.3008 L 8.68723,-92.3879 L 8.83975,-92.4657 L 8.99687,-92.5336 L 9.15794,-92.5916
 L 9.32233,-92.6394 L 9.4894,-92.6767 L 9.65848,-92.7035 L 9.8289,-92.7196 L 10,-92.725 L 10.1711,-92.7196
 L 10.3415,-92.7035 L 10.5106,-92.6767 L 10.6777,-92.6394 L 10.8421,-92.5916 L 11.0031,-92.5336 L 11.1602,-92.4657
 L 11.3128,-92.3879 L 11.4601,-92.3008 L 11.6017,-92.2046 L 11.675,-92.1477 L 11.675,-87.8523 L 11.6017,-87.7954
 L 11.4601,-87.6992 L 11.3128,-87.6121 L 11.1602,-87.5343 L 11.0031,-87.4664 L 10.8421,-87.4084 L 10.6777,-87.3606
 L 10.5106,-87.3233 L 10.3415,-87.2965 L 10.1711,-87.2804 L 10,-87.275 z
M 19.8289,-87.2804 L 19.6585,-87.2965 L 19.4894,-87.3233 L 19.3223,-87.3606 L 19.1579,-87.4084 L 18.9969,-87.4664
 L 18.8398,-87.5343 L 18.6872,-87.6121 L 18.5399,-87.6992 L 18.3983,-87.7954 L 18.3,-87.8717 L 18.3,-92.1283
 L 18.3983,-92.2046 L 18.5399,-92.3008 L 18.6872,-92.3879 L 18.8398,-92.4657 L 18.9969,-92.5336 L 19.1579,-92.5916
 L 19.3223,-92.6394 L 19.4894,-92.6767 L 19.6585,-92.7035 L 19.8289,-92.7196 L 20,-92.725 L 20.1711,-92.7196
 L 20.3415,-92.7035 L 20.5106,-92.6767 L 20.6777,-92.6394 L 20.8421,-92.5916 L 21.0031,-92.5336 L 21.1602,-92.4657
 L 21.3128,-92.3879 L 21.4601,-92.3008 L 21.6017,-92.2046 L 21.7,-92.1283 L 21.7,-87.8717 L 21.6017,-87.7954
 L 21.4601,-87.6992 L 21.3128,-87.6121 L 21.1602,-87.5343 L 21.0031,-87.4664 L 20.8421,-87.4084 L 20.6777,-87.3606
 L 20.5106,-87.3233 L 20.3415,-87.2965 L 20.1711,-87.2804 L 20,-87.275 z
M 29.8289,-87.2804 L 29.6585,-87.2965 L 29.4894,-87.3233 L 29.3223,-87.3606 L 29.1579,-87.4084 L 28.9969,-87.4664
 L 28.8398,-87.5343 L 28.6872,-87.6121 L 28.5399,-87.6992 L 28.3983,-87.7954 L 28.275,-87.8911 L 28.275,-92.1089
 L 28.3983,-92.2046 L 28.5399,-92.3008 L 28.6872,-92.3879 L 28.8398,-92.4657 L 28.9969,-92.5336 L 29.1579,-92.5916
 L 29.3223,-92.6394 L 29.4894,-92.6767 L 29.6585,-92.7035 L 29.8289,-92.7196 L 30,-92.725 L 30.1711,-92.7196
 L 30.3415,-92.7035 L 30.5106,-92.6767 L 30.6777,-92.6394 L 30.8421,-92.5916 L 31.0031,-92.5336 L 31.1602,-92.4657
 L 31.3128,-92.3879 L 31.4601,-92.3008 L 31.6017,-92.2046 L 31.725,-92.1089 L 31.725,-87.8911 L 31.6017,-87.7954
 L 31.4601,-87.6992 L 31.3128,-87.6121 L 31.1602,-87.5343 L 31.0031,-87.4664 L 30.8421,-87.4084 L 30.6777,-87.3606
 L 30.5106,-87.3233 L 30.3415,-87.2965 L 30.1711,-87.2804 L 30,-87.275 z
M 99.8289,-87.2804 L 99.6585,-87.2965 L 99.4894,-87.3233 L 99.3223,-87.3606 L 99.1579,-87.4084 L 98.9969,-87.4664
 L 98.8398,-87.5343 L 98.6872,-87.6121 L 98.5399,-87.6992 L 98.3983,-87.7954 L 98.263,-87.9004 L 98.1346,-88.0136
 L 98.1,-88.0482 L 98.1,-91.9518 L 98.1346,-91.9864 L 98.263,-92.0996 L 98.3983,-92.2046 L 98.5399,-92.3008
 L 98.6872,-92.3879 L 98.8398,-92.4657 L 98.9969,-92.5336 L 99.1579,-92.5916 L 99.3223,-92.6394 L 99.4894,-92.6767
 L 99.6585,-92.7035 L 99.8289,-92.7196 L 100,-92.725 L 100.171,-92.7196 L 100.342,-92.7035 L 100.511,-92.6767
 L 100.678,-92.6394 L 100.842,-92.5916 L 101.003,-92.5336 L 101.16,-92.4657 L 101.313,-92.3879 L 101.46,-92.3008
 L 101.602,-92.2046 L 101.737,-92.0996 L 101.865,-91.9864 L 101.9,-91.9518 L 101.9,-88.0482 L 101.865,-88.0136
 L 101.737,-87.9004 L 101.602,-87.7954 L 101.46,-87.6992 L 101.313,-87.6121 L 101.16,-87.5343 L 101.003,-87.4664
 L 100.842,-87.4084 L 100.678,-87.3606 L 100.511,-87.3233 L 100.342,-87.2965 L 100.171,-87.2804 L 100,-87.275
 z
M 39.8289,-87.2804 L 39.6585,-87.2965 L 39.4894,-87.3233 L 39.3223,-87.3606 L 39.1579,-87.4084 L 38.9969,-87.4664
 L 38.8398,-87.5343 L 38.6872,-87.6121 L 38.5399,-87.6992 L 38.3983,-87.7954 L 38.25,-87.9118 L 38.25,-92.0882
 L 38.3983,-92.2046 L 38.5399,-92.3008 L 38.6872,-92.3879 L 38.8398,-92.4657 L 38.9969,-92.5336 L 39.1579,-92.5916
 L 39.3223,-92.6394 L 39.4894,-92.6767 L 39.6585,-92.7035 L 39.8289,-92.7196 L 40,-92.725 L 40.1711,-92.7196
 L 40.3415,-92.7035 L 40.5106,-92.6767 L 40.6777,-92.6394 L 40.8421,-92.5916 L 41.0031,-92.5336 L 41.1602,-92.4657
 L 41.3128,-92.3879 L 41.4601,-92.3008 L 41.6017,-92.2046 L 41.75,-92.0882 L 41.75,-87.9118 L 41.6017,-87.7954
 L 41.4601,-87.6992 L 41.3128,-87.6121 L 41.1602,-87.5343 L 41.0031,-87.4664 L 40.8421,-87.4084 L 40.6777,-87.3606
 L 40.5106,-87.3233 L 40.3415,-87.2965 L 40.1711,-87.2804 L 40,-87.275 z
M 49.8289,-87.2804 L 49.6585,-87.2965 L 49.4894,-87.3233 L 49.3223,-87.3606 L 49.1579,-87.4084 L 48.9969,-87.4664
 L 48.8398,-87.5343 L 48.6872,-87.6121 L 48.5399,-87.6992 L 48.3983,-87.7954 L 48.263,-87.9004 L 48.225,-87.9339
 L 48.225,-92.0661 L 48.263,-92.0996 L 48.3983,-92.2046 L 48.5399,-92.3008 L 48.6872,-92.3879 L 48.8398,-92.4657
 L 48.9969,-92.5336 L 49.1579,-92.5916 L 49.3223,-92.6394 L 49.4894,-92.6767 L 49.6585,-92.7035 L 49.8289,-92.7196
 L 50,-92.725 L 50.1711,-92.7196 L 50.3415,-92.7035 L 50.5106,-92.6767 L 50.6777,-92.6394 L 50.8421,-92.5916
 L 51.0031,-92.5336 L 51.1602,-92.4657 L 51.3128,-92.3879 L 51.4601,-92.3008 L 51.6017,-92.2046 L 51.737,-92.0996
 L 51.775,-92.0661 L 51.775,-87.9339 L 51.737,-87.9004 L 51.6017,-87.7954 L 51.4601,-87.6992 L 51.3128,-87.6121
 L 51.1602,-87.5343 L 51.0031,-87.4664 L 50.8421,-87.4084 L 50.6777,-87.3606 L 50.5106,-87.3233 L 50.3415,-87.2965
 L 50.1711,-87.2804 L 50,-87.275 z
M 89.8289,-87.2804 L 89.6585,-87.2965 L 89.4894,-87.3233 L 89.3223,-87.3606 L 89.1579,-87.4084 L 88.9969,-87.4664
 L 88.8398,-87.5343 L 88.6872,-87.6121 L 88.5399,-87.6992 L 88.3983,-87.7954 L 88.263,-87.9004 L 88.125,-88.0232
 L 88.125,-91.9768 L 88.263,-92.0996 L 88.3983,-92.2046 L 88.5399,-92.3008 L 88.6872,-92.3879 L 88.8398,-92.4657
 L 88.9969,-92.5336 L 89.1579,-92.5916 L 89.3223,-92.6394 L 89.4894,-92.6767 L 89.6585,-92.7035 L 89.8289,-92.7196
 L 90,-92.725 L 90.1711,-92.7196 L 90.3415,-92.7035 L 90.5106,-92.6767 L 90.6777,-92.6394 L 90.8421,-92.5916
 L 91.0031,-92.5336 L 91.1602,-92.4657 L 91.3128,-92.3879 L 91.4601,-92.3008 L 91.6017,-92.2046 L 91.737,-92.0996
 L 91.875,-91.9768 L 91.875,-88.0232 L 91.737,-87.9004 L 91.6017,-87.7954 L 91.4601,-87.6992 L 91.3128,-87.6121
 L 91.1602,-87.5343 L 91.0031,-87.4664 L 90.8421,-87.4084 L 90.6777,-87.3606 L 90.5106,-87.3233 L 90.3415,-87.2965
 L 90.1711,-87.2804 L 90,-87.275 z
M 59.8289,-87.2804 L 59.6585,-87.2965 L 59.4894,-87.3233 L 59.3223,-87.3606 L 59.1579,-87.4084 L 58.9969,-87.4664
 L 58.8398,-87.5343 L 58.6872,-87.6121 L 58.5399,-87.6992 L 58.3983,-87.7954 L 58.263,-87.9004 L 58.2,-87.9559
 L 58.2,-92.0441 L 58.263,-92.0996 L 58.3983,-92.2046 L 58.5399,-92.3008 L 58.6872,-92.3879 L 58.8398,-92.4657
 L 58.9969,-92.5336 L 59.1579,-92.5916 L 59.3223,-92.6394 L 59.4894,-92.6767 L 59.6585,-92.7035 L 59.8289,-92.7196
 L 60,-92.725 L 60.1711,-92.7196 L 60.3415,-92.7035 L 60.5106,-92.6767 L 60.6777,-92.6394 L 60.8421,-92.5916
 L 61.0031,-92.5336 L 61.1602,-92.4657 L 61.3128,-92.3879 L 61.4601,-92.3008 L 61.6017,-92.2046 L 61.737,-92.0996
 L 61.8,-92.0441 L 61.8,-87.9559 L 61.737,-87.9004 L 61.6017,-87.7954 L 61.4601,-87.6992 L 61.3128,-87.6121
 L 61.1602,-87.5343 L 61.0031,-87.4664 L 60.8421,-87.4084 L 60.6777,-87.3606 L 60.5106,-87.3233 L 60.3415,-87.2965
 L 60.1711,-87.2804 L 60,-87.275 z
M 69.8289,-87.2804 L 69.6585,-87.2965 L 69.4894,-87.3233 L 69.3223,-87.3606 L 69.1579,-87.4084 L 68.9969,-87.4664
 L 68.8398,-87.5343 L 68.6872,-87.6121 L 68.5399,-87.6992 L 68.3983,-87.7954 L 68.263,-87.9004 L 68.175,-87.978
 L 68.175,-92.022 L 68.263,-92.0996 L 68.3983,-92.2046 L 68.5399,-92.3008 L 68.6872,-92.3879 L 68.8398,-92.4657
 L 68.9969,-92.5336 L 69.1579,-92.5916 L 69.3223,-92.6394 L 69.4894,-92.6767 L 69.6585,-92.7035 L 69.8289,-92.7196
 L 70,-92.725 L 70.1711,-92.7196 L 70.3415,-92.7035 L 70.5106,-92.6767 L 70.6777,-92.6394 L 70.8421,-92.5916
 L 71.0031,-92.5336 L 71.1602,-92.4657 L 71.3128,-92.3879 L 71.4601,-92.3008 L 71.6017,-92.2046 L 71.737,-92.0996
 L 71.825,-92.022 L 71.825,-87.978 L 71.737,-87.9004 L 71.6017,-87.7954 L 71.4601,-87.6992 L 71.3128,-87.6121
 L 71.1602,-87.5343 L 71.0031,-87.4664 L 70.8421,-87.4084 L 70.6777,-87.3606 L 70.5106,-87.3233 L 70.3415,-87.2965
 L 70.1711,-87.2804 L 70,-87.275 z
M 79.8289,-87.2804 L 79.6585,-87.2965 L 79.4894,-87.3233 L 79.3223,-87.3606 L 79.1579,-87.4084 L 78.9969,-87.4664
 L 78.8398,-87.5343 L 78.6872,-87.6121 L 78.5399,-87.6992 L 78.3983,-87.7954 L 78.263,-87.9004 L 78.15,-88
 L 78.15,-92 L 78.263,-92.0996 L 78.3983,-92.2046 L 78.5399,-92.3008 L 78.6872,-92.3879 L 78.8398,-92.4657
 L 78.9969,-92.5336 L 79.1579,-92.5916 L 79.3223,-92.6394 L 79.4894,-92.6767 L 79.6585,-92.7035 L 79.8289,-92.7196
 L 80,-92.725 L 80.1711,-92.7196 L 80.3415,-92.7035 L 80.5106,-92.6767 L 80.6777,-92.6394 L 80.8421,-92.5916
 L 81.0031,-92.5336 L 81.1602,-92.4657 L 81.3128,-92.3879 L 81.4601,-92.3008 L 81.6017,-92.2046 L 81.737,-92.0996
 L 81.85,-92 L 81.85,-88 L 81.737,-87.9004 L 81.6017,-87.7954 L 81.4601,-87.6992 L 81.3128,-87.6121
 L 81.1602,-87.5343 L 81.0031,-87.4664 L 80.8421,-87.4084 L 80.6777,-87.3606 L 80.5106,-87.3233 L 80.3415,-87.2965
 L 80.1711,-87.2804 L 80,-87.275 z
M 79.8305,-77.3053 L 79.6616,-77.3213 L 79.4941,-77.3478 L 79.3286,-77.3848 L 79.1657,-77.4322 L 79.0061,-77.4896
 L 78.8504,-77.557 L 78.6993,-77.634 L 78.5533,-77.7203 L 78.413,-77.8157 L 78.279,-77.9196 L 78.15,-78.0335
 L 78.15,-81.9665 L 78.279,-82.0804 L 78.413,-82.1843 L 78.5533,-82.2797 L 78.6993,-82.366 L 78.8504,-82.443
 L 79.0061,-82.5104 L 79.1657,-82.5678 L 79.3286,-82.6152 L 79.4941,-82.6522 L 79.6616,-82.6787 L 79.8305,-82.6947
 L 80,-82.7 L 80.1695,-82.6947 L 80.3384,-82.6787 L 80.5059,-82.6522 L 80.6714,-82.6152 L 80.8343,-82.5678
 L 80.9939,-82.5104 L 81.1496,-82.443 L 81.3007,-82.366 L 81.4467,-82.2797 L 81.587,-82.1843 L 81.721,-82.0804
 L 81.85,-81.9665 L 81.85,-78.0335 L 81.721,-77.9196 L 81.587,-77.8157 L 81.4467,-77.7203 L 81.3007,-77.634
 L 81.1496,-77.557 L 80.9939,-77.4896 L 80.8343,-77.4322 L 80.6714,-77.3848 L 80.5059,-77.3478 L 80.3384,-77.3213
 L 80.1695,-77.3053 L 80,-77.3 z
M 59.8305,-77.3053 L 59.6616,-77.3213 L 59.4941,-77.3478 L 59.3286,-77.3848 L 59.1657,-77.4322 L 59.0061,-77.4896
 L 58.8504,-77.557 L 58.6993,-77.634 L 58.5533,-77.7203 L 58.413,-77.8157 L 58.279,-77.9196 L 58.2,-77.9892
 L 58.2,-82.0108 L 58.279,-82.0804 L 58.413,-82.1843 L 58.5533,-82.2797 L 58.6993,-82.366 L 58.8504,-82.443
 L 59.0061,-82.5104 L 59.1657,-82.5678 L 59.3286,-82.6152 L 59.4941,-82.6522 L 59.6616,-82.6787 L 59.8305,-82.6947
 L 60,-82.7 L 60.1695,-82.6947 L 60.3384,-82.6787 L 60.5059,-82.6522 L 60.6714,-82.6152 L 60.8343,-82.5678
 L 60.9939,-82.5104 L 61.1496,-82.443 L 61.3007,-82.366 L 61.4467,-82.2797 L 61.587,-82.1843 L 61.721,-82.0804
 L 61.8,-82.0108 L 61.8,-77.9892 L 61.721,-77.9196 L 61.587,-77.8157 L 61.4467,-77.7203 L 61.3007,-77.634
 L 61.1496,-77.557 L 60.9939,-77.4896 L 60.8343,-77.4322 L 60.6714,-77.3848 L 60.5059,-77.3478 L 60.3384,-77.3213
 L 60.1695,-77.3053 L 60,-77.3 z
M 29.8305,-77.3053 L 29.6616,-77.3213 L 29.4941,-77.3478 L 29.3286,-77.3848 L 29.1657,-77.4322 L 29.0061,-77.4896
 L 28.8504,-77.557 L 28.6993,-77.634 L 28.5533,-77.7203 L 28.413,-77.8157 L 28.275,-77.9231 L 28.275,-82.0769
 L 28.413,-82.1843 L 28.5533,-82.2797 L 28.6993,-82.366 L 28.8504,-82.443 L 29.0061,-82.5104 L 29.1657,-82.5678
 L 29.3286,-82.6152 L 29.4941,-82.6522 L 29.6616,-82.6787 L 29.8305,-82.6947 L 30,-82.7 L 30.1695,-82.6947
 L 30.3384,-82.6787 L 30.5059,-82.6522 L 30.6714,-82.6152 L 30.8343,-82.5678 L 30.9939,-82.5104 L 31.1496,-82.443
 L 31.3007,-82.366 L 31.4467,-82.2797 L 31.587,-82.1843 L 31.725,-82.0769 L 31.725,-77.9231 L 31.587,-77.8157
 L 31.4467,-77.7203 L 31.3007,-77.634 L 31.1496,-77.557 L 30.9939,-77.4896 L 30.8343,-77.4322 L 30.6714,-77.3848
 L 30.5059,-77.3478 L 30.3384,-77.3213 L 30.1695,-77.3053 L 30,-77.3 z
M 99.8305,-77.3053 L 99.6616,-77.3213 L 99.4941,-77.3478 L 99.3286,-77.3848 L 99.1657,-77.4322 L 99.0061,-77.4896
 L 98.8504,-77.557 L 98.6993,-77.634 L 98.5533,-77.7203 L 98.413,-77.8157 L 98.279,-77.9196 L 98.1517,-78.0318
 L 98.1,-78.0835 L 98.1,-81.9165 L 98.1517,-81.9682 L 98.279,-82.0804 L 98.413,-82.1843 L 98.5533,-82.2797
 L 98.6993,-82.366 L 98.8504,-82.443 L 99.0061,-82.5104 L 99.1657,-82.5678 L 99.3286,-82.6152 L 99.4941,-82.6522
 L 99.6616,-82.6787 L 99.8305,-82.6947 L 100,-82.7 L 100.17,-82.6947 L 100.338,-82.6787 L 100.506,-82.6522
 L 100.671,-82.6152 L 100.834,-82.5678 L 100.994,-82.5104 L 101.15,-82.443 L 101.301,-82.366 L 101.447,-82.2797
 L 101.587,-82.1843 L 101.721,-82.0804 L 101.848,-81.9682 L 101.9,-81.9165 L 101.9,-78.0835 L 101.848,-78.0318
 L 101.721,-77.9196 L 101.587,-77.8157 L 101.447,-77.7203 L 101.301,-77.634 L 101.15,-77.557 L 100.994,-77.4896
 L 100.834,-77.4322 L 100.671,-77.3848 L 100.506,-77.3478 L 100.338,-77.3213 L 100.17,-77.3053 L 100,-77.3
 z
M 89.8305,-77.3053 L 89.6616,-77.3213 L 89.4941,-77.3478 L 89.3286,-77.3848 L 89.1657,-77.4322 L 89.0061,-77.4896
 L 88.8504,-77.557 L 88.6993,-77.634 L 88.5533,-77.7203 L 88.413,-77.8157 L 88.279,-77.9196 L 88.1517,-78.0318
 L 88.125,-78.0585 L 88.125,-81.9415 L 88.1517,-81.9682 L 88.279,-82.0804 L 88.413,-82.1843 L 88.5533,-82.2797
 L 88.6993,-82.366 L 88.8504,-82.443 L 89.0061,-82.5104 L 89.1657,-82.5678 L 89.3286,-82.6152 L 89.4941,-82.6522
 L 89.6616,-82.6787 L 89.8305,-82.6947 L 90,-82.7 L 90.1695,-82.6947 L 90.3384,-82.6787 L 90.5059,-82.6522
 L 90.6714,-82.6152 L 90.8343,-82.5678 L 90.9939,-82.5104 L 91.1496,-82.443 L 91.3007,-82.366 L 91.4467,-82.2797
 L 91.587,-82.1843 L 91.721,-82.0804 L 91.8483,-81.9682 L 91.875,-81.9415 L 91.875,-78.0585 L 91.8483,-78.0318
 L 91.721,-77.9196 L 91.587,-77.8157 L 91.4467,-77.7203 L 91.3007,-77.634 L 91.1496,-77.557 L 90.9939,-77.4896
 L 90.8343,-77.4322 L 90.6714,-77.3848 L 90.5059,-77.3478 L 90.3384,-77.3213 L 90.1695,-77.3053 L 90,-77.3
 z
M 39.8305,-77.3053 L 39.6616,-77.3213 L 39.4941,-77.3478 L 39.3286,-77.3848 L 39.1657,-77.4322 L 39.0061,-77.4896
 L 38.8504,-77.557 L 38.6993,-77.634 L 38.5533,-77.7203 L 38.413,-77.8157 L 38.279,-77.9196 L 38.25,-77.9452
 L 38.25,-82.0548 L 38.279,-82.0804 L 38.413,-82.1843 L 38.5533,-82.2797 L 38.6993,-82.366 L 38.8504,-82.443
 L 39.0061,-82.5104 L 39.1657,-82.5678 L 39.3286,-82.6152 L 39.4941,-82.6522 L 39.6616,-82.6787 L 39.8305,-82.6947
 L 40,-82.7 L 40.1695,-82.6947 L 40.3384,-82.6787 L 40.5059,-82.6522 L 40.6714,-82.6152 L 40.8343,-82.5678
 L 40.9939,-82.5104 L 41.1496,-82.443 L 41.3007,-82.366 L 41.4467,-82.2797 L 41.587,-82.1843 L 41.721,-82.0804
 L 41.75,-82.0548 L 41.75,-77.9452 L 41.721,-77.9196 L 41.587,-77.8157 L 41.4467,-77.7203 L 41.3007,-77.634
 L 41.1496,-77.557 L 40.9939,-77.4896 L 40.8343,-77.4322 L 40.6714,-77.3848 L 40.5059,-77.3478 L 40.3384,-77.3213
 L 40.1695,-77.3053 L 40,-77.3 z
M 69.8305,-77.3053 L 69.6616,-77.3213 L 69.4941,-77.3478 L 69.3286,-77.3848 L 69.1657,-77.4322 L 69.0061,-77.4896
 L 68.8504,-77.557 L 68.6993,-77.634 L 68.5533,-77.7203 L 68.413,-77.8157 L 68.279,-77.9196 L 68.175,-78.0113
 L 68.175,-81.9887 L 68.279,-82.0804 L 68.413,-82.1843 L 68.5533,-82.2797 L 68.6993,-82.366 L 68.8504,-82.443
 L 69.0061,-82.5104 L 69.1657,-82.5678 L 69.3286,-82.6152 L 69.4941,-82.6522 L 69.6616,-82.6787 L 69.8305,-82.6947
 L 70,-82.7 L 70.1695,-82.6947 L 70.3384,-82.6787 L 70.5059,-82.6522 L 70.6714,-82.6152 L 70.8343,-82.5678
 L 70.9939,-82.5104 L 71.1496,-82.443 L 71.3007,-82.366 L 71.4467,-82.2797 L 71.587,-82.1843 L 71.721,-82.0804
 L 71.825,-81.9887 L 71.825,-78.0113 L 71.721,-77.9196 L 71.587,-77.8157 L 71.4467,-77.7203 L 71.3007,-77.634
 L 71.1496,-77.557 L 70.9939,-77.4896 L 70.8343,-77.4322 L 70.6714,-77.3848 L 70.5059,-77.3478 L 70.3384,-77.3213
 L 70.1695,-77.3053 L 70,-77.3 z
M 9.83047,-77.3053 L 9.66161,-77.3213 L 9.49408,-77.3478 L 9.32855,-77.3848 L 9.16566,-77.4322 L 9.00607,-77.4896
 L 8.8504,-77.557 L 8.69928,-77.634 L 8.55327,-77.7203 L 8.41299,-77.8157 L 8.32501,-77.8839 L 8.32501,-82.1161
 L 8.41299,-82.1843 L 8.55327,-82.2797 L 8.69928,-82.366 L 8.8504,-82.443 L 9.00607,-82.5104 L 9.16566,-82.5678
 L 9.32855,-82.6152 L 9.49408,-82.6522 L 9.66161,-82.6787 L 9.83047,-82.6947 L 10,-82.7 L 10.1695,-82.6947
 L 10.3384,-82.6787 L 10.5059,-82.6522 L 10.6714,-82.6152 L 10.8343,-82.5678 L 10.9939,-82.5104 L 11.1496,-82.443
 L 11.3007,-82.366 L 11.4467,-82.2797 L 11.587,-82.1843 L 11.675,-82.1161 L 11.675,-77.8839 L 11.587,-77.8157
 L 11.4467,-77.7203 L 11.3007,-77.634 L 11.1496,-77.557 L 10.9939,-77.4896 L 10.8343,-77.4322 L 10.6714,-77.3848
 L 10.5059,-77.3478 L 10.3384,-77.3213 L 10.1695,-77.3053 L 10,-77.3 z
M 49.8305,-77.3053 L 49.6616,-77.3213 L 49.4941,-77.3478 L 49.3286,-77.3848 L 49.1657,-77.4322 L 49.0061,-77.4896
 L 48.8504,-77.557 L 48.6993,-77.634 L 48.5533,-77.7203 L 48.413,-77.8157 L 48.279,-77.9196 L 48.225,-77.9672
 L 48.225,-82.0328 L 48.279,-82.0804 L 48.413,-82.1843 L 48.5533,-82.2797 L 48.6993,-82.366 L 48.8504,-82.443
 L 49.0061,-82.5104 L 49.1657,-82.5678 L 49.3286,-82.6152 L 49.4941,-82.6522 L 49.6616,-82.6787 L 49.8305,-82.6947
 L 50,-82.7 L 50.1695,-82.6947 L 50.3384,-82.6787 L 50.5059,-82.6522 L 50.6714,-82.6152 L 50.8343,-82.5678
 L 50.9939,-82.5104 L 51.1496,-82.443 L 51.3007,-82.366 L 51.4467,-82.2797 L 51.587,-82.1843 L 51.721,-82.0804
 L 51.775,-82.0328 L 51.775,-77.9672 L 51.721,-77.9196 L 51.587,-77.8157 L 51.4467,-77.7203 L 51.3007,-77.634
 L 51.1496,-77.557 L 50.9939,-77.4896 L 50.8343,-77.4322 L 50.6714,-77.3848 L 50.5059,-77.3478 L 50.3384,-77.3213
 L 50.1695,-77.3053 L 50,-77.3 z
M 19.8305,-77.3053 L 19.6616,-77.3213 L 19.4941,-77.3478 L 19.3286,-77.3848 L 19.1657,-77.4322 L 19.0061,-77.4896
 L 18.8504,-77.557 L 18.6993,-77.634 L 18.5533,-77.7203 L 18.413,-77.8157 L 18.3,-77.9033 L 18.3,-82.0967
 L 18.413,-82.1843 L 18.5533,-82.2797 L 18.6993,-82.366 L 18.8504,-82.443 L 19.0061,-82.5104 L 19.1657,-82.5678
 L 19.3286,-82.6152 L 19.4941,-82.6522 L 19.6616,-82.6787 L 19.8305,-82.6947 L 20,-82.7 L 20.1695,-82.6947
 L 20.3384,-82.6787 L 20.5059,-82.6522 L 20.6714,-82.6152 L 20.8343,-82.5678 L 20.9939,-82.5104 L 21.1496,-82.443
 L 21.3007,-82.366 L 21.4467,-82.2797 L 21.587,-82.1843 L 21.7,-82.0967 L 21.7,-77.9033 L 21.587,-77.8157
 L 21.4467,-77.7203 L 21.3007,-77.634 L 21.1496,-77.557 L 20.9939,-77.4896 L 20.8343,-77.4322 L 20.6714,-77.3848
 L 20.5059,-77.3478 L 20.3384,-77.3213 L 20.1695,-77.3053 L 20,-77.3 z
M 69.832,-67.3303 L 69.6647,-67.3461 L 69.4988,-67.3724 L 69.3348,-67.409 L 69.1734,-67.4559 L 69.0153,-67.5128
 L 68.8611,-67.5796 L 68.7113,-67.6559 L 68.5667,-67.7414 L 68.4277,-67.8359 L 68.2949,-67.9389 L 68.175,-68.0446
 L 68.175,-71.9554 L 68.2949,-72.0611 L 68.4277,-72.1641 L 68.5667,-72.2586 L 68.7113,-72.3441 L 68.8611,-72.4204
 L 69.0153,-72.4872 L 69.1734,-72.5441 L 69.3348,-72.591 L 69.4988,-72.6276 L 69.6647,-72.6539 L 69.832,-72.6697
 L 70,-72.675 L 70.168,-72.6697 L 70.3353,-72.6539 L 70.5012,-72.6276 L 70.6652,-72.591 L 70.8266,-72.5441
 L 70.9847,-72.4872 L 71.1389,-72.4204 L 71.2887,-72.3441 L 71.4333,-72.2586 L 71.5723,-72.1641 L 71.7051,-72.0611
 L 71.825,-71.9554 L 71.825,-68.0446 L 71.7051,-67.9389 L 71.5723,-67.8359 L 71.4333,-67.7414 L 71.2887,-67.6559
 L 71.1389,-67.5796 L 70.9847,-67.5128 L 70.8266,-67.4559 L 70.6652,-67.409 L 70.5012,-67.3724 L 70.3353,-67.3461
 L 70.168,-67.3303 L 70,-67.325 z
M 89.832,-67.3303 L 89.6647,-67.3461 L 89.4988,-67.3724 L 89.3348,-67.409 L 89.1734,-67.4559 L 89.0153,-67.5128
 L 88.8611,-67.5796 L 88.7113,-67.6559 L 88.5667,-67.7414 L 88.4277,-67.8359 L 88.2949,-67.9389 L 88.1688,-68.05
 L 88.125,-68.0939 L 88.125,-71.9061 L 88.1688,-71.95 L 88.2949,-72.0611 L 88.4277,-72.1641 L 88.5667,-72.2586
 L 88.7113,-72.3441 L 88.8611,-72.4204 L 89.0153,-72.4872 L 89.1734,-72.5441 L 89.3348,-72.591 L 89.4988,-72.6276
 L 89.6647,-72.6539 L 89.832,-72.6697 L 90,-72.675 L 90.168,-72.6697 L 90.3353,-72.6539 L 90.5012,-72.6276
 L 90.6652,-72.591 L 90.8266,-72.5441 L 90.9847,-72.4872 L 91.1389,-72.4204 L 91.2887,-72.3441 L 91.4333,-72.2586
 L 91.5723,-72.1641 L 91.7051,-72.0611 L 91.8312,-71.95 L 91.875,-71.9061 L 91.875,-68.0939 L 91.8312,-68.05
 L 91.7051,-67.9389 L 91.5723,-67.8359 L 91.4333,-67.7414 L 91.2887,-67.6559 L 91.1389,-67.5796 L 90.9847,-67.5128
 L 90.8266,-67.4559 L 90.6652,-67.409 L 90.5012,-67.3724 L 90.3353,-67.3461 L 90.168,-67.3303 L 90,-67.325
 z
M 59.832,-67.3303 L 59.6647,-67.3461 L 59.4988,-67.3724 L 59.3348,-67.409 L 59.1734,-67.4559 L 59.0153,-67.5128
 L 58.8611,-67.5796 L 58.7113,-67.6559 L 58.5667,-67.7414 L 58.4277,-67.8359 L 58.2949,-67.9389 L 58.2,-68.0225
 L 58.2,-71.9775 L 58.2949,-72.0611 L 58.4277,-72.1641 L 58.5667,-72.2586 L 58.7113,-72.3441 L 58.8611,-72.4204
 L 59.0153,-72.4872 L 59.1734,-72.5441 L 59.3348,-72.591 L 59.4988,-72.6276 L 59.6647,-72.6539 L 59.832,-72.6697
 L 60,-72.675 L 60.168,-72.6697 L 60.3353,-72.6539 L 60.5012,-72.6276 L 60.6652,-72.591 L 60.8266,-72.5441
 L 60.9847,-72.4872 L 61.1389,-72.4204 L 61.2887,-72.3441 L 61.4333,-72.2586 L 61.5723,-72.1641 L 61.7051,-72.0611
 L 61.8,-71.9775 L 61.8,-68.0225 L 61.7051,-67.9389 L 61.5723,-67.8359 L 61.4333,-67.7414 L 61.2887,-67.6559
 L 61.1389,-67.5796 L 60.9847,-67.5128 L 60.8266,-67.4559 L 60.6652,-67.409 L 60.5012,-67.3724 L 60.3353,-67.3461
 L 60.168,-67.3303 L 60,-67.325 z
M 29.832,-67.3303 L 29.6647,-67.3461 L 29.4988,-67.3724 L 29.3348,-67.409 L 29.1734,-67.4559 L 29.0153,-67.5128
 L 28.8611,-67.5796 L 28.7113,-67.6559 L 28.5667,-67.7414 L 28.4277,-67.8359 L 28.2949,-67.9389 L 28.275,-67.9564
 L 28.275,-72.0436 L 28.2949,-72.0611 L 28.4277,-72.1641 L 28.5667,-72.2586 L 28.7113,-72.3441 L 28.8611,-72.4204
 L 29.0153,-72.4872 L 29.1734,-72.5441 L 29.3348,-72.591 L 29.4988,-72.6276 L 29.6647,-72.6539 L 29.832,-72.6697
 L 30,-72.675 L 30.168,-72.6697 L 30.3353,-72.6539 L 30.5012,-72.6276 L 30.6652,-72.591 L 30.8266,-72.5441
 L 30.9847,-72.4872 L 31.1389,-72.4204 L 31.2887,-72.3441 L 31.4333,-72.2586 L 31.5723,-72.1641 L 31.7051,-72.0611
 L 31.725,-72.0436 L 31.725,-67.9564 L 31.7051,-67.9389 L 31.5723,-67.8359 L 31.4333,-67.7414 L 31.2887,-67.6559
 L 31.1389,-67.5796 L 30.9847,-67.5128 L 30.8266,-67.4559 L 30.6652,-67.409 L 30.5012,-67.3724 L 30.3353,-67.3461
 L 30.168,-67.3303 L 30,-67.325 z
M 39.832,-67.3303 L 39.6647,-67.3461 L 39.4988,-67.3724 L 39.3348,-67.409 L 39.1734,-67.4559 L 39.0153,-67.5128
 L 38.8611,-67.5796 L 38.7113,-67.6559 L 38.5667,-67.7414 L 38.4277,-67.8359 L 38.2949,-67.9389 L 38.25,-67.9785
 L 38.25,-72.0215 L 38.2949,-72.0611 L 38.4277,-72.1641 L 38.5667,-72.2586 L 38.7113,-72.3441 L 38.8611,-72.4204
 L 39.0153,-72.4872 L 39.1734,-72.5441 L 39.3348,-72.591 L 39.4988,-72.6276 L 39.6647,-72.6539 L 39.832,-72.6697
 L 40,-72.675 L 40.168,-72.6697 L 40.3353,-72.6539 L 40.5012,-72.6276 L 40.6652,-72.591 L 40.8266,-72.5441
 L 40.9847,-72.4872 L 41.1389,-72.4204 L 41.2887,-72.3441 L 41.4333,-72.2586 L 41.5723,-72.1641 L 41.7051,-72.0611
 L 41.75,-72.0215 L 41.75,-67.9785 L 41.7051,-67.9389 L 41.5723,-67.8359 L 41.4333,-67.7414 L 41.2887,-67.6559
 L 41.1389,-67.5796 L 40.9847,-67.5128 L 40.8266,-67.4559 L 40.6652,-67.409 L 40.5012,-67.3724 L 40.3353,-67.3461
 L 40.168,-67.3303 L 40,-67.325 z
M 79.832,-67.3303 L 79.6647,-67.3461 L 79.4988,-67.3724 L 79.3348,-67.409 L 79.1734,-67.4559 L 79.0153,-67.5128
 L 78.8611,-67.5796 L 78.7113,-67.6559 L 78.5667,-67.7414 L 78.4277,-67.8359 L 78.2949,-67.9389 L 78.1688,-68.05
 L 78.15,-68.0688 L 78.15,-71.9312 L 78.1688,-71.95 L 78.2949,-72.0611 L 78.4277,-72.1641 L 78.5667,-72.2586
 L 78.7113,-72.3441 L 78.8611,-72.4204 L 79.0153,-72.4872 L 79.1734,-72.5441 L 79.3348,-72.591 L 79.4988,-72.6276
 L 79.6647,-72.6539 L 79.832,-72.6697 L 80,-72.675 L 80.168,-72.6697 L 80.3353,-72.6539 L 80.5012,-72.6276
 L 80.6652,-72.591 L 80.8266,-72.5441 L 80.9847,-72.4872 L 81.1389,-72.4204 L 81.2887,-72.3441 L 81.4333,-72.2586
 L 81.5723,-72.1641 L 81.7051,-72.0611 L 81.8312,-71.95 L 81.85,-71.9312 L 81.85,-68.0688 L 81.8312,-68.05
 L 81.7051,-67.9389 L 81.5723,-67.8359 L 81.4333,-67.7414 L 81.2887,-67.6559 L 81.1389,-67.5796 L 80.9847,-67.5128
 L 80.8266,-67.4559 L 80.6652,-67.409 L 80.5012,-67.3724 L 80.3353,-67.3461 L 80.168,-67.3303 L 80,-67.325
 z
M 9.83205,-67.3303 L 9.66473,-67.3461 L 9.49876,-67.3724 L 9.33476,-67.409 L 9.17339,-67.4559 L 9.01527,-67.5128
 L 8.86105,-67.5796 L 8.71132,-67.6559 L 8.56667,-67.7414 L 8.42769,-67.8359 L 8.32501,-67.9155 L 8.32501,-72.0845
 L 8.42769,-72.1641 L 8.56667,-72.2586 L 8.71132,-72.3441 L 8.86105,-72.4204 L 9.01527,-72.4872 L 9.17339,-72.5441
 L 9.33476,-72.591 L 9.49876,-72.6276 L 9.66473,-72.6539 L 9.83205,-72.6697 L 10,-72.675 L 10.168,-72.6697
 L 10.3353,-72.6539 L 10.5012,-72.6276 L 10.6652,-72.591 L 10.8266,-72.5441 L 10.9847,-72.4872 L 11.1389,-72.4204
 L 11.2887,-72.3441 L 11.4333,-72.2586 L 11.5723,-72.1641 L 11.675,-72.0845 L 11.675,-67.9155 L 11.5723,-67.8359
 L 11.4333,-67.7414 L 11.2887,-67.6559 L 11.1389,-67.5796 L 10.9847,-67.5128 L 10.8266,-67.4559 L 10.6652,-67.409
 L 10.5012,-67.3724 L 10.3353,-67.3461 L 10.168,-67.3303 L 10,-67.325 z
M 19.832,-67.3303 L 19.6647,-67.3461 L 19.4988,-67.3724 L 19.3348,-67.409 L 19.1734,-67.4559 L 19.0153,-67.5128
 L 18.8611,-67.5796 L 18.7113,-67.6559 L 18.5667,-67.7414 L 18.4277,-67.8359 L 18.3,-67.9349 L 18.3,-72.0651
 L 18.4277,-72.1641 L 18.5667,-72.2586 L 18.7113,-72.3441 L 18.8611,-72.4204 L 19.0153,-72.4872 L 19.1734,-72.5441
 L 19.3348,-72.591 L 19.4988,-72.6276 L 19.6647,-72.6539 L 19.832,-72.6697 L 20,-72.675 L 20.168,-72.6697
 L 20.3353,-72.6539 L 20.5012,-72.6276 L 20.6652,-72.591 L 20.8266,-72.5441 L 20.9847,-72.4872 L 21.1389,-72.4204
 L 21.2887,-72.3441 L 21.4333,-72.2586 L 21.5723,-72.1641 L 21.7,-72.0651 L 21.7,-67.9349 L 21.5723,-67.8359
 L 21.4333,-67.7414 L 21.2887,-67.6559 L 21.1389,-67.5796 L 20.9847,-67.5128 L 20.8266,-67.4559 L 20.6652,-67.409
 L 20.5012,-67.3724 L 20.3353,-67.3461 L 20.168,-67.3303 L 20,-67.325 z
M 49.832,-67.3303 L 49.6647,-67.3461 L 49.4988,-67.3724 L 49.3348,-67.409 L 49.1734,-67.4559 L 49.0153,-67.5128
 L 48.8611,-67.5796 L 48.7113,-67.6559 L 48.5667,-67.7414 L 48.4277,-67.8359 L 48.2949,-67.9389 L 48.225,-68.0005
 L 48.225,-71.9995 L 48.2949,-72.0611 L 48.4277,-72.1641 L 48.5667,-72.2586 L 48.7113,-72.3441 L 48.8611,-72.4204
 L 49.0153,-72.4872 L 49.1734,-72.5441 L 49.3348,-72.591 L 49.4988,-72.6276 L 49.6647,-72.6539 L 49.832,-72.6697
 L 50,-72.675 L 50.168,-72.6697 L 50.3353,-72.6539 L 50.5012,-72.6276 L 50.6652,-72.591 L 50.8266,-72.5441
 L 50.9847,-72.4872 L 51.1389,-72.4204 L 51.2887,-72.3441 L 51.4333,-72.2586 L 51.5723,-72.1641 L 51.7051,-72.0611
 L 51.775,-71.9995 L 51.775,-68.0005 L 51.7051,-67.9389 L 51.5723,-67.8359 L 51.4333,-67.7414 L 51.2887,-67.6559
 L 51.1389,-67.5796 L 50.9847,-67.5128 L 50.8266,-67.4559 L 50.6652,-67.409 L 50.5012,-67.3724 L 50.3353,-67.3461
 L 50.168,-67.3303 L 50,-67.325 z
M 99.832,-67.3303 L 99.6647,-67.3461 L 99.4988,-67.3724 L 99.3348,-67.409 L 99.1734,-67.4559 L 99.0153,-67.5128
 L 98.8611,-67.5796 L 98.7113,-67.6559 L 98.5667,-67.7414 L 98.4277,-67.8359 L 98.2949,-67.9389 L 98.1688,-68.05
 L 98.1,-68.1189 L 98.1,-71.8811 L 98.1688,-71.95 L 98.2949,-72.0611 L 98.4277,-72.1641 L 98.5667,-72.2586
 L 98.7113,-72.3441 L 98.8611,-72.4204 L 99.0153,-72.4872 L 99.1734,-72.5441 L 99.3348,-72.591 L 99.4988,-72.6276
 L 99.6647,-72.6539 L 99.832,-72.6697 L 100,-72.675 L 100.168,-72.6697 L 100.335,-72.6539 L 100.501,-72.6276
 L 100.665,-72.591 L 100.827,-72.5441 L 100.985,-72.4872 L 101.139,-72.4204 L 101.289,-72.3441 L 101.433,-72.2586
 L 101.572,-72.1641 L 101.705,-72.0611 L 101.831,-71.95 L 101.9,-71.8811 L 101.9,-68.1189 L 101.831,-68.05
 L 101.705,-67.9389 L 101.572,-67.8359 L 101.433,-67.7414 L 101.289,-67.6559 L 101.139,-67.5796 L 100.985,-67.5128
 L 100.827,-67.4559 L 100.665,-67.409 L 100.501,-67.3724 L 100.335,-67.3461 L 100.168,-67.3303 L 100,-67.325
 z
M 29.8336,-57.3552 L 29.6679,-57.3709 L 29.5034,-57.3969 L 29.341,-57.4333 L 29.1811,-57.4797 L 29.0245,-57.5361
 L 28.8717,-57.6022 L 28.7234,-57.6778 L 28.5801,-57.7625 L 28.4424,-57.8561 L 28.3108,-57.9581 L 28.275,-57.9897
 L 28.275,-62.0103 L 28.3108,-62.0419 L 28.4424,-62.1439 L 28.5801,-62.2375 L 28.7234,-62.3222 L 28.8717,-62.3978
 L 29.0245,-62.4639 L 29.1811,-62.5203 L 29.341,-62.5667 L 29.5034,-62.6031 L 29.6679,-62.6291 L 29.8336,-62.6448
 L 30,-62.65 L 30.1664,-62.6448 L 30.3321,-62.6291 L 30.4966,-62.6031 L 30.659,-62.5667 L 30.8189,-62.5203
 L 30.9755,-62.4639 L 31.1283,-62.3978 L 31.2766,-62.3222 L 31.4199,-62.2375 L 31.5576,-62.1439 L 31.6892,-62.0419
 L 31.725,-62.0103 L 31.725,-57.9897 L 31.6892,-57.9581 L 31.5576,-57.8561 L 31.4199,-57.7625 L 31.2766,-57.6778
 L 31.1283,-57.6022 L 30.9755,-57.5361 L 30.8189,-57.4797 L 30.659,-57.4333 L 30.4966,-57.3969 L 30.3321,-57.3709
 L 30.1664,-57.3552 L 30,-57.35 z
M 89.8336,-57.3552 L 89.6679,-57.3709 L 89.5034,-57.3969 L 89.341,-57.4333 L 89.1811,-57.4797 L 89.0245,-57.5361
 L 88.8717,-57.6022 L 88.7234,-57.6778 L 88.5801,-57.7625 L 88.4424,-57.8561 L 88.3108,-57.9581 L 88.186,-58.0682
 L 88.125,-58.1292 L 88.125,-61.8708 L 88.186,-61.9318 L 88.3108,-62.0419 L 88.4424,-62.1439 L 88.5801,-62.2375
 L 88.7234,-62.3222 L 88.8717,-62.3978 L 89.0245,-62.4639 L 89.1811,-62.5203 L 89.341,-62.5667 L 89.5034,-62.6031
 L 89.6679,-62.6291 L 89.8336,-62.6448 L 90,-62.65 L 90.1664,-62.6448 L 90.3321,-62.6291 L 90.4966,-62.6031
 L 90.659,-62.5667 L 90.8189,-62.5203 L 90.9755,-62.4639 L 91.1283,-62.3978 L 91.2766,-62.3222 L 91.4199,-62.2375
 L 91.5576,-62.1439 L 91.6892,-62.0419 L 91.814,-61.9318 L 91.875,-61.8708 L 91.875,-58.1292 L 91.814,-58.0682
 L 91.6892,-57.9581 L 91.5576,-57.8561 L 91.4199,-57.7625 L 91.2766,-57.6778 L 91.1283,-57.6022 L 90.9755,-57.5361
 L 90.8189,-57.4797 L 90.659,-57.4333 L 90.4966,-57.3969 L 90.3321,-57.3709 L 90.1664,-57.3552 L 90,-57.35
 z
M 9.83362,-57.3552 L 9.66788,-57.3709 L 9.50345,-57.3969 L 9.34097,-57.4333 L 9.18111,-57.4797 L 9.02448,-57.5361
 L 8.87169,-57.6022 L 8.72336,-57.6778 L 8.58006,-57.7625 L 8.44238,-57.8561 L 8.32501,-57.9471 L 8.32501,-62.0529
 L 8.44238,-62.1439 L 8.58006,-62.2375 L 8.72336,-62.3222 L 8.87169,-62.3978 L 9.02448,-62.4639 L 9.18111,-62.5203
 L 9.34097,-62.5667 L 9.50345,-62.6031 L 9.66788,-62.6291 L 9.83362,-62.6448 L 10,-62.65 L 10.1664,-62.6448
 L 10.3321,-62.6291 L 10.4966,-62.6031 L 10.659,-62.5667 L 10.8189,-62.5203 L 10.9755,-62.4639 L 11.1283,-62.3978
 L 11.2766,-62.3222 L 11.4199,-62.2375 L 11.5576,-62.1439 L 11.675,-62.0529 L 11.675,-57.9471 L 11.5576,-57.8561
 L 11.4199,-57.7625 L 11.2766,-57.6778 L 11.1283,-57.6022 L 10.9755,-57.5361 L 10.8189,-57.4797 L 10.659,-57.4333
 L 10.4966,-57.3969 L 10.3321,-57.3709 L 10.1664,-57.3552 L 10,-57.35 z
M 39.8336,-57.3552 L 39.6679,-57.3709 L 39.5034,-57.3969 L 39.341,-57.4333 L 39.1811,-57.4797 L 39.0245,-57.5361
 L 38.8717,-57.6022 L 38.7234,-57.6778 L 38.5801,-57.7625 L 38.4424,-57.8561 L 38.3108,-57.9581 L 38.25,-58.0118
 L 38.25,-61.9882 L 38.3108,-62.0419 L 38.4424,-62.1439 L 38.5801,-62.2375 L 38.7234,-62.3222 L 38.8717,-62.3978
 L 39.0245,-62.4639 L 39.1811,-62.5203 L 39.341,-62.5667 L 39.5034,-62.6031 L 39.6679,-62.6291 L 39.8336,-62.6448
 L 40,-62.65 L 40.1664,-62.6448 L 40.3321,-62.6291 L 40.4966,-62.6031 L 40.659,-62.5667 L 40.8189,-62.5203
 L 40.9755,-62.4639 L 41.1283,-62.3978 L 41.2766,-62.3222 L 41.4199,-62.2375 L 41.5576,-62.1439 L 41.6892,-62.0419
 L 41.75,-61.9882 L 41.75,-58.0118 L 41.6892,-57.9581 L 41.5576,-57.8561 L 41.4199,-57.7625 L 41.2766,-57.6778
 L 41.1283,-57.6022 L 40.9755,-57.5361 L 40.8189,-57.4797 L 40.659,-57.4333 L 40.4966,-57.3969 L 40.3321,-57.3709
 L 40.1664,-57.3552 L 40,-57.35 z
M 19.8336,-57.3552 L 19.6679,-57.3709 L 19.5034,-57.3969 L 19.341,-57.4333 L 19.1811,-57.4797 L 19.0245,-57.5361
 L 18.8717,-57.6022 L 18.7234,-57.6778 L 18.5801,-57.7625 L 18.4424,-57.8561 L 18.3,-57.9677 L 18.3,-62.0323
 L 18.4424,-62.1439 L 18.5801,-62.2375 L 18.7234,-62.3222 L 18.8717,-62.3978 L 19.0245,-62.4639 L 19.1811,-62.5203
 L 19.341,-62.5667 L 19.5034,-62.6031 L 19.6679,-62.6291 L 19.8336,-62.6448 L 20,-62.65 L 20.1664,-62.6448
 L 20.3321,-62.6291 L 20.4966,-62.6031 L 20.659,-62.5667 L 20.8189,-62.5203 L 20.9755,-62.4639 L 21.1283,-62.3978
 L 21.2766,-62.3222 L 21.4199,-62.2375 L 21.5576,-62.1439 L 21.7,-62.0323 L 21.7,-57.9677 L 21.5576,-57.8561
 L 21.4199,-57.7625 L 21.2766,-57.6778 L 21.1283,-57.6022 L 20.9755,-57.5361 L 20.8189,-57.4797 L 20.659,-57.4333
 L 20.4966,-57.3969 L 20.3321,-57.3709 L 20.1664,-57.3552 L 20,-57.35 z
M 79.8336,-57.3552 L 79.6679,-57.3709 L 79.5034,-57.3969 L 79.341,-57.4333 L 79.1811,-57.4797 L 79.0245,-57.5361
 L 78.8717,-57.6022 L 78.7234,-57.6778 L 78.5801,-57.7625 L 78.4424,-57.8561 L 78.3108,-57.9581 L 78.186,-58.0682
 L 78.15,-58.1042 L 78.15,-61.8958 L 78.186,-61.9318 L 78.3108,-62.0419 L 78.4424,-62.1439 L 78.5801,-62.2375
 L 78.7234,-62.3222 L 78.8717,-62.3978 L 79.0245,-62.4639 L 79.1811,-62.5203 L 79.341,-62.5667 L 79.5034,-62.6031
 L 79.6679,-62.6291 L 79.8336,-62.6448 L 80,-62.65 L 80.1664,-62.6448 L 80.3321,-62.6291 L 80.4966,-62.6031
 L 80.659,-62.5667 L 80.8189,-62.5203 L 80.9755,-62.4639 L 81.1283,-62.3978 L 81.2766,-62.3222 L 81.4199,-62.2375
 L 81.5576,-62.1439 L 81.6892,-62.0419 L 81.814,-61.9318 L 81.85,-61.8958 L 81.85,-58.1042 L 81.814,-58.0682
 L 81.6892,-57.9581 L 81.5576,-57.8561 L 81.4199,-57.7625 L 81.2766,-57.6778 L 81.1283,-57.6022 L 80.9755,-57.5361
 L 80.8189,-57.4797 L 80.659,-57.4333 L 80.4966,-57.3969 L 80.3321,-57.3709 L 80.1664,-57.3552 L 80,-57.35
 z
M 99.8336,-57.3552 L 99.6679,-57.3709 L 99.5034,-57.3969 L 99.341,-57.4333 L 99.1811,-57.4797 L 99.0245,-57.5361
 L 98.8717,-57.6022 L 98.7234,-57.6778 L 98.5801,-57.7625 L 98.4424,-57.8561 L 98.3108,-57.9581 L 98.186,-58.0682
 L 98.1,-58.1542 L 98.1,-61.8458 L 98.186,-61.9318 L 98.3108,-62.0419 L 98.4424,-62.1439 L 98.5801,-62.2375
 L 98.7234,-62.3222 L 98.8717,-62.3978 L 99.0245,-62.4639 L 99.1811,-62.5203 L 99.341,-62.5667 L 99.5034,-62.6031
 L 99.6679,-62.6291 L 99.8336,-62.6448 L 100,-62.65 L 100.166,-62.6448 L 100.332,-62.6291 L 100.497,-62.6031
 L 100.659,-62.5667 L 100.819,-62.5203 L 100.976,-62.4639 L 101.128,-62.3978 L 101.277,-62.3222 L 101.42,-62.2375
 L 101.558,-62.1439 L 101.689,-62.0419 L 101.814,-61.9318 L 101.9,-61.8458 L 101.9,-58.1542 L 101.814,-58.0682
 L 101.689,-57.9581 L 101.558,-57.8561 L 101.42,-57.7625 L 101.277,-57.6778 L 101.128,-57.6022 L 100.976,-57.5361
 L 100.819,-57.4797 L 100.659,-57.4333 L 100.497,-57.3969 L 100.332,-57.3709 L 100.166,-57.3552 L 100,-57.35
 z
M 59.8336,-57.3552 L 59.6679,-57.3709 L 59.5034,-57.3969 L 59.341,-57.4333 L 59.1811,-57.4797 L 59.0245,-57.5361
 L 58.8717,-57.6022 L 58.7234,-57.6778 L 58.5801,-57.7625 L 58.4424,-57.8561 L 58.3108,-57.9581 L 58.2,-58.0558
 L 58.2,-61.9442 L 58.3108,-62.0419 L 58.4424,-62.1439 L 58.5801,-62.2375 L 58.7234,-62.3222 L 58.8717,-62.3978
 L 59.0245,-62.4639 L 59.1811,-62.5203 L 59.341,-62.5667 L 59.5034,-62.6031 L 59.6679,-62.6291 L 59.8336,-62.6448
 L 60,-62.65 L 60.1664,-62.6448 L 60.3321,-62.6291 L 60.4966,-62.6031 L 60.659,-62.5667 L 60.8189,-62.5203
 L 60.9755,-62.4639 L 61.1283,-62.3978 L 61.2766,-62.3222 L 61.4199,-62.2375 L 61.5576,-62.1439 L 61.6892,-62.0419
 L 61.8,-61.9442 L 61.8,-58.0558 L 61.6892,-57.9581 L 61.5576,-57.8561 L 61.4199,-57.7625 L 61.2766,-57.6778
 L 61.1283,-57.6022 L 60.9755,-57.5361 L 60.8189,-57.4797 L 60.659,-57.4333 L 60.4966,-57.3969 L 60.3321,-57.3709
 L 60.1664,-57.3552 L 60,-57.35 z
M 69.8336,-57.3552 L 69.6679,-57.3709 L 69.5034,-57.3969 L 69.341,-57.4333 L 69.1811,-57.4797 L 69.0245,-57.5361
 L 68.8717,-57.6022 L 68.7234,-57.6778 L 68.5801,-57.7625 L 68.4424,-57.8561 L 68.3108,-57.9581 L 68.175,-58.0792
 L 68.175,-61.9208 L 68.3108,-62.0419 L 68.4424,-62.1439 L 68.5801,-62.2375 L 68.7234,-62.3222 L 68.8717,-62.3978
 L 69.0245,-62.4639 L 69.1811,-62.5203 L 69.341,-62.5667 L 69.5034,-62.6031 L 69.6679,-62.6291 L 69.8336,-62.6448
 L 70,-62.65 L 70.1664,-62.6448 L 70.3321,-62.6291 L 70.4966,-62.6031 L 70.659,-62.5667 L 70.8189,-62.5203
 L 70.9755,-62.4639 L 71.1283,-62.3978 L 71.2766,-62.3222 L 71.4199,-62.2375 L 71.5576,-62.1439 L 71.6892,-62.0419
 L 71.825,-61.9208 L 71.825,-58.0792 L 71.6892,-57.9581 L 71.5576,-57.8561 L 71.4199,-57.7625 L 71.2766,-57.6778
 L 71.1283,-57.6022 L 70.9755,-57.5361 L 70.8189,-57.4797 L 70.659,-57.4333 L 70.4966,-57.3969 L 70.3321,-57.3709
 L 70.1664,-57.3552 L 70,-57.35 z
M 49.8336,-57.3552 L 49.6679,-57.3709 L 49.5034,-57.3969 L 49.341,-57.4333 L 49.1811,-57.4797 L 49.0245,-57.5361
 L 48.8717,-57.6022 L 48.7234,-57.6778 L 48.5801,-57.7625 L 48.4424,-57.8561 L 48.3108,-57.9581 L 48.225,-58.0338
 L 48.225,-61.9662 L 48.3108,-62.0419 L 48.4424,-62.1439 L 48.5801,-62.2375 L 48.7234,-62.3222 L 48.8717,-62.3978
 L 49.0245,-62.4639 L 49.1811,-62.5203 L 49.341,-62.5667 L 49.5034,-62.6031 L 49.6679,-62.6291 L 49.8336,-62.6448
 L 50,-62.65 L 50.1664,-62.6448 L 50.3321,-62.6291 L 50.4966,-62.6031 L 50.659,-62.5667 L 50.8189,-62.5203
 L 50.9755,-62.4639 L 51.1283,-62.3978 L 51.2766,-62.3222 L 51.4199,-62.2375 L 51.5576,-62.1439 L 51.6892,-62.0419
 L 51.775,-61.9662 L 51.775,-58.0338 L 51.6892,-57.9581 L 51.5576,-57.8561 L 51.4199,-57.7625 L 51.2766,-57.6778
 L 51.1283,-57.6022 L 50.9755,-57.5361 L 50.8189,-57.4797 L 50.659,-57.4333 L 50.4966,-57.3969 L 50.3321,-57.3709
 L 50.1664,-57.3552 L 50,-57.35 z
M 99.8352,-47.3802 L 99.671,-47.3957 L 99.5081,-47.4215 L 99.3472,-47.4575 L 99.1888,-47.5035 L 99.0337,-47.5593
 L 98.8823,-47.6248 L 98.7354,-47.6997 L 98.5935,-47.7836 L 98.4571,-47.8763 L 98.3268,-47.9774 L 98.2031,-48.0865
 L 98.1,-48.1895 L 98.1,-51.8105 L 98.2031,-51.9135 L 98.3268,-52.0226 L 98.4571,-52.1237 L 98.5935,-52.2164
 L 98.7354,-52.3003 L 98.8823,-52.3752 L 99.0337,-52.4407 L 99.1888,-52.4965 L 99.3472,-52.5425 L 99.5081,-52.5785
 L 99.671,-52.6043 L 99.8352,-52.6198 L 100,-52.625 L 100.165,-52.6198 L 100.329,-52.6043 L 100.492,-52.5785
 L 100.653,-52.5425 L 100.811,-52.4965 L 100.966,-52.4407 L 101.118,-52.3752 L 101.265,-52.3003 L 101.407,-52.2164
 L 101.543,-52.1237 L 101.673,-52.0226 L 101.797,-51.9135 L 101.9,-51.8105 L 101.9,-48.1895 L 101.797,-48.0865
 L 101.673,-47.9774 L 101.543,-47.8763 L 101.407,-47.7836 L 101.265,-47.6997 L 101.118,-47.6248 L 100.966,-47.5593
 L 100.811,-47.5035 L 100.653,-47.4575 L 100.492,-47.4215 L 100.329,-47.3957 L 100.165,-47.3802 L 100,-47.375
 z
M 19.8352,-47.3802 L 19.671,-47.3957 L 19.5081,-47.4215 L 19.3472,-47.4575 L 19.1888,-47.5035 L 19.0337,-47.5593
 L 18.8823,-47.6248 L 18.7354,-47.6997 L 18.5935,-47.7836 L 18.4571,-47.8763 L 18.3268,-47.9774 L 18.3,-48.001
 L 18.3,-51.999 L 18.3268,-52.0226 L 18.4571,-52.1237 L 18.5935,-52.2164 L 18.7354,-52.3003 L 18.8823,-52.3752
 L 19.0337,-52.4407 L 19.1888,-52.4965 L 19.3472,-52.5425 L 19.5081,-52.5785 L 19.671,-52.6043 L 19.8352,-52.6198
 L 20,-52.625 L 20.1648,-52.6198 L 20.329,-52.6043 L 20.4919,-52.5785 L 20.6528,-52.5425 L 20.8112,-52.4965
 L 20.9663,-52.4407 L 21.1177,-52.3752 L 21.2646,-52.3003 L 21.4065,-52.2164 L 21.5429,-52.1237 L 21.6732,-52.0226
 L 21.7,-51.999 L 21.7,-48.001 L 21.6732,-47.9774 L 21.5429,-47.8763 L 21.4065,-47.7836 L 21.2646,-47.6997
 L 21.1177,-47.6248 L 20.9663,-47.5593 L 20.8112,-47.5035 L 20.6528,-47.4575 L 20.4919,-47.4215 L 20.329,-47.3957
 L 20.1648,-47.3802 L 20,-47.375 z
M 49.8352,-47.3802 L 49.671,-47.3957 L 49.5081,-47.4215 L 49.3472,-47.4575 L 49.1888,-47.5035 L 49.0337,-47.5593
 L 48.8823,-47.6248 L 48.7354,-47.6997 L 48.5935,-47.7836 L 48.4571,-47.8763 L 48.3268,-47.9774 L 48.225,-48.0671
 L 48.225,-51.9329 L 48.3268,-52.0226 L 48.4571,-52.1237 L 48.5935,-52.2164 L 48.7354,-52.3003 L 48.8823,-52.3752
 L 49.0337,-52.4407 L 49.1888,-52.4965 L 49.3472,-52.5425 L 49.5081,-52.5785 L 49.671,-52.6043 L 49.8352,-52.6198
 L 50,-52.625 L 50.1648,-52.6198 L 50.329,-52.6043 L 50.4919,-52.5785 L 50.6528,-52.5425 L 50.8112,-52.4965
 L 50.9663,-52.4407 L 51.1177,-52.3752 L 51.2646,-52.3003 L 51.4065,-52.2164 L 51.5429,-52.1237 L 51.6732,-52.0226
 L 51.775,-51.9329 L 51.775,-48.0671 L 51.6732,-47.9774 L 51.5429,-47.8763 L 51.4065,-47.7836 L 51.2646,-47.6997
 L 51.1177,-47.6248 L 50.9663,-47.5593 L 50.8112,-47.5035 L 50.6528,-47.4575 L 50.4919,-47.4215 L 50.329,-47.3957
 L 50.1648,-47.3802 L 50,-47.375 z
M 39.8352,-47.3802 L 39.671,-47.3957 L 39.5081,-47.4215 L 39.3472,-47.4575 L 39.1888,-47.5035 L 39.0337,-47.5593
 L 38.8823,-47.6248 L 38.7354,-47.6997 L 38.5935,-47.7836 L 38.4571,-47.8763 L 38.3268,-47.9774 L 38.25,-48.0451
 L 38.25,-51.9549 L 38.3268,-52.0226 L 38.4571,-52.1237 L 38.5935,-52.2164 L 38.7354,-52.3003 L 38.8823,-52.3752
 L 39.0337,-52.4407 L 39.1888,-52.4965 L 39.3472,-52.5425 L 39.5081,-52.5785 L 39.671,-52.6043 L 39.8352,-52.6198
 L 40,-52.625 L 40.1648,-52.6198 L 40.329,-52.6043 L 40.4919,-52.5785 L 40.6528,-52.5425 L 40.8112,-52.4965
 L 40.9663,-52.4407 L 41.1177,-52.3752 L 41.2646,-52.3003 L 41.4065,-52.2164 L 41.5429,-52.1237 L 41.6732,-52.0226
 L 41.75,-51.9549 L 41.75,-48.0451 L 41.6732,-47.9774 L 41.5429,-47.8763 L 41.4065,-47.7836 L 41.2646,-47.6997
 L 41.1177,-47.6248 L 40.9663,-47.5593 L 40.8112,-47.5035 L 40.6528,-47.4575 L 40.4919,-47.4215 L 40.329,-47.3957
 L 40.1648,-47.3802 L 40,-47.375 z
M 29.8352,-47.3802 L 29.671,-47.3957 L 29.5081,-47.4215 L 29.3472,-47.4575 L 29.1888,-47.5035 L 29.0337,-47.5593
 L 28.8823,-47.6248 L 28.7354,-47.6997 L 28.5935,-47.7836 L 28.4571,-47.8763 L 28.3268,-47.9774 L 28.275,-48.023
 L 28.275,-51.977 L 28.3268,-52.0226 L 28.4571,-52.1237 L 28.5935,-52.2164 L 28.7354,-52.3003 L 28.8823,-52.3752
 L 29.0337,-52.4407 L 29.1888,-52.4965 L 29.3472,-52.5425 L 29.5081,-52.5785 L 29.671,-52.6043 L 29.8352,-52.6198
 L 30,-52.625 L 30.1648,-52.6198 L 30.329,-52.6043 L 30.4919,-52.5785 L 30.6528,-52.5425 L 30.8112,-52.4965
 L 30.9663,-52.4407 L 31.1177,-52.3752 L 31.2646,-52.3003 L 31.4065,-52.2164 L 31.5429,-52.1237 L 31.6732,-52.0226
 L 31.725,-51.977 L 31.725,-48.023 L 31.6732,-47.9774 L 31.5429,-47.8763 L 31.4065,-47.7836 L 31.2646,-47.6997
 L 31.1177,-47.6248 L 30.9663,-47.5593 L 30.8112,-47.5035 L 30.6528,-47.4575 L 30.4919,-47.4215 L 30.329,-47.3957
 L 30.1648,-47.3802 L 30,-47.375 z
M 89.8352,-47.3802 L 89.671,-47.3957 L 89.5081,-47.4215 L 89.3472,-47.4575 L 89.1888,-47.5035 L 89.0337,-47.5593
 L 88.8823,-47.6248 L 88.7354,-47.6997 L 88.5935,-47.7836 L 88.4571,-47.8763 L 88.3268,-47.9774 L 88.2031,-48.0865
 L 88.125,-48.1645 L 88.125,-51.8355 L 88.2031,-51.9135 L 88.3268,-52.0226 L 88.4571,-52.1237 L 88.5935,-52.2164
 L 88.7354,-52.3003 L 88.8823,-52.3752 L 89.0337,-52.4407 L 89.1888,-52.4965 L 89.3472,-52.5425 L 89.5081,-52.5785
 L 89.671,-52.6043 L 89.8352,-52.6198 L 90,-52.625 L 90.1648,-52.6198 L 90.329,-52.6043 L 90.4919,-52.5785
 L 90.6528,-52.5425 L 90.8112,-52.4965 L 90.9663,-52.4407 L 91.1177,-52.3752 L 91.2646,-52.3003 L 91.4065,-52.2164
 L 91.5429,-52.1237 L 91.6732,-52.0226 L 91.7969,-51.9135 L 91.875,-51.8355 L 91.875,-48.1645 L 91.7969,-48.0865
 L 91.6732,-47.9774 L 91.5429,-47.8763 L 91.4065,-47.7836 L 91.2646,-47.6997 L 91.1177,-47.6248 L 90.9663,-47.5593
 L 90.8112,-47.5035 L 90.6528,-47.4575 L 90.4919,-47.4215 L 90.329,-47.3957 L 90.1648,-47.3802 L 90,-47.375
 z
M 9.83519,-47.3802 L 9.67101,-47.3957 L 9.50813,-47.4215 L 9.3472,-47.4575 L 9.18884,-47.5035 L 9.03368,-47.5593
 L 8.88234,-47.6248 L 8.7354,-47.6997 L 8.59346,-47.7836 L 8.45708,-47.8763 L 8.32501,-47.979 L 8.32501,-52.021
 L 8.45708,-52.1237 L 8.59346,-52.2164 L 8.7354,-52.3003 L 8.88234,-52.3752 L 9.03368,-52.4407 L 9.18884,-52.4965
 L 9.3472,-52.5425 L 9.50813,-52.5785 L 9.67101,-52.6043 L 9.83519,-52.6198 L 10,-52.625 L 10.1648,-52.6198
 L 10.329,-52.6043 L 10.4919,-52.5785 L 10.6528,-52.5425 L 10.8112,-52.4965 L 10.9663,-52.4407 L 11.1177,-52.3752
 L 11.2646,-52.3003 L 11.4065,-52.2164 L 11.5429,-52.1237 L 11.675,-52.021 L 11.675,-47.979 L 11.5429,-47.8763
 L 11.4065,-47.7836 L 11.2646,-47.6997 L 11.1177,-47.6248 L 10.9663,-47.5593 L 10.8112,-47.5035 L 10.6528,-47.4575
 L 10.4919,-47.4215 L 10.329,-47.3957 L 10.1648,-47.3802 L 10,-47.375 z
M 79.8352,-47.3802 L 79.671,-47.3957 L 79.5081,-47.4215 L 79.3472,-47.4575 L 79.1888,-47.5035 L 79.0337,-47.5593
 L 78.8823,-47.6248 L 78.7354,-47.6997 L 78.5935,-47.7836 L 78.4571,-47.8763 L 78.3268,-47.9774 L 78.2031,-48.0865
 L 78.15,-48.1395 L 78.15,-51.8605 L 78.2031,-51.9135 L 78.3268,-52.0226 L 78.4571,-52.1237 L 78.5935,-52.2164
 L 78.7354,-52.3003 L 78.8823,-52.3752 L 79.0337,-52.4407 L 79.1888,-52.4965 L 79.3472,-52.5425 L 79.5081,-52.5785
 L 79.671,-52.6043 L 79.8352,-52.6198 L 80,-52.625 L 80.1648,-52.6198 L 80.329,-52.6043 L 80.4919,-52.5785
 L 80.6528,-52.5425 L 80.8112,-52.4965 L 80.9663,-52.4407 L 81.1177,-52.3752 L 81.2646,-52.3003 L 81.4065,-52.2164
 L 81.5429,-52.1237 L 81.6732,-52.0226 L 81.7969,-51.9135 L 81.85,-51.8605 L 81.85,-48.1395 L 81.7969,-48.0865
 L 81.6732,-47.9774 L 81.5429,-47.8763 L 81.4065,-47.7836 L 81.2646,-47.6997 L 81.1177,-47.6248 L 80.9663,-47.5593
 L 80.8112,-47.5035 L 80.6528,-47.4575 L 80.4919,-47.4215 L 80.329,-47.3957 L 80.1648,-47.3802 L 80,-47.375
 z
M 59.8352,-47.3802 L 59.671,-47.3957 L 59.5081,-47.4215 L 59.3472,-47.4575 L 59.1888,-47.5035 L 59.0337,-47.5593
 L 58.8823,-47.6248 L 58.7354,-47.6997 L 58.5935,-47.7836 L 58.4571,-47.8763 L 58.3268,-47.9774 L 58.2,-48.0895
 L 58.2,-51.9105 L 58.3268,-52.0226 L 58.4571,-52.1237 L 58.5935,-52.2164 L 58.7354,-52.3003 L 58.8823,-52.3752
 L 59.0337,-52.4407 L 59.1888,-52.4965 L 59.3472,-52.5425 L 59.5081,-52.5785 L 59.671,-52.6043 L 59.8352,-52.6198
 L 60,-52.625 L 60.1648,-52.6198 L 60.329,-52.6043 L 60.4919,-52.5785 L 60.6528,-52.5425 L 60.8112,-52.4965
 L 60.9663,-52.4407 L 61.1177,-52.3752 L 61.2646,-52.3003 L 61.4065,-52.2164 L 61.5429,-52.1237 L 61.6732,-52.0226
 L 61.8,-51.9105 L 61.8,-48.0895 L 61.6732,-47.9774 L 61.5429,-47.8763 L 61.4065,-47.7836 L 61.2646,-47.6997
 L 61.1177,-47.6248 L 60.9663,-47.5593 L 60.8112,-47.5035 L 60.6528,-47.4575 L 60.4919,-47.4215 L 60.329,-47.3957
 L 60.1648,-47.3802 L 60,-47.375 z
M 69.8352,-47.3802 L 69.671,-47.3957 L 69.5081,-47.4215 L 69.3472,-47.4575 L 69.1888,-47.5035 L 69.0337,-47.5593
 L 68.8823,-47.6248 L 68.7354,-47.6997 L 68.5935,-47.7836 L 68.4571,-47.8763 L 68.3268,-47.9774 L 68.2031,-48.0865
 L 68.175,-48.1145 L 68.175,-51.8855 L 68.2031,-51.9135 L 68.3268,-52.0226 L 68.4571,-52.1237 L 68.5935,-52.2164
 L 68.7354,-52.3003 L 68.8823,-52.3752 L 69.0337,-52.4407 L 69.1888,-52.4965 L 69.3472,-52.5425 L 69.5081,-52.5785
 L 69.671,-52.6043 L 69.8352,-52.6198 L 70,-52.625 L 70.1648,-52.6198 L 70.329,-52.6043 L 70.4919,-52.5785
 L 70.6528,-52.5425 L 70.8112,-52.4965 L 70.9663,-52.4407 L 71.1177,-52.3752 L 71.2646,-52.3003 L 71.4065,-52.2164
 L 71.5429,-52.1237 L 71.6732,-52.0226 L 71.7969,-51.9135 L 71.825,-51.8855 L 71.825,-48.1145 L 71.7969,-48.0865
 L 71.6732,-47.9774 L 71.5429,-47.8763 L 71.4065,-47.7836 L 71.2646,-47.6997 L 71.1177,-47.6248 L 70.9663,-47.5593
 L 70.8112,-47.5035 L 70.6528,-47.4575 L 70.4919,-47.4215 L 70.329,-47.3957 L 70.1648,-47.3802 L 70,-47.375
 z
M 49.8367,-37.4051 L 49.6741,-37.4205 L 49.5128,-37.4461 L 49.3534,-37.4817 L 49.1966,-37.5273 L 49.0429,-37.5826
 L 48.893,-37.6475 L 48.7475,-37.7216 L 48.6069,-37.8047 L 48.4718,-37.8966 L 48.3427,-37.9967 L 48.225,-38.1004
 L 48.225,-41.8996 L 48.3427,-42.0033 L 48.4718,-42.1034 L 48.6069,-42.1953 L 48.7475,-42.2784 L 48.893,-42.3525
 L 49.0429,-42.4174 L 49.1966,-42.4727 L 49.3534,-42.5183 L 49.5128,-42.5539 L 49.6741,-42.5795 L 49.8367,-42.5949
 L 50,-42.6 L 50.1633,-42.5949 L 50.3259,-42.5795 L 50.4872,-42.5539 L 50.6466,-42.5183 L 50.8034,-42.4727
 L 50.9571,-42.4174 L 51.107,-42.3525 L 51.2525,-42.2784 L 51.3931,-42.1953 L 51.5282,-42.1034 L 51.6573,-42.0033
 L 51.775,-41.8996 L 51.775,-38.1004 L 51.6573,-37.9967 L 51.5282,-37.8966 L 51.3931,-37.8047 L 51.2525,-37.7216
 L 51.107,-37.6475 L 50.9571,-37.5826 L 50.8034,-37.5273 L 50.6466,-37.4817 L 50.4872,-37.4461 L 50.3259,-37.4205
 L 50.1633,-37.4051 L 50,-37.4 z
M 59.8367,-37.4051 L 59.6741,-37.4205 L 59.5128,-37.4461 L 59.3534,-37.4817 L 59.1966,-37.5273 L 59.0429,-37.5826
 L 58.893,-37.6475 L 58.7475,-37.7216 L 58.6069,-37.8047 L 58.4718,-37.8966 L 58.3427,-37.9967 L 58.2202,-38.1047
 L 58.2,-38.1249 L 58.2,-41.8751 L 58.2202,-41.8953 L 58.3427,-42.0033 L 58.4718,-42.1034 L 58.6069,-42.1953
 L 58.7475,-42.2784 L 58.893,-42.3525 L 59.0429,-42.4174 L 59.1966,-42.4727 L 59.3534,-42.5183 L 59.5128,-42.5539
 L 59.6741,-42.5795 L 59.8367,-42.5949 L 60,-42.6 L 60.1633,-42.5949 L 60.3259,-42.5795 L 60.4872,-42.5539
 L 60.6466,-42.5183 L 60.8034,-42.4727 L 60.9571,-42.4174 L 61.107,-42.3525 L 61.2525,-42.2784 L 61.3931,-42.1953
 L 61.5282,-42.1034 L 61.6573,-42.0033 L 61.7798,-41.8953 L 61.8,-41.8751 L 61.8,-38.1249 L 61.7798,-38.1047
 L 61.6573,-37.9967 L 61.5282,-37.8966 L 61.3931,-37.8047 L 61.2525,-37.7216 L 61.107,-37.6475 L 60.9571,-37.5826
 L 60.8034,-37.5273 L 60.6466,-37.4817 L 60.4872,-37.4461 L 60.3259,-37.4205 L 60.1633,-37.4051 L 60,-37.4
 z
M 99.8367,-37.4051 L 99.6741,-37.4205 L 99.5128,-37.4461 L 99.3534,-37.4817 L 99.1966,-37.5273 L 99.0429,-37.5826
 L 98.893,-37.6475 L 98.7475,-37.7216 L 98.6069,-37.8047 L 98.4718,-37.8966 L 98.3427,-37.9967 L 98.2202,-38.1047
 L 98.1,-38.2255 L 98.1,-41.7745 L 98.2202,-41.8953 L 98.3427,-42.0033 L 98.4718,-42.1034 L 98.6069,-42.1953
 L 98.7475,-42.2784 L 98.893,-42.3525 L 99.0429,-42.4174 L 99.1966,-42.4727 L 99.3534,-42.5183 L 99.5128,-42.5539
 L 99.6741,-42.5795 L 99.8367,-42.5949 L 100,-42.6 L 100.163,-42.5949 L 100.326,-42.5795 L 100.487,-42.5539
 L 100.647,-42.5183 L 100.803,-42.4727 L 100.957,-42.4174 L 101.107,-42.3525 L 101.253,-42.2784 L 101.393,-42.1953
 L 101.528,-42.1034 L 101.657,-42.0033 L 101.78,-41.8953 L 101.9,-41.7745 L 101.9,-38.2255 L 101.78,-38.1047
 L 101.657,-37.9967 L 101.528,-37.8966 L 101.393,-37.8047 L 101.253,-37.7216 L 101.107,-37.6475 L 100.957,-37.5826
 L 100.803,-37.5273 L 100.647,-37.4817 L 100.487,-37.4461 L 100.326,-37.4205 L 100.163,-37.4051 L 100,-37.4
 z
M 89.8367,-37.4051 L 89.6741,-37.4205 L 89.5128,-37.4461 L 89.3534,-37.4817 L 89.1966,-37.5273 L 89.0429,-37.5826
 L 88.893,-37.6475 L 88.7475,-37.7216 L 88.6069,-37.8047 L 88.4718,-37.8966 L 88.3427,-37.9967 L 88.2202,-38.1047
 L 88.125,-38.1999 L 88.125,-41.8001 L 88.2202,-41.8953 L 88.3427,-42.0033 L 88.4718,-42.1034 L 88.6069,-42.1953
 L 88.7475,-42.2784 L 88.893,-42.3525 L 89.0429,-42.4174 L 89.1966,-42.4727 L 89.3534,-42.5183 L 89.5128,-42.5539
 L 89.6741,-42.5795 L 89.8367,-42.5949 L 90,-42.6 L 90.1633,-42.5949 L 90.3259,-42.5795 L 90.4872,-42.5539
 L 90.6466,-42.5183 L 90.8034,-42.4727 L 90.9571,-42.4174 L 91.107,-42.3525 L 91.2525,-42.2784 L 91.3931,-42.1953
 L 91.5282,-42.1034 L 91.6573,-42.0033 L 91.7798,-41.8953 L 91.875,-41.8001 L 91.875,-38.1999 L 91.7798,-38.1047
 L 91.6573,-37.9967 L 91.5282,-37.8966 L 91.3931,-37.8047 L 91.2525,-37.7216 L 91.107,-37.6475 L 90.9571,-37.5826
 L 90.8034,-37.5273 L 90.6466,-37.4817 L 90.4872,-37.4461 L 90.3259,-37.4205 L 90.1633,-37.4051 L 90,-37.4
 z
M 29.8367,-37.4051 L 29.6741,-37.4205 L 29.5128,-37.4461 L 29.3534,-37.4817 L 29.1966,-37.5273 L 29.0429,-37.5826
 L 28.893,-37.6475 L 28.7475,-37.7216 L 28.6069,-37.8047 L 28.4718,-37.8966 L 28.3427,-37.9967 L 28.275,-38.0564
 L 28.275,-41.9436 L 28.3427,-42.0033 L 28.4718,-42.1034 L 28.6069,-42.1953 L 28.7475,-42.2784 L 28.893,-42.3525
 L 29.0429,-42.4174 L 29.1966,-42.4727 L 29.3534,-42.5183 L 29.5128,-42.5539 L 29.6741,-42.5795 L 29.8367,-42.5949
 L 30,-42.6 L 30.1633,-42.5949 L 30.3259,-42.5795 L 30.4872,-42.5539 L 30.6466,-42.5183 L 30.8034,-42.4727
 L 30.9571,-42.4174 L 31.107,-42.3525 L 31.2525,-42.2784 L 31.3931,-42.1953 L 31.5282,-42.1034 L 31.6573,-42.0033
 L 31.725,-41.9436 L 31.725,-38.0564 L 31.6573,-37.9967 L 31.5282,-37.8966 L 31.3931,-37.8047 L 31.2525,-37.7216
 L 31.107,-37.6475 L 30.9571,-37.5826 L 30.8034,-37.5273 L 30.6466,-37.4817 L 30.4872,-37.4461 L 30.3259,-37.4205
 L 30.1633,-37.4051 L 30,-37.4 z
M 69.8367,-37.4051 L 69.6741,-37.4205 L 69.5128,-37.4461 L 69.3534,-37.4817 L 69.1966,-37.5273 L 69.0429,-37.5826
 L 68.893,-37.6475 L 68.7475,-37.7216 L 68.6069,-37.8047 L 68.4718,-37.8966 L 68.3427,-37.9967 L 68.2202,-38.1047
 L 68.175,-38.1499 L 68.175,-41.8501 L 68.2202,-41.8953 L 68.3427,-42.0033 L 68.4718,-42.1034 L 68.6069,-42.1953
 L 68.7475,-42.2784 L 68.893,-42.3525 L 69.0429,-42.4174 L 69.1966,-42.4727 L 69.3534,-42.5183 L 69.5128,-42.5539
 L 69.6741,-42.5795 L 69.8367,-42.5949 L 70,-42.6 L 70.1633,-42.5949 L 70.3259,-42.5795 L 70.4872,-42.5539
 L 70.6466,-42.5183 L 70.8034,-42.4727 L 70.9571,-42.4174 L 71.107,-42.3525 L 71.2525,-42.2784 L 71.3931,-42.1953
 L 71.5282,-42.1034 L 71.6573,-42.0033 L 71.7798,-41.8953 L 71.825,-41.8501 L 71.825,-38.1499 L 71.7798,-38.1047
 L 71.6573,-37.9967 L 71.5282,-37.8966 L 71.3931,-37.8047 L 71.2525,-37.7216 L 71.107,-37.6475 L 70.9571,-37.5826
 L 70.8034,-37.5273 L 70.6466,-37.4817 L 70.4872,-37.4461 L 70.3259,-37.4205 L 70.1633,-37.4051 L 70,-37.4
 z
M 19.8367,-37.4051 L 19.6741,-37.4205 L 19.5128,-37.4461 L 19.3534,-37.4817 L 19.1966,-37.5273 L 19.0429,-37.5826
 L 18.893,-37.6475 L 18.7475,-37.7216 L 18.6069,-37.8047 L 18.4718,-37.8966 L 18.3427,-37.9967 L 18.3,-38.0343
 L 18.3,-41.9657 L 18.3427,-42.0033 L 18.4718,-42.1034 L 18.6069,-42.1953 L 18.7475,-42.2784 L 18.893,-42.3525
 L 19.0429,-42.4174 L 19.1966,-42.4727 L 19.3534,-42.5183 L 19.5128,-42.5539 L 19.6741,-42.5795 L 19.8367,-42.5949
 L 20,-42.6 L 20.1633,-42.5949 L 20.3259,-42.5795 L 20.4872,-42.5539 L 20.6466,-42.5183 L 20.8034,-42.4727
 L 20.9571,-42.4174 L 21.107,-42.3525 L 21.2525,-42.2784 L 21.3931,-42.1953 L 21.5282,-42.1034 L 21.6573,-42.0033
 L 21.7,-41.9657 L 21.7,-38.0343 L 21.6573,-37.9967 L 21.5282,-37.8966 L 21.3931,-37.8047 L 21.2525,-37.7216
 L 21.107,-37.6475 L 20.9571,-37.5826 L 20.8034,-37.5273 L 20.6466,-37.4817 L 20.4872,-37.4461 L 20.3259,-37.4205
 L 20.1633,-37.4051 L 20,-37.4 z
M 9.83675,-37.4051 L 9.67415,-37.4205 L 9.51282,-37.4461 L 9.35341,-37.4817 L 9.19656,-37.5273 L 9.04288,-37.5826
 L 8.89297,-37.6475 L 8.74745,-37.7216 L 8.60686,-37.8047 L 8.47177,-37.8966 L 8.34271,-37.9967 L 8.32501,-38.0123
 L 8.32501,-41.9877 L 8.34271,-42.0033 L 8.47177,-42.1034 L 8.60686,-42.1953 L 8.74745,-42.2784 L 8.89297,-42.3525
 L 9.04288,-42.4174 L 9.19656,-42.4727 L 9.35341,-42.5183 L 9.51282,-42.5539 L 9.67415,-42.5795 L 9.83675,-42.5949
 L 10,-42.6 L 10.1633,-42.5949 L 10.3259,-42.5795 L 10.4872,-42.5539 L 10.6466,-42.5183 L 10.8034,-42.4727
 L 10.9571,-42.4174 L 11.107,-42.3525 L 11.2525,-42.2784 L 11.3931,-42.1953 L 11.5282,-42.1034 L 11.6573,-42.0033
 L 11.675,-41.9877 L 11.675,-38.0123 L 11.6573,-37.9967 L 11.5282,-37.8966 L 11.3931,-37.8047 L 11.2525,-37.7216
 L 11.107,-37.6475 L 10.9571,-37.5826 L 10.8034,-37.5273 L 10.6466,-37.4817 L 10.4872,-37.4461 L 10.3259,-37.4205
 L 10.1633,-37.4051 L 10,-37.4 z
M 79.8367,-37.4051 L 79.6741,-37.4205 L 79.5128,-37.4461 L 79.3534,-37.4817 L 79.1966,-37.5273 L 79.0429,-37.5826
 L 78.893,-37.6475 L 78.7475,-37.7216 L 78.6069,-37.8047 L 78.4718,-37.8966 L 78.3427,-37.9967 L 78.2202,-38.1047
 L 78.15,-38.1749 L 78.15,-41.8251 L 78.2202,-41.8953 L 78.3427,-42.0033 L 78.4718,-42.1034 L 78.6069,-42.1953
 L 78.7475,-42.2784 L 78.893,-42.3525 L 79.0429,-42.4174 L 79.1966,-42.4727 L 79.3534,-42.5183 L 79.5128,-42.5539
 L 79.6741,-42.5795 L 79.8367,-42.5949 L 80,-42.6 L 80.1633,-42.5949 L 80.3259,-42.5795 L 80.4872,-42.5539
 L 80.6466,-42.5183 L 80.8034,-42.4727 L 80.9571,-42.4174 L 81.107,-42.3525 L 81.2525,-42.2784 L 81.3931,-42.1953
 L 81.5282,-42.1034 L 81.6573,-42.0033 L 81.7798,-41.8953 L 81.85,-41.8251 L 81.85,-38.1749 L 81.7798,-38.1047
 L 81.6573,-37.9967 L 81.5282,-37.8966 L 81.3931,-37.8047 L 81.2525,-37.7216 L 81.107,-37.6475 L 80.9571,-37.5826
 L 80.8034,-37.5273 L 80.6466,-37.4817 L 80.4872,-37.4461 L 80.3259,-37.4205 L 80.1633,-37.4051 L 80,-37.4
 z
M 39.8367,-37.4051 L 39.6741,-37.4205 L 39.5128,-37.4461 L 39.3534,-37.4817 L 39.1966,-37.5273 L 39.0429,-37.5826
 L 38.893,-37.6475 L 38.7475,-37.7216 L 38.6069,-37.8047 L 38.4718,-37.8966 L 38.3427,-37.9967 L 38.25,-38.0784
 L 38.25,-41.9216 L 38.3427,-42.0033 L 38.4718,-42.1034 L 38.6069,-42.1953 L 38.7475,-42.2784 L 38.893,-42.3525
 L 39.0429,-42.4174 L 39.1966,-42.4727 L 39.3534,-42.5183 L 39.5128,-42.5539 L 39.6741,-42.5795 L 39.8367,-42.5949
 L 40,-42.6 L 40.1633,-42.5949 L 40.3259,-42.5795 L 40.4872,-42.5539 L 40.6466,-42.5183 L 40.8034,-42.4727
 L 40.9571,-42.4174 L 41.107,-42.3525 L 41.2525,-42.2784 L 41.3931,-42.1953 L 41.5282,-42.1034 L 41.6573,-42.0033
 L 41.75,-41.9216 L 41.75,-38.0784 L 41.6573,-37.9967 L 41.5282,-37.8966 L 41.3931,-37.8047 L 41.2525,-37.7216
 L 41.107,-37.6475 L 40.9571,-37.5826 L 40.8034,-37.5273 L 40.6466,-37.4817 L 40.4872,-37.4461 L 40.3259,-37.4205
 L 40.1633,-37.4051 L 40,-37.4 z
M 49.8383,-27.4301 L 49.6773,-27.4453 L 49.5175,-27.4706 L 49.3596,-27.5059 L 49.2043,-27.551 L 49.0521,-27.6058
 L 48.9036,-27.6701 L 48.7595,-27.7435 L 48.6203,-27.8259 L 48.4865,-27.9168 L 48.3586,-28.0159 L 48.225,-28.1352
 L 48.225,-31.8648 L 48.3586,-31.9841 L 48.4865,-32.0832 L 48.6203,-32.1741 L 48.7595,-32.2565 L 48.9036,-32.3299
 L 49.0521,-32.3942 L 49.2043,-32.449 L 49.3596,-32.4941 L 49.5175,-32.5294 L 49.6773,-32.5547 L 49.8383,-32.5699
 L 50,-32.575 L 50.1617,-32.5699 L 50.3227,-32.5547 L 50.4825,-32.5294 L 50.6404,-32.4941 L 50.7957,-32.449
 L 50.9479,-32.3942 L 51.0964,-32.3299 L 51.2405,-32.2565 L 51.3797,-32.1741 L 51.5135,-32.0832 L 51.6414,-31.9841
 L 51.775,-31.8648 L 51.775,-28.1352 L 51.6414,-28.0159 L 51.5135,-27.9168 L 51.3797,-27.8259 L 51.2405,-27.7435
 L 51.0964,-27.6701 L 50.9479,-27.6058 L 50.7957,-27.551 L 50.6404,-27.5059 L 50.4825,-27.4706 L 50.3227,-27.4453
 L 50.1617,-27.4301 L 50,-27.425 z
M 39.8383,-27.4301 L 39.6773,-27.4453 L 39.5175,-27.4706 L 39.3596,-27.5059 L 39.2043,-27.551 L 39.0521,-27.6058
 L 38.9036,-27.6701 L 38.7595,-27.7435 L 38.6203,-27.8259 L 38.4865,-27.9168 L 38.3586,-28.0159 L 38.25,-28.1117
 L 38.25,-31.8883 L 38.3586,-31.9841 L 38.4865,-32.0832 L 38.6203,-32.1741 L 38.7595,-32.2565 L 38.9036,-32.3299
 L 39.0521,-32.3942 L 39.2043,-32.449 L 39.3596,-32.4941 L 39.5175,-32.5294 L 39.6773,-32.5547 L 39.8383,-32.5699
 L 40,-32.575 L 40.1617,-32.5699 L 40.3227,-32.5547 L 40.4825,-32.5294 L 40.6404,-32.4941 L 40.7957,-32.449
 L 40.9479,-32.3942 L 41.0964,-32.3299 L 41.2405,-32.2565 L 41.3797,-32.1741 L 41.5135,-32.0832 L 41.6414,-31.9841
 L 41.75,-31.8883 L 41.75,-28.1117 L 41.6414,-28.0159 L 41.5135,-27.9168 L 41.3797,-27.8259 L 41.2405,-27.7435
 L 41.0964,-27.6701 L 40.9479,-27.6058 L 40.7957,-27.551 L 40.6404,-27.5059 L 40.4825,-27.4706 L 40.3227,-27.4453
 L 40.1617,-27.4301 L 40,-27.425 z
M 89.8383,-27.4301 L 89.6773,-27.4453 L 89.5175,-27.4706 L 89.3596,-27.5059 L 89.2043,-27.551 L 89.0521,-27.6058
 L 88.9036,-27.6701 L 88.7595,-27.7435 L 88.6203,-27.8259 L 88.4865,-27.9168 L 88.3586,-28.0159 L 88.2373,-28.1229
 L 88.125,-28.2352 L 88.125,-31.7648 L 88.2373,-31.8771 L 88.3586,-31.9841 L 88.4865,-32.0832 L 88.6203,-32.1741
 L 88.7595,-32.2565 L 88.9036,-32.3299 L 89.0521,-32.3942 L 89.2043,-32.449 L 89.3596,-32.4941 L 89.5175,-32.5294
 L 89.6773,-32.5547 L 89.8383,-32.5699 L 90,-32.575 L 90.1617,-32.5699 L 90.3227,-32.5547 L 90.4825,-32.5294
 L 90.6404,-32.4941 L 90.7957,-32.449 L 90.9479,-32.3942 L 91.0964,-32.3299 L 91.2405,-32.2565 L 91.3797,-32.1741
 L 91.5135,-32.0832 L 91.6414,-31.9841 L 91.7627,-31.8771 L 91.875,-31.7648 L 91.875,-28.2352 L 91.7627,-28.1229
 L 91.6414,-28.0159 L 91.5135,-27.9168 L 91.3797,-27.8259 L 91.2405,-27.7435 L 91.0964,-27.6701 L 90.9479,-27.6058
 L 90.7957,-27.551 L 90.6404,-27.5059 L 90.4825,-27.4706 L 90.3227,-27.4453 L 90.1617,-27.4301 L 90,-27.425
 z
M 99.8383,-27.4301 L 99.6773,-27.4453 L 99.5175,-27.4706 L 99.3596,-27.5059 L 99.2043,-27.551 L 99.0521,-27.6058
 L 98.9036,-27.6701 L 98.7595,-27.7435 L 98.6203,-27.8259 L 98.4865,-27.9168 L 98.3586,-28.0159 L 98.2373,-28.1229
 L 98.1229,-28.2373 L 98.1,-28.2633 L 98.1,-31.7367 L 98.1229,-31.7627 L 98.2373,-31.8771 L 98.3586,-31.9841
 L 98.4865,-32.0832 L 98.6203,-32.1741 L 98.7595,-32.2565 L 98.9036,-32.3299 L 99.0521,-32.3942 L 99.2043,-32.449
 L 99.3596,-32.4941 L 99.5175,-32.5294 L 99.6773,-32.5547 L 99.8383,-32.5699 L 100,-32.575 L 100.162,-32.5699
 L 100.323,-32.5547 L 100.482,-32.5294 L 100.64,-32.4941 L 100.796,-32.449 L 100.948,-32.3942 L 101.096,-32.3299
 L 101.241,-32.2565 L 101.38,-32.1741 L 101.514,-32.0832 L 101.641,-31.9841 L 101.763,-31.8771 L 101.877,-31.7627
 L 101.9,-31.7367 L 101.9,-28.2633 L 101.877,-28.2373 L 101.763,-28.1229 L 101.641,-28.0159 L 101.514,-27.9168
 L 101.38,-27.8259 L 101.241,-27.7435 L 101.096,-27.6701 L 100.948,-27.6058 L 100.796,-27.551 L 100.64,-27.5059
 L 100.482,-27.4706 L 100.323,-27.4453 L 100.162,-27.4301 L 100,-27.425 z
M 69.8383,-27.4301 L 69.6773,-27.4453 L 69.5175,-27.4706 L 69.3596,-27.5059 L 69.2043,-27.551 L 69.0521,-27.6058
 L 68.9036,-27.6701 L 68.7595,-27.7435 L 68.6203,-27.8259 L 68.4865,-27.9168 L 68.3586,-28.0159 L 68.2373,-28.1229
 L 68.175,-28.1852 L 68.175,-31.8148 L 68.2373,-31.8771 L 68.3586,-31.9841 L 68.4865,-32.0832 L 68.6203,-32.1741
 L 68.7595,-32.2565 L 68.9036,-32.3299 L 69.0521,-32.3942 L 69.2043,-32.449 L 69.3596,-32.4941 L 69.5175,-32.5294
 L 69.6773,-32.5547 L 69.8383,-32.5699 L 70,-32.575 L 70.1617,-32.5699 L 70.3227,-32.5547 L 70.4825,-32.5294
 L 70.6404,-32.4941 L 70.7957,-32.449 L 70.9479,-32.3942 L 71.0964,-32.3299 L 71.2405,-32.2565 L 71.3797,-32.1741
 L 71.5135,-32.0832 L 71.6414,-31.9841 L 71.7627,-31.8771 L 71.825,-31.8148 L 71.825,-28.1852 L 71.7627,-28.1229
 L 71.6414,-28.0159 L 71.5135,-27.9168 L 71.3797,-27.8259 L 71.2405,-27.7435 L 71.0964,-27.6701 L 70.9479,-27.6058
 L 70.7957,-27.551 L 70.6404,-27.5059 L 70.4825,-27.4706 L 70.3227,-27.4453 L 70.1617,-27.4301 L 70,-27.425
 z
M 19.8383,-27.4301 L 19.6773,-27.4453 L 19.5175,-27.4706 L 19.3596,-27.5059 L 19.2043,-27.551 L 19.0521,-27.6058
 L 18.9036,-27.6701 L 18.7595,-27.7435 L 18.6203,-27.8259 L 18.4865,-27.9168 L 18.3586,-28.0159 L 18.3,-28.0676
 L 18.3,-31.9324 L 18.3586,-31.9841 L 18.4865,-32.0832 L 18.6203,-32.1741 L 18.7595,-32.2565 L 18.9036,-32.3299
 L 19.0521,-32.3942 L 19.2043,-32.449 L 19.3596,-32.4941 L 19.5175,-32.5294 L 19.6773,-32.5547 L 19.8383,-32.5699
 L 20,-32.575 L 20.1617,-32.5699 L 20.3227,-32.5547 L 20.4825,-32.5294 L 20.6404,-32.4941 L 20.7957,-32.449
 L 20.9479,-32.3942 L 21.0964,-32.3299 L 21.2405,-32.2565 L 21.3797,-32.1741 L 21.5135,-32.0832 L 21.6414,-31.9841
 L 21.7,-31.9324 L 21.7,-28.0676 L 21.6414,-28.0159 L 21.5135,-27.9168 L 21.3797,-27.8259 L 21.2405,-27.7435
 L 21.0964,-27.6701 L 20.9479,-27.6058 L 20.7957,-27.551 L 20.6404,-27.5059 L 20.4825,-27.4706 L 20.3227,-27.4453
 L 20.1617,-27.4301 L 20,-27.425 z
M 79.8383,-27.4301 L 79.6773,-27.4453 L 79.5175,-27.4706 L 79.3596,-27.5059 L 79.2043,-27.551 L 79.0521,-27.6058
 L 78.9036,-27.6701 L 78.7595,-27.7435 L 78.6203,-27.8259 L 78.4865,-27.9168 L 78.3586,-28.0159 L 78.2373,-28.1229
 L 78.15,-28.2102 L 78.15,-31.7898 L 78.2373,-31.8771 L 78.3586,-31.9841 L 78.4865,-32.0832 L 78.6203,-32.1741
 L 78.7595,-32.2565 L 78.9036,-32.3299 L 79.0521,-32.3942 L 79.2043,-32.449 L 79.3596,-32.4941 L 79.5175,-32.5294
 L 79.6773,-32.5547 L 79.8383,-32.5699 L 80,-32.575 L 80.1617,-32.5699 L 80.3227,-32.5547 L 80.4825,-32.5294
 L 80.6404,-32.4941 L 80.7957,-32.449 L 80.9479,-32.3942 L 81.0964,-32.3299 L 81.2405,-32.2565 L 81.3797,-32.1741
 L 81.5135,-32.0832 L 81.6414,-31.9841 L 81.7627,-31.8771 L 81.85,-31.7898 L 81.85,-28.2102 L 81.7627,-28.1229
 L 81.6414,-28.0159 L 81.5135,-27.9168 L 81.3797,-27.8259 L 81.2405,-27.7435 L 81.0964,-27.6701 L 80.9479,-27.6058
 L 80.7957,-27.551 L 80.6404,-27.5059 L 80.4825,-27.4706 L 80.3227,-27.4453 L 80.1617,-27.4301 L 80,-27.425
 z
M 29.8383,-27.4301 L 29.6773,-27.4453 L 29.5175,-27.4706 L 29.3596,-27.5059 L 29.2043,-27.551 L 29.0521,-27.6058
 L 28.9036,-27.6701 L 28.7595,-27.7435 L 28.6203,-27.8259 L 28.4865,-27.9168 L 28.3586,-28.0159 L 28.275,-28.0897
 L 28.275,-31.9103 L 28.3586,-31.9841 L 28.4865,-32.0832 L 28.6203,-32.1741 L 28.7595,-32.2565 L 28.9036,-32.3299
 L 29.0521,-32.3942 L 29.2043,-32.449 L 29.3596,-32.4941 L 29.5175,-32.5294 L 29.6773,-32.5547 L 29.8383,-32.5699
 L 30,-32.575 L 30.1617,-32.5699 L 30.3227,-32.5547 L 30.4825,-32.5294 L 30.6404,-32.4941 L 30.7957,-32.449
 L 30.9479,-32.3942 L 31.0964,-32.3299 L 31.2405,-32.2565 L 31.3797,-32.1741 L 31.5135,-32.0832 L 31.6414,-31.9841
 L 31.725,-31.9103 L 31.725,-28.0897 L 31.6414,-28.0159 L 31.5135,-27.9168 L 31.3797,-27.8259 L 31.2405,-27.7435
 L 31.0964,-27.6701 L 30.9479,-27.6058 L 30.7957,-27.551 L 30.6404,-27.5059 L 30.4825,-27.4706 L 30.3227,-27.4453
 L 30.1617,-27.4301 L 30,-27.425 z
M 59.8383,-27.4301 L 59.6773,-27.4453 L 59.5175,-27.4706 L 59.3596,-27.5059 L 59.2043,-27.551 L 59.0521,-27.6058
 L 58.9036,-27.6701 L 58.7595,-27.7435 L 58.6203,-27.8259 L 58.4865,-27.9168 L 58.3586,-28.0159 L 58.2373,-28.1229
 L 58.2,-28.1602 L 58.2,-31.8398 L 58.2373,-31.8771 L 58.3586,-31.9841 L 58.4865,-32.0832 L 58.6203,-32.1741
 L 58.7595,-32.2565 L 58.9036,-32.3299 L 59.0521,-32.3942 L 59.2043,-32.449 L 59.3596,-32.4941 L 59.5175,-32.5294
 L 59.6773,-32.5547 L 59.8383,-32.5699 L 60,-32.575 L 60.1617,-32.5699 L 60.3227,-32.5547 L 60.4825,-32.5294
 L 60.6404,-32.4941 L 60.7957,-32.449 L 60.9479,-32.3942 L 61.0964,-32.3299 L 61.2405,-32.2565 L 61.3797,-32.1741
 L 61.5135,-32.0832 L 61.6414,-31.9841 L 61.7627,-31.8771 L 61.8,-31.8398 L 61.8,-28.1602 L 61.7627,-28.1229
 L 61.6414,-28.0159 L 61.5135,-27.9168 L 61.3797,-27.8259 L 61.2405,-27.7435 L 61.0964,-27.6701 L 60.9479,-27.6058
 L 60.7957,-27.551 L 60.6404,-27.5059 L 60.4825,-27.4706 L 60.3227,-27.4453 L 60.1617,-27.4301 L 60,-27.425
 z
M 9.83832,-27.4301 L 9.67728,-27.4453 L 9.5175,-27.4706 L 9.35963,-27.5059 L 9.20428,-27.551 L 9.05209,-27.6058
 L 8.90363,-27.6701 L 8.75949,-27.7435 L 8.62025,-27.8259 L 8.48647,-27.9168 L 8.35864,-28.0159 L 8.32501,-28.0456
 L 8.32501,-31.9544 L 8.35864,-31.9841 L 8.48647,-32.0832 L 8.62025,-32.1741 L 8.75949,-32.2565 L 8.90363,-32.3299
 L 9.05209,-32.3942 L 9.20428,-32.449 L 9.35963,-32.4941 L 9.5175,-32.5294 L 9.67728,-32.5547 L 9.83832,-32.5699
 L 10,-32.575 L 10.1617,-32.5699 L 10.3227,-32.5547 L 10.4825,-32.5294 L 10.6404,-32.4941 L 10.7957,-32.449
 L 10.9479,-32.3942 L 11.0964,-32.3299 L 11.2405,-32.2565 L 11.3797,-32.1741 L 11.5135,-32.0832 L 11.6414,-31.9841
 L 11.675,-31.9544 L 11.675,-28.0456 L 11.6414,-28.0159 L 11.5135,-27.9168 L 11.3797,-27.8259 L 11.2405,-27.7435
 L 11.0964,-27.6701 L 10.9479,-27.6058 L 10.7957,-27.551 L 10.6404,-27.5059 L 10.4825,-27.4706 L 10.3227,-27.4453
 L 10.1617,-27.4301 L 10,-27.425 z
M 79.8399,-17.455 L 79.6804,-17.4701 L 79.5222,-17.4952 L 79.3658,-17.5301 L 79.212,-17.5748 L 79.0613,-17.6291
 L 78.9143,-17.6927 L 78.7715,-17.7654 L 78.6337,-17.847 L 78.5012,-17.937 L 78.3746,-18.0352 L 78.2544,-18.1411
 L 78.15,-18.2455 L 78.15,-21.7545 L 78.2544,-21.8589 L 78.3746,-21.9648 L 78.5012,-22.063 L 78.6337,-22.153
 L 78.7715,-22.2346 L 78.9143,-22.3073 L 79.0613,-22.3709 L 79.212,-22.4252 L 79.3658,-22.4699 L 79.5222,-22.5048
 L 79.6804,-22.5299 L 79.8399,-22.545 L 80,-22.55 L 80.1601,-22.545 L 80.3196,-22.5299 L 80.4778,-22.5048
 L 80.6342,-22.4699 L 80.788,-22.4252 L 80.9387,-22.3709 L 81.0857,-22.3073 L 81.2285,-22.2346 L 81.3663,-22.153
 L 81.4988,-22.063 L 81.6254,-21.9648 L 81.7456,-21.8589 L 81.85,-21.7545 L 81.85,-18.2455 L 81.7456,-18.1411
 L 81.6254,-18.0352 L 81.4988,-17.937 L 81.3663,-17.847 L 81.2285,-17.7654 L 81.0857,-17.6927 L 80.9387,-17.6291
 L 80.788,-17.5748 L 80.6342,-17.5301 L 80.4778,-17.4952 L 80.3196,-17.4701 L 80.1601,-17.455 L 80,-17.45
 z
M 39.8399,-17.455 L 39.6804,-17.4701 L 39.5222,-17.4952 L 39.3658,-17.5301 L 39.212,-17.5748 L 39.0613,-17.6291
 L 38.9143,-17.6927 L 38.7715,-17.7654 L 38.6337,-17.847 L 38.5012,-17.937 L 38.3746,-18.0352 L 38.25,-18.1456
 L 38.25,-21.8544 L 38.3746,-21.9648 L 38.5012,-22.063 L 38.6337,-22.153 L 38.7715,-22.2346 L 38.9143,-22.3073
 L 39.0613,-22.3709 L 39.212,-22.4252 L 39.3658,-22.4699 L 39.5222,-22.5048 L 39.6804,-22.5299 L 39.8399,-22.545
 L 40,-22.55 L 40.1601,-22.545 L 40.3196,-22.5299 L 40.4778,-22.5048 L 40.6342,-22.4699 L 40.788,-22.4252
 L 40.9387,-22.3709 L 41.0857,-22.3073 L 41.2285,-22.2346 L 41.3663,-22.153 L 41.4988,-22.063 L 41.6254,-21.9648
 L 41.75,-21.8544 L 41.75,-18.1456 L 41.6254,-18.0352 L 41.4988,-17.937 L 41.3663,-17.847 L 41.2285,-17.7654
 L 41.0857,-17.6927 L 40.9387,-17.6291 L 40.788,-17.5748 L 40.6342,-17.5301 L 40.4778,-17.4952 L 40.3196,-17.4701
 L 40.1601,-17.455 L 40,-17.45 z
M 99.8399,-17.455 L 99.6804,-17.4701 L 99.5222,-17.4952 L 99.3658,-17.5301 L 99.212,-17.5748 L 99.0613,-17.6291
 L 98.9143,-17.6927 L 98.7715,-17.7654 L 98.6337,-17.847 L 98.5012,-17.937 L 98.3746,-18.0352 L 98.2544,-18.1411
 L 98.1411,-18.2544 L 98.1,-18.3011 L 98.1,-21.6989 L 98.1411,-21.7456 L 98.2544,-21.8589 L 98.3746,-21.9648
 L 98.5012,-22.063 L 98.6337,-22.153 L 98.7715,-22.2346 L 98.9143,-22.3073 L 99.0613,-22.3709 L 99.212,-22.4252
 L 99.3658,-22.4699 L 99.5222,-22.5048 L 99.6804,-22.5299 L 99.8399,-22.545 L 100,-22.55 L 100.16,-22.545
 L 100.32,-22.5299 L 100.478,-22.5048 L 100.634,-22.4699 L 100.788,-22.4252 L 100.939,-22.3709 L 101.086,-22.3073
 L 101.228,-22.2346 L 101.366,-22.153 L 101.499,-22.063 L 101.625,-21.9648 L 101.746,-21.8589 L 101.859,-21.7456
 L 101.9,-21.6989 L 101.9,-18.3011 L 101.859,-18.2544 L 101.746,-18.1411 L 101.625,-18.0352 L 101.499,-17.937
 L 101.366,-17.847 L 101.228,-17.7654 L 101.086,-17.6927 L 100.939,-17.6291 L 100.788,-17.5748 L 100.634,-17.5301
 L 100.478,-17.4952 L 100.32,-17.4701 L 100.16,-17.455 L 100,-17.45 z
M 69.8399,-17.455 L 69.6804,-17.4701 L 69.5222,-17.4952 L 69.3658,-17.5301 L 69.212,-17.5748 L 69.0613,-17.6291
 L 68.9143,-17.6927 L 68.7715,-17.7654 L 68.6337,-17.847 L 68.5012,-17.937 L 68.3746,-18.0352 L 68.2544,-18.1411
 L 68.175,-18.2206 L 68.175,-21.7794 L 68.2544,-21.8589 L 68.3746,-21.9648 L 68.5012,-22.063 L 68.6337,-22.153
 L 68.7715,-22.2346 L 68.9143,-22.3073 L 69.0613,-22.3709 L 69.212,-22.4252 L 69.3658,-22.4699 L 69.5222,-22.5048
 L 69.6804,-22.5299 L 69.8399,-22.545 L 70,-22.55 L 70.1601,-22.545 L 70.3196,-22.5299 L 70.4778,-22.5048
 L 70.6342,-22.4699 L 70.788,-22.4252 L 70.9387,-22.3709 L 71.0857,-22.3073 L 71.2285,-22.2346 L 71.3663,-22.153
 L 71.4988,-22.063 L 71.6254,-21.9648 L 71.7456,-21.8589 L 71.825,-21.7794 L 71.825,-18.2206 L 71.7456,-18.1411
 L 71.6254,-18.0352 L 71.4988,-17.937 L 71.3663,-17.847 L 71.2285,-17.7654 L 71.0857,-17.6927 L 70.9387,-17.6291
 L 70.788,-17.5748 L 70.6342,-17.5301 L 70.4778,-17.4952 L 70.3196,-17.4701 L 70.1601,-17.455 L 70,-17.45
 z
M 49.8399,-17.455 L 49.6804,-17.4701 L 49.5222,-17.4952 L 49.3658,-17.5301 L 49.212,-17.5748 L 49.0613,-17.6291
 L 48.9143,-17.6927 L 48.7715,-17.7654 L 48.6337,-17.847 L 48.5012,-17.937 L 48.3746,-18.0352 L 48.2544,-18.1411
 L 48.225,-18.1705 L 48.225,-21.8295 L 48.2544,-21.8589 L 48.3746,-21.9648 L 48.5012,-22.063 L 48.6337,-22.153
 L 48.7715,-22.2346 L 48.9143,-22.3073 L 49.0613,-22.3709 L 49.212,-22.4252 L 49.3658,-22.4699 L 49.5222,-22.5048
 L 49.6804,-22.5299 L 49.8399,-22.545 L 50,-22.55 L 50.1601,-22.545 L 50.3196,-22.5299 L 50.4778,-22.5048
 L 50.6342,-22.4699 L 50.788,-22.4252 L 50.9387,-22.3709 L 51.0857,-22.3073 L 51.2285,-22.2346 L 51.3663,-22.153
 L 51.4988,-22.063 L 51.6254,-21.9648 L 51.7456,-21.8589 L 51.775,-21.8295 L 51.775,-18.1705 L 51.7456,-18.1411
 L 51.6254,-18.0352 L 51.4988,-17.937 L 51.3663,-17.847 L 51.2285,-17.7654 L 51.0857,-17.6927 L 50.9387,-17.6291
 L 50.788,-17.5748 L 50.6342,-17.5301 L 50.4778,-17.4952 L 50.3196,-17.4701 L 50.1601,-17.455 L 50,-17.45
 z
M 9.83989,-17.455 L 9.6804,-17.4701 L 9.52219,-17.4952 L 9.36584,-17.5301 L 9.21202,-17.5748 L 9.06129,-17.6291
 L 8.91428,-17.6927 L 8.77153,-17.7654 L 8.63365,-17.847 L 8.50116,-17.937 L 8.37457,-18.0352 L 8.32501,-18.0789
 L 8.32501,-21.9211 L 8.37457,-21.9648 L 8.50116,-22.063 L 8.63365,-22.153 L 8.77153,-22.2346 L 8.91428,-22.3073
 L 9.06129,-22.3709 L 9.21202,-22.4252 L 9.36584,-22.4699 L 9.52219,-22.5048 L 9.6804,-22.5299 L 9.83989,-22.545
 L 10,-22.55 L 10.1601,-22.545 L 10.3196,-22.5299 L 10.4778,-22.5048 L 10.6342,-22.4699 L 10.788,-22.4252
 L 10.9387,-22.3709 L 11.0857,-22.3073 L 11.2285,-22.2346 L 11.3663,-22.153 L 11.4988,-22.063 L 11.6254,-21.9648
 L 11.675,-21.9211 L 11.675,-18.0789 L 11.6254,-18.0352 L 11.4988,-17.937 L 11.3663,-17.847 L 11.2285,-17.7654
 L 11.0857,-17.6927 L 10.9387,-17.6291 L 10.788,-17.5748 L 10.6342,-17.5301 L 10.4778,-17.4952 L 10.3196,-17.4701
 L 10.1601,-17.455 L 10,-17.45 z
M 89.8399,-17.455 L 89.6804,-17.4701 L 89.5222,-17.4952 L 89.3658,-17.5301 L 89.212,-17.5748 L 89.0613,-17.6291
 L 88.9143,-17.6927 L 88.7715,-17.7654 L 88.6337,-17.847 L 88.5012,-17.937 L 88.3746,-18.0352 L 88.2544,-18.1411
 L 88.1411,-18.2544 L 88.125,-18.2727 L 88.125,-21.7273 L 88.1411,-21.7456 L 88.2544,-21.8589 L 88.3746,-21.9648
 L 88.5012,-22.063 L 88.6337,-22.153 L 88.7715,-22.2346 L 88.9143,-22.3073 L 89.0613,-22.3709 L 89.212,-22.4252
 L 89.3658,-22.4699 L 89.5222,-22.5048 L 89.6804,-22.5299 L 89.8399,-22.545 L 90,-22.55 L 90.1601,-22.545
 L 90.3196,-22.5299 L 90.4778,-22.5048 L 90.6342,-22.4699 L 90.788,-22.4252 L 90.9387,-22.3709 L 91.0857,-22.3073
 L 91.2285,-22.2346 L 91.3663,-22.153 L 91.4988,-22.063 L 91.6254,-21.9648 L 91.7456,-21.8589 L 91.8589,-21.7456
 L 91.875,-21.7273 L 91.875,-18.2727 L 91.8589,-18.2544 L 91.7456,-18.1411 L 91.6254,-18.0352 L 91.4988,-17.937
 L 91.3663,-17.847 L 91.2285,-17.7654 L 91.0857,-17.6927 L 90.9387,-17.6291 L 90.788,-17.5748 L 90.6342,-17.5301
 L 90.4778,-17.4952 L 90.3196,-17.4701 L 90.1601,-17.455 L 90,-17.45 z
M 59.8399,-17.455 L 59.6804,-17.4701 L 59.5222,-17.4952 L 59.3658,-17.5301 L 59.212,-17.5748 L 59.0613,-17.6291
 L 58.9143,-17.6927 L 58.7715,-17.7654 L 58.6337,-17.847 L 58.5012,-17.937 L 58.3746,-18.0352 L 58.2544,-18.1411
 L 58.2,-18.1955 L 58.2,-21.8045 L 58.2544,-21.8589 L 58.3746,-21.9648 L 58.5012,-22.063 L 58.6337,-22.153
 L 58.7715,-22.2346 L 58.9143,-22.3073 L 59.0613,-22.3709 L 59.212,-22.4252 L 59.3658,-22.4699 L 59.5222,-22.5048
 L 59.6804,-22.5299 L 59.8399,-22.545 L 60,-22.55 L 60.1601,-22.545 L 60.3196,-22.5299 L 60.4778,-22.5048
 L 60.6342,-22.4699 L 60.788,-22.4252 L 60.9387,-22.3709 L 61.0857,-22.3073 L 61.2285,-22.2346 L 61.3663,-22.153
 L 61.4988,-22.063 L 61.6254,-21.9648 L 61.7456,-21.8589 L 61.8,-21.8045 L 61.8,-18.1955 L 61.7456,-18.1411
 L 61.6254,-18.0352 L 61.4988,-17.937 L 61.3663,-17.847 L 61.2285,-17.7654 L 61.0857,-17.6927 L 60.9387,-17.6291
 L 60.788,-17.5748 L 60.6342,-17.5301 L 60.4778,-17.4952 L 60.3196,-17.4701 L 60.1601,-17.455 L 60,-17.45
 z
M 19.8399,-17.455 L 19.6804,-17.4701 L 19.5222,-17.4952 L 19.3658,-17.5301 L 19.212,-17.5748 L 19.0613,-17.6291
 L 18.9143,-17.6927 L 18.7715,-17.7654 L 18.6337,-17.847 L 18.5012,-17.937 L 18.3746,-18.0352 L 18.3,-18.101
 L 18.3,-21.899 L 18.3746,-21.9648 L 18.5012,-22.063 L 18.6337,-22.153 L 18.7715,-22.2346 L 18.9143,-22.3073
 L 19.0613,-22.3709 L 19.212,-22.4252 L 19.3658,-22.4699 L 19.5222,-22.5048 L 19.6804,-22.5299 L 19.8399,-22.545
 L 20,-22.55 L 20.1601,-22.545 L 20.3196,-22.5299 L 20.4778,-22.5048 L 20.6342,-22.4699 L 20.788,-22.4252
 L 20.9387,-22.3709 L 21.0857,-22.3073 L 21.2285,-22.2346 L 21.3663,-22.153 L 21.4988,-22.063 L 21.6254,-21.9648
 L 21.7,-21.899 L 21.7,-18.101 L 21.6254,-18.0352 L 21.4988,-17.937 L 21.3663,-17.847 L 21.2285,-17.7654
 L 21.0857,-17.6927 L 20.9387,-17.6291 L 20.788,-17.5748 L 20.6342,-17.5301 L 20.4778,-17.4952 L 20.3196,-17.4701
 L 20.1601,-17.455 L 20,-17.45 z
M 29.8399,-17.455 L 29.6804,-17.4701 L 29.5222,-17.4952 L 29.3658,-17.5301 L 29.212,-17.5748 L 29.0613,-17.6291
 L 28.9143,-17.6927 L 28.7715,-17.7654 L 28.6337,-17.847 L 28.5012,-17.937 L 28.3746,-18.0352 L 28.275,-18.123
 L 28.275,-21.877 L 28.3746,-21.9648 L 28.5012,-22.063 L 28.6337,-22.153 L 28.7715,-22.2346 L 28.9143,-22.3073
 L 29.0613,-22.3709 L 29.212,-22.4252 L 29.3658,-22.4699 L 29.5222,-22.5048 L 29.6804,-22.5299 L 29.8399,-22.545
 L 30,-22.55 L 30.1601,-22.545 L 30.3196,-22.5299 L 30.4778,-22.5048 L 30.6342,-22.4699 L 30.788,-22.4252
 L 30.9387,-22.3709 L 31.0857,-22.3073 L 31.2285,-22.2346 L 31.3663,-22.153 L 31.4988,-22.063 L 31.6254,-21.9648
 L 31.725,-21.877 L 31.725,-18.123 L 31.6254,-18.0352 L 31.4988,-17.937 L 31.3663,-17.847 L 31.2285,-17.7654
 L 31.0857,-17.6927 L 30.9387,-17.6291 L 30.788,-17.5748 L 30.6342,-17.5301 L 30.4778,-17.4952 L 30.3196,-17.4701
 L 30.1601,-17.455 L 30,-17.45 z
M 19.8415,-7.48 L 19.6835,-7.49492 L 19.5269,-7.51973 L 19.3721,-7.55434 L 19.2197,-7.59859 L 19.0705,-7.65233
 L 18.9249,-7.71532 L 18.7836,-7.78734 L 18.647,-7.86807 L 18.5159,-7.95724 L 18.3905,-8.05446 L 18.3,-8.13426
 L 18.3,-11.8657 L 18.3905,-11.9455 L 18.5159,-12.0428 L 18.647,-12.1319 L 18.7836,-12.2127 L 18.9249,-12.2847
 L 19.0705,-12.3477 L 19.2197,-12.4014 L 19.3721,-12.4457 L 19.5269,-12.4803 L 19.6835,-12.5051 L 19.8415,-12.52
 L 20,-12.525 L 20.1585,-12.52 L 20.3165,-12.5051 L 20.4731,-12.4803 L 20.6279,-12.4457 L 20.7803,-12.4014
 L 20.9295,-12.3477 L 21.0751,-12.2847 L 21.2164,-12.2127 L 21.353,-12.1319 L 21.4841,-12.0428 L 21.6095,-11.9455
 L 21.7,-11.8657 L 21.7,-8.13426 L 21.6095,-8.05446 L 21.4841,-7.95724 L 21.353,-7.86807 L 21.2164,-7.78734
 L 21.0751,-7.71532 L 20.9295,-7.65233 L 20.7803,-7.59859 L 20.6279,-7.55434 L 20.4731,-7.51973 L 20.3165,-7.49492
 L 20.1585,-7.48 L 20,-7.47501 z
M 99.8415,-7.48 L 99.6835,-7.49492 L 99.5269,-7.51973 L 99.3721,-7.55434 L 99.2197,-7.59859 L 99.0705,-7.65233
 L 98.9249,-7.71532 L 98.7836,-7.78734 L 98.647,-7.86807 L 98.5159,-7.95724 L 98.3905,-8.05446 L 98.2715,-8.15936
 L 98.1594,-8.27153 L 98.1,-8.33885 L 98.1,-11.6611 L 98.1594,-11.7285 L 98.2715,-11.8406 L 98.3905,-11.9455
 L 98.5159,-12.0428 L 98.647,-12.1319 L 98.7836,-12.2127 L 98.9249,-12.2847 L 99.0705,-12.3477 L 99.2197,-12.4014
 L 99.3721,-12.4457 L 99.5269,-12.4803 L 99.6835,-12.5051 L 99.8415,-12.52 L 100,-12.525 L 100.159,-12.52
 L 100.316,-12.5051 L 100.473,-12.4803 L 100.628,-12.4457 L 100.78,-12.4014 L 100.93,-12.3477 L 101.075,-12.2847
 L 101.216,-12.2127 L 101.353,-12.1319 L 101.484,-12.0428 L 101.609,-11.9455 L 101.728,-11.8406 L 101.841,-11.7285
 L 101.9,-11.6611 L 101.9,-8.33885 L 101.841,-8.27153 L 101.728,-8.15936 L 101.609,-8.05446 L 101.484,-7.95724
 L 101.353,-7.86807 L 101.216,-7.78734 L 101.075,-7.71532 L 100.93,-7.65233 L 100.78,-7.59859 L 100.628,-7.55434
 L 100.473,-7.51973 L 100.316,-7.49492 L 100.159,-7.48 L 100,-7.47501 z
M 89.8415,-7.48 L 89.6835,-7.49492 L 89.5269,-7.51973 L 89.3721,-7.55434 L 89.2197,-7.59859 L 89.0705,-7.65233
 L 88.9249,-7.71532 L 88.7836,-7.78734 L 88.647,-7.86807 L 88.5159,-7.95724 L 88.3905,-8.05446 L 88.2715,-8.15936
 L 88.1594,-8.27153 L 88.125,-8.3105 L 88.125,-11.6895 L 88.1594,-11.7285 L 88.2715,-11.8406 L 88.3905,-11.9455
 L 88.5159,-12.0428 L 88.647,-12.1319 L 88.7836,-12.2127 L 88.9249,-12.2847 L 89.0705,-12.3477 L 89.2197,-12.4014
 L 89.3721,-12.4457 L 89.5269,-12.4803 L 89.6835,-12.5051 L 89.8415,-12.52 L 90,-12.525 L 90.1585,-12.52
 L 90.3165,-12.5051 L 90.4731,-12.4803 L 90.6279,-12.4457 L 90.7803,-12.4014 L 90.9295,-12.3477 L 91.0751,-12.2847
 L 91.2164,-12.2127 L 91.353,-12.1319 L 91.4841,-12.0428 L 91.6095,-11.9455 L 91.7285,-11.8406 L 91.8406,-11.7285
 L 91.875,-11.6895 L 91.875,-8.3105 L 91.8406,-8.27153 L 91.7285,-8.15936 L 91.6095,-8.05446 L 91.4841,-7.95724
 L 91.353,-7.86807 L 91.2164,-7.78734 L 91.0751,-7.71532 L 90.9295,-7.65233 L 90.7803,-7.59859 L 90.6279,-7.55434
 L 90.4731,-7.51973 L 90.3165,-7.49492 L 90.1585,-7.48 L 90,-7.47501 z
M 79.8415,-7.48 L 79.6835,-7.49492 L 79.5269,-7.51973 L 79.3721,-7.55434 L 79.2197,-7.59859 L 79.0705,-7.65233
 L 78.9249,-7.71532 L 78.7836,-7.78734 L 78.647,-7.86807 L 78.5159,-7.95724 L 78.3905,-8.05446 L 78.2715,-8.15936
 L 78.15,-8.28214 L 78.15,-11.7179 L 78.2715,-11.8406 L 78.3905,-11.9455 L 78.5159,-12.0428 L 78.647,-12.1319
 L 78.7836,-12.2127 L 78.9249,-12.2847 L 79.0705,-12.3477 L 79.2197,-12.4014 L 79.3721,-12.4457 L 79.5269,-12.4803
 L 79.6835,-12.5051 L 79.8415,-12.52 L 80,-12.525 L 80.1585,-12.52 L 80.3165,-12.5051 L 80.4731,-12.4803
 L 80.6279,-12.4457 L 80.7803,-12.4014 L 80.9295,-12.3477 L 81.0751,-12.2847 L 81.2164,-12.2127 L 81.353,-12.1319
 L 81.4841,-12.0428 L 81.6095,-11.9455 L 81.7285,-11.8406 L 81.85,-11.7179 L 81.85,-8.28214 L 81.7285,-8.15936
 L 81.6095,-8.05446 L 81.4841,-7.95724 L 81.353,-7.86807 L 81.2164,-7.78734 L 81.0751,-7.71532 L 80.9295,-7.65233
 L 80.7803,-7.59859 L 80.6279,-7.55434 L 80.4731,-7.51973 L 80.3165,-7.49492 L 80.1585,-7.48 L 80,-7.47501
 z
M 69.8415,-7.48 L 69.6835,-7.49492 L 69.5269,-7.51973 L 69.3721,-7.55434 L 69.2197,-7.59859 L 69.0705,-7.65233
 L 68.9249,-7.71532 L 68.7836,-7.78734 L 68.647,-7.86807 L 68.5159,-7.95724 L 68.3905,-8.05446 L 68.2715,-8.15936
 L 68.175,-8.25589 L 68.175,-11.7441 L 68.2715,-11.8406 L 68.3905,-11.9455 L 68.5159,-12.0428 L 68.647,-12.1319
 L 68.7836,-12.2127 L 68.9249,-12.2847 L 69.0705,-12.3477 L 69.2197,-12.4014 L 69.3721,-12.4457 L 69.5269,-12.4803
 L 69.6835,-12.5051 L 69.8415,-12.52 L 70,-12.525 L 70.1585,-12.52 L 70.3165,-12.5051 L 70.4731,-12.4803
 L 70.6279,-12.4457 L 70.7803,-12.4014 L 70.9295,-12.3477 L 71.0751,-12.2847 L 71.2164,-12.2127 L 71.353,-12.1319
 L 71.4841,-12.0428 L 71.6095,-11.9455 L 71.7285,-11.8406 L 71.825,-11.7441 L 71.825,-8.25589 L 71.7285,-8.15936
 L 71.6095,-8.05446 L 71.4841,-7.95724 L 71.353,-7.86807 L 71.2164,-7.78734 L 71.0751,-7.71532 L 70.9295,-7.65233
 L 70.7803,-7.59859 L 70.6279,-7.55434 L 70.4731,-7.51973 L 70.3165,-7.49492 L 70.1585,-7.48 L 70,-7.47501
 z
M 9.84146,-7.48 L 9.68355,-7.49492 L 9.52687,-7.51973 L 9.37207,-7.55434 L 9.21974,-7.59859 L 9.0705,-7.65233
 L 8.92491,-7.71532 L 8.78358,-7.78734 L 8.64705,-7.86807 L 8.51585,-7.95724 L 8.39052,-8.05446 L 8.32501,-8.11221
 L 8.32501,-11.8878 L 8.39052,-11.9455 L 8.51585,-12.0428 L 8.64705,-12.1319 L 8.78358,-12.2127 L 8.92491,-12.2847
 L 9.0705,-12.3477 L 9.21974,-12.4014 L 9.37207,-12.4457 L 9.52687,-12.4803 L 9.68355,-12.5051 L 9.84146,-12.52
 L 10,-12.525 L 10.1585,-12.52 L 10.3165,-12.5051 L 10.4731,-12.4803 L 10.6279,-12.4457 L 10.7803,-12.4014
 L 10.9295,-12.3477 L 11.0751,-12.2847 L 11.2164,-12.2127 L 11.353,-12.1319 L 11.4841,-12.0428 L 11.6095,-11.9455
 L 11.675,-11.8878 L 11.675,-8.11221 L 11.6095,-8.05446 L 11.4841,-7.95724 L 11.353,-7.86807 L 11.2164,-7.78734
 L 11.0751,-7.71532 L 10.9295,-7.65233 L 10.7803,-7.59859 L 10.6279,-7.55434 L 10.4731,-7.51973 L 10.3165,-7.49492
 L 10.1585,-7.48 L 10,-7.47501 z
M 59.8415,-7.48 L 59.6835,-7.49492 L 59.5269,-7.51973 L 59.3721,-7.55434 L 59.2197,-7.59859 L 59.0705,-7.65233
 L 58.9249,-7.71532 L 58.7836,-7.78734 L 58.647,-7.86807 L 58.5159,-7.95724 L 58.3905,-8.05446 L 58.2715,-8.15936
 L 58.2,-8.23088 L 58.2,-11.7691 L 58.2715,-11.8406 L 58.3905,-11.9455 L 58.5159,-12.0428 L 58.647,-12.1319
 L 58.7836,-12.2127 L 58.9249,-12.2847 L 59.0705,-12.3477 L 59.2197,-12.4014 L 59.3721,-12.4457 L 59.5269,-12.4803
 L 59.6835,-12.5051 L 59.8415,-12.52 L 60,-12.525 L 60.1585,-12.52 L 60.3165,-12.5051 L 60.4731,-12.4803
 L 60.6279,-12.4457 L 60.7803,-12.4014 L 60.9295,-12.3477 L 61.0751,-12.2847 L 61.2164,-12.2127 L 61.353,-12.1319
 L 61.4841,-12.0428 L 61.6095,-11.9455 L 61.7285,-11.8406 L 61.8,-11.7691 L 61.8,-8.23088 L 61.7285,-8.15936
 L 61.6095,-8.05446 L 61.4841,-7.95724 L 61.353,-7.86807 L 61.2164,-7.78734 L 61.0751,-7.71532 L 60.9295,-7.65233
 L 60.7803,-7.59859 L 60.6279,-7.55434 L 60.4731,-7.51973 L 60.3165,-7.49492 L 60.1585,-7.48 L 60,-7.47501
 z
M 49.8415,-7.48 L 49.6835,-7.49492 L 49.5269,-7.51973 L 49.3721,-7.55434 L 49.2197,-7.59859 L 49.0705,-7.65233
 L 48.9249,-7.71532 L 48.7836,-7.78734 L 48.647,-7.86807 L 48.5159,-7.95724 L 48.3905,-8.05446 L 48.2715,-8.15936
 L 48.225,-8.20589 L 48.225,-11.7941 L 48.2715,-11.8406 L 48.3905,-11.9455 L 48.5159,-12.0428 L 48.647,-12.1319
 L 48.7836,-12.2127 L 48.9249,-12.2847 L 49.0705,-12.3477 L 49.2197,-12.4014 L 49.3721,-12.4457 L 49.5269,-12.4803
 L 49.6835,-12.5051 L 49.8415,-12.52 L 50,-12.525 L 50.1585,-12.52 L 50.3165,-12.5051 L 50.4731,-12.4803
 L 50.6279,-12.4457 L 50.7803,-12.4014 L 50.9295,-12.3477 L 51.0751,-12.2847 L 51.2164,-12.2127 L 51.353,-12.1319
 L 51.4841,-12.0428 L 51.6095,-11.9455 L 51.7285,-11.8406 L 51.775,-11.7941 L 51.775,-8.20589 L 51.7285,-8.15936
 L 51.6095,-8.05446 L 51.4841,-7.95724 L 51.353,-7.86807 L 51.2164,-7.78734 L 51.0751,-7.71532 L 50.9295,-7.65233
 L 50.7803,-7.59859 L 50.6279,-7.55434 L 50.4731,-7.51973 L 50.3165,-7.49492 L 50.1585,-7.48 L 50,-7.47501
 z
M 39.8415,-7.48 L 39.6835,-7.49492 L 39.5269,-7.51973 L 39.3721,-7.55434 L 39.2197,-7.59859 L 39.0705,-7.65233
 L 38.9249,-7.71532 L 38.7836,-7.78734 L 38.647,-7.86807 L 38.5159,-7.95724 L 38.3905,-8.05446 L 38.2715,-8.15936
 L 38.25,-8.18089 L 38.25,-11.8191 L 38.2715,-11.8406 L 38.3905,-11.9455 L 38.5159,-12.0428 L 38.647,-12.1319
 L 38.7836,-12.2127 L 38.9249,-12.2847 L 39.0705,-12.3477 L 39.2197,-12.4014 L 39.3721,-12.4457 L 39.5269,-12.4803
 L 39.6835,-12.5051 L 39.8415,-12.52 L 40,-12.525 L 40.1585,-12.52 L 40.3165,-12.5051 L 40.4731,-12.4803
 L 40.6279,-12.4457 L 40.7803,-12.4014 L 40.9295,-12.3477 L 41.0751,-12.2847 L 41.2164,-12.2127 L 41.353,-12.1319
 L 41.4841,-12.0428 L 41.6095,-11.9455 L 41.7285,-11.8406 L 41.75,-11.8191 L 41.75,-8.18089 L 41.7285,-8.15936
 L 41.6095,-8.05446 L 41.4841,-7.95724 L 41.353,-7.86807 L 41.2164,-7.78734 L 41.0751,-7.71532 L 40.9295,-7.65233
 L 40.7803,-7.59859 L 40.6279,-7.55434 L 40.4731,-7.51973 L 40.3165,-7.49492 L 40.1585,-7.48 L 40,-7.47501
 z
M 29.8415,-7.48 L 29.6835,-7.49492 L 29.5269,-7.51973 L 29.3721,-7.55434 L 29.2197,-7.59859 L 29.0705,-7.65233
 L 28.9249,-7.71532 L 28.7836,-7.78734 L 28.647,-7.86807 L 28.5159,-7.95724 L 28.3905,-8.05446 L 28.275,-8.1563
 L 28.275,-11.8437 L 28.3905,-11.9455 L 28.5159,-12.0428 L 28.647,-12.1319 L 28.7836,-12.2127 L 28.9249,-12.2847
 L 29.0705,-12.3477 L 29.2197,-12.4014 L 29.3721,-12.4457 L 29.5269,-12.4803 L 29.6835,-12.5051 L 29.8415,-12.52
 L 30,-12.525 L 30.1585,-12.52 L 30.3165,-12.5051 L 30.4731,-12.4803 L 30.6279,-12.4457 L 30.7803,-12.4014
 L 30.9295,-12.3477 L 31.0751,-12.2847 L 31.2164,-12.2127 L 31.353,-12.1319 L 31.4841,-12.0428 L 31.6095,-11.9455
 L 31.725,-11.8437 L 31.725,-8.1563 L 31.6095,-8.05446 L 31.4841,-7.95724 L 31.353,-7.86807 L 31.2164,-7.78734
 L 31.0751,-7.71532 L 30.9295,-7.65233 L 30.7803,-7.59859 L 30.6279,-7.55434 L 30.4731,-7.51973 L 30.3165,-7.49492
 L 30.1585,-7.48 L 30,-7.47501 z
" stroke="black" fill="lightgray" stroke-width="0.5"/></svg>
